SplineFontDB: 3.0
FontName: puchamte
FullName: puchamte
FamilyName: puchamte
Weight: Book
Copyright: Typeface © (Maruthi Software Developers). 2010. All Rights Reserved
Version: 1.00 May 12, 2010, initial release
ItalicAngle: 0
UnderlinePosition: -142
UnderlineWidth: 150
Ascent: 1638
Descent: 410
LayerCount: 2
Layer: 0 1 "Back"  1
Layer: 1 1 "Fore"  0
XUID: [1021 41 1765263776 3040472]
FSType: 8
OS2Version: 1
OS2_WeightWidthSlopeOnly: 0
OS2_UseTypoMetrics: 1
CreationTime: 1273742562
ModificationTime: 1273762900
PfmFamily: 17
TTFWeight: 400
TTFWidth: 5
LineGap: 67
VLineGap: 0
Panose: 2 0 5 0 0 0 0 0 0 0
OS2TypoAscent: -147
OS2TypoAOffset: 1
OS2TypoDescent: -21
OS2TypoDOffset: 1
OS2TypoLinegap: 307
OS2WinAscent: 404
OS2WinAOffset: 1
OS2WinDescent: -1049
OS2WinDOffset: 1
HheadAscent: 404
HheadAOffset: 1
HheadDescent: 1049
HheadDOffset: 1
OS2SubXSize: 1434
OS2SubYSize: 1331
OS2SubXOff: 0
OS2SubYOff: 283
OS2SupXSize: 1434
OS2SupYSize: 1331
OS2SupXOff: 0
OS2SupYOff: 977
OS2StrikeYSize: 102
OS2StrikeYPos: 530
OS2Vendor: 'HL  '
OS2CodePages: 20000111.41000000
OS2UnicodeRanges: 800000a7.5000004a.00000000.00000000
DEI: 91125
ShortTable: maxp 16
  1
  0
  584
  259
  11
  0
  0
  0
  0
  0
  0
  0
  0
  0
  0
  0
EndShort
LangName: 1033 "" "" "Regular" "puchamte:Version 1.00" "" "Version 1.00 May 12, 2010, initial release" "" "" "" "" "This font was created using FontCreator 5.6 from High-Logic.com" 
LangName: 1036 "" "" "Normal" 
LangName: 1031 "" "" "Standard" 
LangName: 1040 "" "" "Normale" 
LangName: 1043 "" "" "Standaard" 
LangName: 1053 "" "" "Normal" 
LangName: 1034 "" "" "Normal" 
LangName: 1030 "" "" "normal" 
LangName: 1046 "" "" "Normal" 
LangName: 1044 "" "" "Normal" 
LangName: 1035 "" "" "Normaali" 
LangName: 1055 "" "" "Normal" 
LangName: 1069 "" "" "Arrunta" 
LangName: 1027 "" "" "Normal" 
LangName: 1032 "" "" "+A5oDsQO9A78DvQO5A7oDrAAA" 
LangName: 1049 "" "" "+BB4EMQRLBEcEPQRLBDkA" 
LangName: 1045 "" "" "Normalny" 
LangName: 1038 "" "" "Norm+AOEA-l" 

StartChar: .notdef
Encoding: 65536 -1 0
Width: 1024
Flags: W
LayerCount: 2
Fore
SplineSet
5 1450 m 1,0,-1
 557 1450 l 1,1,-1
 562 1445 l 1,2,-1
 562 5 l 1,3,-1
 557 0 l 1,4,-1
 5 0 l 1,5,-1
 0 5 l 1,6,-1
 0 1445 l 1,7,-1
 5 1450 l 1,0,-1
35 1412 m 1,8,-1
 35 35 l 1,9,-1
 525 35 l 1,10,-1
 525 1412 l 1,11,-1
 35 1412 l 1,8,-1
221 1367 m 1,12,-1
 264 1367 l 2,13,14
 272 1367 272 1367 280 1315 c 1,15,-1
 285 1315 l 1,16,17
 293 1367 293 1367 301 1367 c 2,18,-1
 344 1367 l 1,19,-1
 350 1361 l 1,20,-1
 350 1256 l 1,21,-1
 344 1251 l 1,22,-1
 320 1251 l 1,23,-1
 315 1256 l 1,24,-1
 315 1307 l 1,25,-1
 312 1307 l 1,26,27
 302 1251 302 1251 296 1251 c 2,28,-1
 272 1251 l 2,29,30
 262 1251 262 1251 253 1310 c 1,31,-1
 250 1310 l 1,32,-1
 250 1256 l 1,33,-1
 245 1251 l 1,34,-1
 221 1251 l 1,35,-1
 215 1256 l 1,36,-1
 215 1361 l 1,37,-1
 221 1367 l 1,12,-1
258 1173 m 1,38,-1
 304 1173 l 2,39,40
 309 1173 309 1173 347 1060 c 1,41,-1
 344 1057 l 1,42,-1
 309 1057 l 2,43,44
 302 1057 302 1057 299 1076 c 1,45,-1
 269 1076 l 1,46,-1
 258 1057 l 1,47,-1
 223 1057 l 1,48,-1
 218 1063 l 1,49,50
 251 1167 251 1167 258 1173 c 1,38,-1
280 1130 m 1,51,-1
 274 1106 l 1,52,-1
 291 1106 l 1,53,-1
 282 1130 l 1,54,-1
 280 1130 l 1,51,-1
237 979 m 1,55,-1
 304 979 l 2,56,57
 339 979 339 979 339 950 c 2,58,-1
 339 942 l 1,59,60
 334 915 334 915 317 915 c 1,61,62
 333 898 333 898 347 866 c 1,63,-1
 344 864 l 1,64,-1
 307 864 l 1,65,-1
 280 904 l 1,66,-1
 277 907 l 1,67,-1
 272 907 l 1,68,-1
 272 869 l 1,69,-1
 266 864 l 1,70,-1
 237 864 l 1,71,-1
 231 869 l 1,72,-1
 231 974 l 1,73,-1
 237 979 l 1,55,-1
272 950 m 1,74,-1
 272 936 l 1,75,-1
 277 936 l 2,76,77
 297 936 297 936 299 944 c 1,78,-1
 282 950 l 1,79,-1
 272 950 l 1,74,-1
229 786 m 1,80,-1
 258 786 l 1,81,-1
 264 780 l 1,82,-1
 264 718 l 1,83,84
 266 697 266 697 282 697 c 1,85,86
 299 700 299 700 299 721 c 2,87,-1
 299 780 l 1,88,-1
 304 786 l 1,89,-1
 334 786 l 1,90,-1
 339 780 l 1,91,-1
 339 713 l 1,92,93
 334 667 334 667 293 667 c 2,94,-1
 269 667 l 1,95,96
 223 672 223 672 223 713 c 2,97,-1
 223 780 l 1,98,-1
 229 786 l 1,80,-1
231 589 m 1,99,-1
 331 589 l 1,100,-1
 336 584 l 1,101,-1
 336 565 l 1,102,-1
 331 560 l 1,103,-1
 301 560 l 1,104,-1
 301 479 l 1,105,-1
 296 473 l 1,106,-1
 266 473 l 1,107,-1
 261 479 l 1,108,-1
 261 560 l 1,109,-1
 231 560 l 1,110,-1
 226 565 l 1,111,-1
 226 584 l 1,112,-1
 231 589 l 1,99,-1
229 395 m 1,113,-1
 258 395 l 1,114,-1
 264 390 l 1,115,-1
 264 355 l 1,116,-1
 299 355 l 1,117,-1
 299 390 l 1,118,-1
 304 395 l 1,119,-1
 334 395 l 1,120,-1
 339 390 l 1,121,-1
 339 285 l 1,122,-1
 334 280 l 1,123,-1
 304 280 l 1,124,-1
 299 285 l 1,125,-1
 299 326 l 1,126,-1
 264 326 l 1,127,-1
 264 285 l 1,128,-1
 258 280 l 1,129,-1
 229 280 l 1,130,-1
 223 285 l 1,131,-1
 223 390 l 1,132,-1
 229 395 l 1,113,-1
266 202 m 1,133,-1
 296 202 l 1,134,-1
 301 196 l 1,135,-1
 301 91 l 1,136,-1
 296 86 l 1,137,-1
 266 86 l 1,138,-1
 261 91 l 1,139,-1
 261 196 l 1,140,-1
 266 202 l 1,133,-1
EndSplineSet
EndChar

StartChar: exclam
Encoding: 33 33 4
Width: 389
Flags: W
LayerCount: 2
Fore
SplineSet
306 1110 m 1,0,-1
 233 283 l 1,1,-1
 153 283 l 1,2,-1
 81 1110 l 1,3,4
 81 1159 81 1159 115 1196 c 128,-1,5
 149 1233 149 1233 196 1233 c 0,6,7
 241 1233 241 1233 274 1198 c 0,8,9
 290 1182 290 1182 298 1162.5 c 128,-1,10
 306 1143 306 1143 306 1110 c 1,0,-1
300 96 m 0,11,12
 300 53 300 53 267 25 c 1,13,14
 237 -6 237 -6 192 -6 c 256,15,16
 147 -6 147 -6 116 21.5 c 128,-1,17
 85 49 85 49 85 96 c 0,18,19
 85 147 85 147 118 178 c 128,-1,20
 151 209 151 209 192 209 c 0,21,22
 237 209 237 209 268.5 181.5 c 128,-1,23
 300 154 300 154 300 96 c 0,11,12
EndSplineSet
EndChar

StartChar: quotedbl
Encoding: 34 34 5
Width: 645
Flags: W
LayerCount: 2
Fore
SplineSet
307 1098 m 0,0,1
 307 944 307 944 200 829 c 0,2,3
 165 791 165 791 94 750 c 1,4,-1
 63 776 l 1,5,-1
 108 813 l 1,6,7
 213 911 213 911 213 1022 c 1,8,-1
 186 1020 l 1,9,10
 137 1020 137 1020 110 1036 c 0,11,12
 65 1063 65 1063 65 1124 c 0,13,14
 65 1180 65 1180 101 1212.5 c 128,-1,15
 137 1245 137 1245 182 1245 c 0,16,17
 231 1245 231 1245 269 1207 c 128,-1,18
 307 1169 307 1169 307 1098 c 0,0,1
593 1098 m 0,19,20
 593 944 593 944 487 829 c 0,21,22
 452 791 452 791 380 750 c 1,23,-1
 350 776 l 1,24,-1
 395 813 l 1,25,26
 499 911 499 911 499 1022 c 1,27,-1
 473 1020 l 1,28,29
 423 1020 423 1020 397 1036 c 0,30,31
 352 1063 352 1063 352 1124 c 0,32,33
 352 1180 352 1180 387.5 1212.5 c 128,-1,34
 423 1245 423 1245 469 1245 c 0,35,36
 518 1245 518 1245 555.5 1207 c 128,-1,37
 593 1169 593 1169 593 1098 c 0,19,20
EndSplineSet
EndChar

StartChar: numbersign
Encoding: 35 35 6
Width: 1146
Flags: W
LayerCount: 2
Fore
SplineSet
136 -113 m 1,0,-1
 224 264 l 1,1,-1
 81 264 l 1,2,-1
 81 399 l 1,3,-1
 257 399 l 1,4,-1
 331 717 l 1,5,-1
 95 717 l 1,6,-1
 97 854 l 1,7,-1
 364 854 l 1,8,-1
 452 1233 l 1,9,-1
 583 1233 l 1,10,-1
 499 854 l 1,11,-1
 779 854 l 1,12,-1
 863 1233 l 1,13,-1
 999 1233 l 1,14,-1
 912 854 l 1,15,-1
 1064 854 l 1,16,-1
 1064 717 l 1,17,-1
 880 717 l 1,18,-1
 800 399 l 1,19,-1
 1046 399 l 1,20,-1
 1048 264 l 1,21,-1
 771 264 l 1,22,-1
 683 -113 l 1,23,-1
 548 -113 l 1,24,-1
 638 264 l 1,25,-1
 360 264 l 1,26,-1
 271 -113 l 1,27,-1
 136 -113 l 1,0,-1
388 399 m 1,28,-1
 667 399 l 1,29,-1
 745 717 l 1,30,-1
 468 717 l 1,31,-1
 388 399 l 1,28,-1
EndSplineSet
EndChar

StartChar: dollar
Encoding: 36 36 7
Width: 903
Flags: W
LayerCount: 2
Fore
SplineSet
415 -121 m 1,0,-1
 415 12 l 1,1,2
 308 25 308 25 247.5 58.5 c 128,-1,3
 187 92 187 92 139 164 c 128,-1,4
 91 236 91 236 81 342 c 1,5,-1
 218 371 l 1,6,7
 235 262 235 262 276 207 c 1,8,9
 333 135 333 135 413 131 c 1,10,-1
 413 563 l 1,11,12
 329 582 329 582 241 631 c 0,13,14
 177 666 177 666 141.5 729.5 c 128,-1,15
 106 793 106 793 106 877 c 0,16,17
 106 1024 106 1024 206 1116 c 1,18,19
 276 1178 276 1178 411 1186 c 1,20,-1
 411 1253 l 1,21,-1
 495 1253 l 1,22,-1
 495 1186 l 1,23,24
 611 1178 611 1178 681 1120 c 1,25,26
 769 1042 769 1042 790 913 c 1,27,-1
 650 889 l 1,28,29
 638 975 638 975 598 1018 c 128,-1,30
 558 1061 558 1061 495 1077 c 1,31,-1
 495 678 l 1,32,33
 599 653 599 653 630 639 c 0,34,35
 695 610 695 610 736 569 c 128,-1,36
 777 528 777 528 798.5 473 c 128,-1,37
 820 418 820 418 820 354 c 0,38,39
 820 213 820 213 731 118 c 128,-1,40
 642 23 642 23 495 16 c 1,41,-1
 495 -121 l 1,42,-1
 415 -121 l 1,0,-1
411 1079 m 1,43,44
 331 1065 331 1065 284 1010.5 c 128,-1,45
 237 956 237 956 237 887 c 0,46,47
 237 819 237 819 278 771 c 128,-1,48
 319 723 319 723 411 694 c 1,49,-1
 411 1079 l 1,43,44
495 131 m 1,50,51
 573 135 573 135 627 195.5 c 128,-1,52
 681 256 681 256 681 342 c 0,53,54
 681 422 681 422 641 465 c 128,-1,55
 601 508 601 508 495 543 c 1,56,-1
 495 131 l 1,50,51
EndSplineSet
EndChar

StartChar: percent
Encoding: 37 37 8
Width: 1245
Flags: W
LayerCount: 2
Fore
SplineSet
97 930 m 1,0,1
 89 1053 89 1053 146.5 1141 c 128,-1,2
 204 1229 204 1229 327 1229 c 0,3,4
 435 1229 435 1229 512 1153 c 128,-1,5
 589 1077 589 1077 601 922 c 1,6,7
 609 772 609 772 543.5 692 c 128,-1,8
 478 612 478 612 368 612 c 0,9,10
 259 612 259 612 186.5 691 c 128,-1,11
 114 770 114 770 97 930 c 1,0,1
335 1128 m 0,12,13
 282 1128 282 1128 249 1084 c 128,-1,14
 216 1040 216 1040 228 915 c 1,15,16
 232 801 232 801 271 756 c 128,-1,17
 310 711 310 711 361 711 c 0,18,19
 417 711 417 711 448.5 756 c 128,-1,20
 480 801 480 801 474 924 c 1,21,22
 464 1040 464 1040 427 1084 c 128,-1,23
 390 1128 390 1128 335 1128 c 0,12,13
294 -2 m 1,24,-1
 851 1229 l 1,25,-1
 968 1229 l 1,26,-1
 413 -2 l 1,27,-1
 294 -2 l 1,24,-1
658 313 m 1,28,29
 648 436 648 436 704.5 525 c 128,-1,30
 761 614 761 614 882 614 c 0,31,32
 988 614 988 614 1069 534.5 c 128,-1,33
 1150 455 1150 455 1160 305 c 0,34,35
 1170 158 1170 158 1103.5 78 c 128,-1,36
 1037 -2 1037 -2 927 -2 c 0,37,38
 820 -2 820 -2 743.5 77 c 128,-1,39
 667 156 667 156 658 313 c 1,28,29
892 518 m 0,40,41
 834 518 834 518 804.5 471 c 128,-1,42
 775 424 775 424 781 297 c 1,43,44
 789 186 789 186 827 140 c 128,-1,45
 865 94 865 94 923 94 c 0,46,47
 976 94 976 94 1006.5 140 c 128,-1,48
 1037 186 1037 186 1033 311 c 1,49,50
 1025 424 1025 424 985 471 c 128,-1,51
 945 518 945 518 892 518 c 0,40,41
EndSplineSet
EndChar

StartChar: ampersand
Encoding: 38 38 9
Width: 1177
Flags: W
LayerCount: 2
Fore
SplineSet
816 160 m 1,0,1
 747 82 747 82 662 42 c 128,-1,2
 577 2 577 2 478 2 c 0,3,4
 296 2 296 2 181 121 c 1,5,6
 91 227 91 227 85 352 c 1,7,8
 83 459 83 459 151.5 549 c 128,-1,9
 220 639 220 639 355 707 c 1,10,11
 278 797 278 797 248 855 c 128,-1,12
 218 913 218 913 218 971 c 1,13,14
 210 1077 210 1077 292 1155 c 128,-1,15
 374 1233 374 1233 505 1233 c 0,16,17
 628 1233 628 1233 708 1160 c 128,-1,18
 788 1087 788 1087 794 979 c 1,19,20
 798 809 798 809 575 692 c 1,21,-1
 800 416 l 1,22,23
 835 487 835 487 847 586 c 1,24,-1
 1005 547 l 1,25,26
 970 393 970 393 906 291 c 1,27,28
 988 182 988 182 1097 111 c 1,29,-1
 1007 -4 l 1,30,31
 914 51 914 51 816 160 c 1,0,1
495 786 m 1,32,33
 587 838 587 838 615.5 882 c 128,-1,34
 644 926 644 926 640 979 c 1,35,36
 638 1036 638 1036 601 1076 c 128,-1,37
 564 1116 564 1116 499 1116 c 0,38,39
 443 1116 443 1116 403.5 1077 c 128,-1,40
 364 1038 364 1038 364 981 c 1,41,42
 368 954 368 954 383 923.5 c 128,-1,43
 398 893 398 893 429 858 c 2,44,-1
 495 786 l 1,32,33
722 274 m 1,45,-1
 441 612 l 1,46,47
 323 537 323 537 283 476.5 c 128,-1,48
 243 416 243 416 243 356 c 1,49,50
 245 287 245 287 306.5 208 c 128,-1,51
 368 129 368 129 478 129 c 0,52,53
 540 129 540 129 610.5 169 c 128,-1,54
 681 209 681 209 722 274 c 1,45,-1
EndSplineSet
EndChar

StartChar: quotesingle
Encoding: 39 39 10
Width: 387
Flags: W
LayerCount: 2
Fore
SplineSet
307 1098 m 0,0,1
 307 944 307 944 200 829 c 0,2,3
 165 791 165 791 94 750 c 1,4,-1
 63 776 l 1,5,-1
 108 813 l 1,6,7
 213 911 213 911 213 1022 c 1,8,-1
 186 1020 l 1,9,10
 137 1020 137 1020 110 1036 c 0,11,12
 65 1063 65 1063 65 1124 c 0,13,14
 65 1180 65 1180 101 1212.5 c 128,-1,15
 137 1245 137 1245 182 1245 c 0,16,17
 231 1245 231 1245 269 1207 c 128,-1,18
 307 1169 307 1169 307 1098 c 0,0,1
EndSplineSet
EndChar

StartChar: parenleft
Encoding: 40 40 11
Width: 571
Flags: W
LayerCount: 2
Fore
SplineSet
308 -109 m 1,0,1
 214 25 214 25 154.5 200 c 128,-1,2
 95 375 95 375 109 565 c 0,3,4
 122 733 122 733 189 887 c 0,5,6
 267 1067 267 1067 410 1245 c 1,7,-1
 503 1245 l 1,8,9
 404 1096 404 1096 374 1034 c 1,10,11
 324 938 324 938 290 831 c 1,12,13
 251 698 251 698 242 565 c 1,14,15
 214 227 214 227 398 -109 c 1,16,-1
 308 -109 l 1,0,1
EndSplineSet
EndChar

StartChar: parenright
Encoding: 41 41 12
Width: 571
Flags: W
LayerCount: 2
Fore
SplineSet
185 -109 m 1,0,1
 370 227 370 227 341 565 c 1,2,3
 333 698 333 698 294 831 c 1,4,5
 259 938 259 938 210 1034 c 0,6,7
 177 1098 177 1098 81 1245 c 1,8,-1
 173 1245 l 1,9,10
 317 1067 317 1067 392 887 c 1,11,12
 460 735 460 735 472 565 c 1,13,14
 489 375 489 375 429.5 200 c 128,-1,15
 370 25 370 25 276 -109 c 1,16,-1
 185 -109 l 1,0,1
EndSplineSet
EndChar

StartChar: asterisk
Encoding: 42 42 13
Width: 1007
Flags: W
LayerCount: 2
Fore
SplineSet
482 545 m 1,0,1
 480 606 480 606 471 638 c 128,-1,2
 462 670 462 670 427 736.5 c 128,-1,3
 392 803 392 803 392 842 c 0,4,5
 392 889 392 889 427 926 c 128,-1,6
 462 963 462 963 503 963 c 0,7,8
 548 963 548 963 582 929 c 128,-1,9
 616 895 616 895 616 840 c 0,10,11
 616 797 616 797 582 735.5 c 128,-1,12
 548 674 548 674 540 641 c 128,-1,13
 532 608 532 608 525 545 c 1,14,15
 585 569 585 569 610.5 587.5 c 128,-1,16
 636 606 636 606 685 657 c 0,17,18
 753 729 753 729 814 729 c 0,19,20
 861 729 861 729 893 698.5 c 128,-1,21
 925 668 925 668 925 625 c 256,22,23
 925 582 925 582 885 546 c 128,-1,24
 845 510 845 510 783 510 c 0,25,26
 763 510 763 510 710 514 c 1,27,28
 683 514 683 514 652 514 c 0,29,30
 613 514 613 514 534 510 c 1,31,32
 581 457 581 457 606.5 437.5 c 128,-1,33
 632 418 632 418 693.5 387 c 128,-1,34
 755 356 755 356 783 319 c 1,35,36
 804 293 804 293 804 252 c 0,37,38
 804 207 804 207 773.5 175 c 128,-1,39
 743 143 743 143 699 143 c 0,40,41
 652 143 652 143 616.5 181 c 128,-1,42
 581 219 581 219 566 315 c 1,43,44
 558 377 558 377 548 405.5 c 128,-1,45
 538 434 538 434 505 489 c 1,46,47
 468 432 468 432 457 401.5 c 128,-1,48
 446 371 446 371 439 315 c 1,49,50
 425 219 425 219 389 183 c 128,-1,51
 353 147 353 147 308 147 c 0,52,53
 265 147 265 147 233.5 177 c 128,-1,54
 202 207 202 207 202 248 c 256,55,56
 202 289 202 289 226.5 322.5 c 128,-1,57
 251 356 251 356 314.5 392 c 128,-1,58
 378 428 378 428 401.5 445.5 c 128,-1,59
 425 463 425 463 472 510 c 1,60,-1
 360 514 l 1,61,62
 329 514 329 514 304 514 c 1,63,64
 241 508 241 508 218 508 c 0,65,66
 157 508 157 508 119 543 c 128,-1,67
 81 578 81 578 81 625 c 0,68,69
 81 668 81 668 112.5 698.5 c 128,-1,70
 144 729 144 729 192 729 c 0,71,72
 257 729 257 729 319.5 665.5 c 128,-1,73
 382 602 382 602 398 588 c 1,74,75
 425 569 425 569 482 545 c 1,0,1
EndSplineSet
EndChar

StartChar: plus
Encoding: 43 43 14
Width: 1071
Flags: W
LayerCount: 2
Fore
SplineSet
454 0 m 1,0,-1
 454 385 l 1,1,-1
 81 385 l 1,2,-1
 81 541 l 1,3,-1
 456 541 l 1,4,-1
 456 909 l 1,5,-1
 616 909 l 1,6,-1
 616 541 l 1,7,-1
 988 541 l 1,8,-1
 986 385 l 1,9,-1
 613 385 l 1,10,-1
 613 0 l 1,11,-1
 454 0 l 1,0,-1
EndSplineSet
EndChar

StartChar: comma
Encoding: 44 44 15
Width: 509
Flags: W
LayerCount: 2
Fore
SplineSet
409 78 m 0,0,1
 409 -76 409 -76 302 -190 c 1,2,3
 269 -227 269 -227 196 -272 c 1,4,-1
 165 -246 l 1,5,6
 218 -207 218 -207 239 -180 c 1,7,8
 315 -92 315 -92 315 2 c 1,9,-1
 288 0 l 1,10,11
 239 0 239 0 212 16 c 0,12,13
 167 43 167 43 167 104 c 0,14,15
 167 160 167 160 202 191.5 c 128,-1,16
 237 223 237 223 284 223 c 256,17,18
 331 223 331 223 370 186.5 c 128,-1,19
 409 150 409 150 409 78 c 0,0,1
EndSplineSet
EndChar

StartChar: hyphen
Encoding: 45 45 16
AltUni2: 0000ad.ffffffff.0
Width: 700
Flags: W
LayerCount: 2
Fore
SplineSet
81 381 m 1,0,-1
 81 535 l 1,1,-1
 618 535 l 1,2,-1
 618 381 l 1,3,-1
 81 381 l 1,0,-1
EndSplineSet
EndChar

StartChar: period
Encoding: 46 46 17
Width: 489
Flags: W
LayerCount: 2
Fore
SplineSet
424 109 m 0,0,1
 424 59 424 59 391 29.5 c 128,-1,2
 358 0 358 0 305 0 c 0,3,4
 256 0 256 0 222 28.5 c 128,-1,5
 188 57 188 57 188 109 c 0,6,7
 188 166 188 166 223 195.5 c 128,-1,8
 258 225 258 225 305 225 c 256,9,10
 352 225 352 225 388 194.5 c 128,-1,11
 424 164 424 164 424 109 c 0,0,1
EndSplineSet
EndChar

StartChar: slash
Encoding: 47 47 18
Width: 720
Flags: W
LayerCount: 2
Fore
SplineSet
81 -106 m 1,0,-1
 507 1229 l 1,1,-1
 638 1229 l 1,2,-1
 214 -106 l 1,3,-1
 81 -106 l 1,0,-1
EndSplineSet
EndChar

StartChar: zero
Encoding: 48 48 19
Width: 892
Flags: W
LayerCount: 2
Fore
SplineSet
81 449 m 0,0,1
 81 598 81 598 139.5 706.5 c 128,-1,2
 198 815 198 815 294 868 c 1,3,4
 368 911 368 911 450 911 c 0,5,6
 579 911 579 911 681 809 c 1,7,8
 810 682 810 682 810 463 c 0,9,10
 810 311 810 311 754.5 203.5 c 128,-1,11
 699 96 699 96 610 49 c 128,-1,12
 521 2 521 2 439 2 c 0,13,14
 278 2 278 2 171 150 c 0,15,16
 81 274 81 274 81 449 c 0,0,1
263 406 m 0,17,18
 263 248 263 248 314 147 c 0,19,20
 357 63 357 63 437 63 c 0,21,22
 478 63 478 63 520 91 c 128,-1,23
 562 119 562 119 585 182 c 1,24,25
 618 281 618 281 618 459 c 0,26,27
 618 588 618 588 583 674 c 0,28,29
 556 741 556 741 515 768 c 0,30,31
 487 786 487 786 443 786 c 0,32,33
 394 786 394 786 355 752 c 0,34,35
 302 705 302 705 282.5 604.5 c 128,-1,36
 263 504 263 504 263 406 c 0,17,18
EndSplineSet
EndChar

StartChar: one
Encoding: 49 49 20
Width: 796
Flags: W
LayerCount: 2
Fore
SplineSet
81 805 m 1,0,-1
 470 911 l 1,1,-1
 509 911 l 1,2,-1
 509 154 l 2,3,4
 509 78 509 78 520.5 59.5 c 128,-1,5
 532 41 532 41 568.5 30.5 c 128,-1,6
 605 20 605 20 714 20 c 1,7,-1
 714 -4 l 1,8,-1
 110 -4 l 1,9,-1
 110 20 l 1,10,11
 224 20 224 20 257 30.5 c 128,-1,12
 290 41 290 41 302 57.5 c 128,-1,13
 314 74 314 74 314 154 c 2,14,-1
 314 637 l 2,15,16
 314 737 314 737 302 764 c 0,17,18
 294 784 294 784 272.5 794.5 c 128,-1,19
 251 805 251 805 222 805 c 0,20,21
 175 805 175 805 99 784 c 1,22,-1
 81 805 l 1,0,-1
EndSplineSet
EndChar

StartChar: two
Encoding: 50 50 21
Width: 1028
Flags: W
LayerCount: 2
Fore
SplineSet
945 172 m 1,0,-1
 853 0 l 1,1,-1
 81 0 l 1,2,-1
 81 25 l 1,3,4
 421 238 421 238 527.5 368 c 128,-1,5
 634 498 634 498 661 608 c 1,6,7
 677 784 677 784 441 809 c 1,8,9
 345 809 345 809 268.5 771 c 128,-1,10
 192 733 192 733 155 659 c 1,11,-1
 120 659 l 1,12,13
 142 780 142 780 242.5 845.5 c 128,-1,14
 343 911 343 911 491 911 c 0,15,16
 652 911 652 911 757.5 841.5 c 128,-1,17
 863 772 863 772 863 676 c 0,18,19
 863 608 863 608 818 541 c 0,20,21
 747 436 747 436 587 315 c 0,22,23
 347 135 347 135 331 131 c 1,24,-1
 673 131 l 2,25,26
 777 131 777 131 818 132 c 128,-1,27
 859 133 859 133 908 172 c 1,28,-1
 945 172 l 1,0,-1
EndSplineSet
EndChar

StartChar: three
Encoding: 51 51 22
Width: 956
Flags: W
LayerCount: 2
Fore
SplineSet
104 725 m 1,0,1
 163 815 163 815 254 863 c 128,-1,2
 345 911 345 911 480 911 c 0,3,4
 646 911 646 911 736 842 c 0,5,6
 804 791 804 791 804 731 c 0,7,8
 804 637 804 637 613 532 c 1,9,10
 743 502 743 502 808.5 442.5 c 128,-1,11
 874 383 874 383 874 303 c 0,12,13
 874 190 874 190 757 106 c 1,14,15
 609 -2 609 -2 325 -2 c 0,16,17
 183 -2 183 -2 132 19.5 c 128,-1,18
 81 41 81 41 81 66 c 0,19,20
 81 84 81 84 104.5 98.5 c 128,-1,21
 128 113 128 113 163 113 c 0,22,23
 190 113 190 113 216 109 c 1,24,25
 233 104 233 104 294 83.5 c 128,-1,26
 355 63 355 63 380 59 c 1,27,28
 419 51 419 51 462 51 c 0,29,30
 566 51 566 51 644 103.5 c 128,-1,31
 722 156 722 156 722 225 c 0,32,33
 722 279 722 279 685 326 c 0,34,35
 659 360 659 360 626 381 c 1,36,37
 581 406 581 406 505 427.5 c 128,-1,38
 429 449 429 449 349 449 c 2,39,-1
 317 449 l 1,40,-1
 317 469 l 1,41,42
 396 473 396 473 477 504 c 128,-1,43
 558 535 558 535 596 578 c 128,-1,44
 634 621 634 621 634 672 c 0,45,46
 634 739 634 739 567.5 780 c 128,-1,47
 501 821 501 821 403 821 c 0,48,49
 243 821 243 821 138 715 c 1,50,-1
 104 725 l 1,0,1
EndSplineSet
EndChar

StartChar: four
Encoding: 52 52 23
Width: 1071
Flags: W
LayerCount: 2
Fore
SplineSet
988 330 m 1,0,-1
 988 236 l 1,1,-1
 808 236 l 1,2,-1
 808 0 l 1,3,-1
 607 0 l 1,4,-1
 607 236 l 1,5,-1
 81 236 l 1,6,-1
 81 319 l 1,7,-1
 699 911 l 1,8,-1
 808 911 l 1,9,-1
 808 330 l 1,10,-1
 988 330 l 1,0,-1
611 330 m 1,11,-1
 611 772 l 1,12,-1
 171 330 l 1,13,-1
 611 330 l 1,11,-1
EndSplineSet
EndChar

StartChar: five
Encoding: 53 53 24
Width: 929
Flags: W
LayerCount: 2
Fore
SplineSet
847 911 m 1,0,-1
 773 799 l 1,1,-1
 376 799 l 1,2,-1
 290 678 l 1,3,4
 548 653 548 653 697 549 c 0,5,6
 826 459 826 459 826 338 c 0,7,8
 826 268 826 268 784.5 207.5 c 128,-1,9
 743 147 743 147 678 105 c 128,-1,10
 613 63 613 63 538 37 c 1,11,12
 423 0 423 0 308 0 c 0,13,14
 187 0 187 0 134 27.5 c 128,-1,15
 81 55 81 55 81 88 c 0,16,17
 81 106 81 106 103.5 120.5 c 128,-1,18
 126 135 126 135 161 135 c 0,19,20
 185 135 185 135 203.5 130 c 128,-1,21
 222 125 222 125 269 102 c 0,22,23
 341 68 341 68 417 68 c 0,24,25
 530 68 530 68 614.5 127 c 128,-1,26
 699 186 699 186 699 270 c 0,27,28
 699 348 699 348 623.5 418.5 c 128,-1,29
 548 489 548 489 413 528 c 1,30,31
 308 557 308 557 124 563 c 1,32,-1
 376 911 l 1,33,-1
 847 911 l 1,0,-1
EndSplineSet
EndChar

StartChar: six
Encoding: 54 54 25
Width: 919
Flags: W
LayerCount: 2
Fore
SplineSet
812 911 m 1,0,-1
 812 887 l 1,1,2
 697 879 697 879 623.5 853 c 128,-1,3
 550 827 550 827 477.5 775 c 128,-1,4
 405 723 405 723 357.5 658.5 c 128,-1,5
 310 594 310 594 280 506 c 1,6,7
 407 569 407 569 534 569 c 0,8,9
 656 569 656 569 746.5 496.5 c 128,-1,10
 837 424 837 424 837 311 c 0,11,12
 837 201 837 201 747 109 c 1,13,14
 638 2 638 2 458 2 c 0,15,16
 335 2 335 2 249 59 c 1,17,18
 81 176 81 176 81 358 c 0,19,20
 81 477 81 477 145.5 583.5 c 128,-1,21
 210 690 210 690 330 772 c 128,-1,22
 450 854 450 854 559.5 882.5 c 128,-1,23
 669 911 669 911 763 911 c 2,24,-1
 812 911 l 1,0,-1
265 459 m 1,25,26
 249 371 249 371 249 317 c 0,27,28
 249 254 249 254 279.5 181.5 c 128,-1,29
 310 109 310 109 372 68 c 0,30,31
 419 37 419 37 482 37 c 0,32,33
 558 37 558 37 619.5 89 c 128,-1,34
 681 141 681 141 681 242 c 0,35,36
 681 350 681 350 620.5 431 c 128,-1,37
 560 512 560 512 450 512 c 0,38,39
 417 512 417 512 378 503 c 128,-1,40
 339 494 339 494 265 459 c 1,25,26
EndSplineSet
EndChar

StartChar: seven
Encoding: 55 55 26
Width: 991
Flags: W
LayerCount: 2
Fore
SplineSet
206 911 m 1,0,-1
 908 911 l 1,1,-1
 908 887 l 1,2,-1
 472 2 l 1,3,-1
 362 2 l 1,4,-1
 753 805 l 1,5,-1
 394 805 l 2,6,7
 284 805 284 805 239 786 c 1,8,9
 157 756 157 756 110 692 c 1,10,-1
 81 698 l 1,11,-1
 206 911 l 1,0,-1
EndSplineSet
EndChar

StartChar: eight
Encoding: 56 56 27
Width: 860
Flags: W
LayerCount: 2
Fore
SplineSet
321 461 m 1,0,1
 177 545 177 545 135 597 c 128,-1,2
 93 649 93 649 93 705 c 0,3,4
 93 791 93 791 184.5 853 c 128,-1,5
 276 915 276 915 427 915 c 0,6,7
 573 915 573 915 661 857 c 128,-1,8
 749 799 749 799 749 725 c 0,9,10
 749 676 749 676 700.5 623.5 c 128,-1,11
 652 571 652 571 501 504 c 1,12,13
 659 416 659 416 708 365 c 1,14,15
 777 299 777 299 777 225 c 0,16,17
 777 131 777 131 680 66.5 c 128,-1,18
 583 2 583 2 425 2 c 0,19,20
 253 2 253 2 159 80 c 1,21,22
 81 143 81 143 81 217 c 0,23,24
 81 274 81 274 135.5 331.5 c 128,-1,25
 190 389 190 389 321 461 c 1,0,1
460 528 m 1,26,27
 564 598 564 598 593 639 c 128,-1,28
 622 680 622 680 622 731 c 0,29,30
 622 799 622 799 570.5 838 c 128,-1,31
 519 877 519 877 427 877 c 0,32,33
 337 877 337 877 280.5 839 c 128,-1,34
 224 801 224 801 224 748 c 0,35,36
 224 715 224 715 246.5 681 c 128,-1,37
 269 647 269 647 314 616 c 1,38,-1
 460 528 l 1,26,27
360 436 m 1,39,40
 288 389 288 389 253 335 c 128,-1,41
 218 281 218 281 218 219 c 0,42,43
 218 137 218 137 280.5 86 c 128,-1,44
 343 35 343 35 439 35 c 0,45,46
 534 35 534 35 592 75 c 128,-1,47
 650 115 650 115 650 172 c 0,48,49
 650 217 650 217 616 256 c 1,50,51
 554 324 554 324 360 436 c 1,39,40
EndSplineSet
EndChar

StartChar: nine
Encoding: 57 57 28
Width: 933
Flags: W
LayerCount: 2
Fore
SplineSet
106 2 m 1,0,-1
 106 25 l 1,1,2
 224 33 224 33 299 58.5 c 128,-1,3
 374 84 374 84 447.5 137 c 128,-1,4
 521 190 521 190 569.5 254.5 c 128,-1,5
 618 319 618 319 650 408 c 1,6,7
 521 344 521 344 388 344 c 0,8,9
 263 344 263 344 172 416.5 c 128,-1,10
 81 489 81 489 81 602 c 0,11,12
 81 713 81 713 175 803 c 1,13,14
 284 915 284 915 470 915 c 0,15,16
 595 915 595 915 681 856 c 0,17,18
 851 739 851 739 851 553 c 0,19,20
 851 436 851 436 786.5 329.5 c 128,-1,21
 722 223 722 223 599 140 c 128,-1,22
 476 57 476 57 364.5 29.5 c 128,-1,23
 253 2 253 2 157 2 c 2,24,-1
 106 2 l 1,0,-1
667 455 m 1,25,26
 681 543 681 543 681 596 c 0,27,28
 681 659 681 659 649.5 731 c 128,-1,29
 618 803 618 803 554 848 c 1,30,31
 507 877 507 877 443 877 c 0,32,33
 364 877 364 877 303.5 824.5 c 128,-1,34
 243 772 243 772 243 672 c 0,35,36
 243 563 243 563 303.5 481 c 128,-1,37
 364 399 364 399 476 399 c 0,38,39
 509 399 509 399 549 409.5 c 128,-1,40
 589 420 589 420 667 455 c 1,25,26
EndSplineSet
EndChar

StartChar: colon
Encoding: 58 58 29
Width: 364
Flags: W
LayerCount: 2
Fore
SplineSet
303 690 m 0,0,1
 303 639 303 639 269 611.5 c 128,-1,2
 235 584 235 584 182 584 c 0,3,4
 133 584 133 584 99 610.5 c 128,-1,5
 65 637 65 637 65 690 c 0,6,7
 65 748 65 748 102 778.5 c 128,-1,8
 139 809 139 809 188 809 c 0,9,10
 235 809 235 809 269 777 c 128,-1,11
 303 745 303 745 303 690 c 0,0,1
303 236 m 0,12,13
 303 184 303 184 269 156.5 c 128,-1,14
 235 129 235 129 182 129 c 0,15,16
 133 129 133 129 99 155.5 c 128,-1,17
 65 182 65 182 65 236 c 0,18,19
 65 293 65 293 102 323.5 c 128,-1,20
 139 354 139 354 184 354 c 0,21,22
 231 354 231 354 267 323.5 c 128,-1,23
 303 293 303 293 303 236 c 0,12,13
EndSplineSet
EndChar

StartChar: semicolon
Encoding: 59 59 30
AltUni2: 00037e.ffffffff.0
Width: 374
Flags: W
LayerCount: 2
Fore
SplineSet
305 612 m 0,0,1
 305 563 305 563 272 533.5 c 128,-1,2
 239 504 239 504 186 504 c 0,3,4
 137 504 137 504 103 532.5 c 128,-1,5
 69 561 69 561 69 612 c 0,6,7
 69 668 69 668 104 699.5 c 128,-1,8
 139 731 139 731 186 731 c 256,9,10
 233 731 233 731 269 700.5 c 128,-1,11
 305 670 305 670 305 612 c 0,0,1
307 78 m 0,12,13
 307 -76 307 -76 200 -190 c 1,14,15
 167 -227 167 -227 94 -272 c 1,16,-1
 63 -246 l 1,17,18
 116 -207 116 -207 137 -180 c 1,19,20
 213 -92 213 -92 213 2 c 1,21,-1
 186 0 l 1,22,23
 137 0 137 0 110 16 c 0,24,25
 65 43 65 43 65 104 c 0,26,27
 65 160 65 160 101 192.5 c 128,-1,28
 137 225 137 225 182 225 c 0,29,30
 231 225 231 225 269 187.5 c 128,-1,31
 307 150 307 150 307 78 c 0,12,13
EndSplineSet
EndChar

StartChar: less
Encoding: 60 60 31
Width: 919
Flags: W
LayerCount: 2
Fore
SplineSet
81 375 m 1,0,-1
 81 532 l 1,1,-1
 837 909 l 1,2,-1
 837 748 l 1,3,-1
 235 455 l 1,4,-1
 835 164 l 1,5,-1
 835 -4 l 1,6,-1
 81 375 l 1,0,-1
EndSplineSet
EndChar

StartChar: equal
Encoding: 61 61 32
Width: 878
Flags: W
LayerCount: 2
Fore
SplineSet
796 250 m 1,0,-1
 83 250 l 1,1,-1
 81 362 l 1,2,-1
 794 362 l 1,3,-1
 796 250 l 1,0,-1
796 516 m 1,4,-1
 83 516 l 1,5,-1
 81 629 l 1,6,-1
 794 629 l 1,7,-1
 796 516 l 1,4,-1
EndSplineSet
EndChar

StartChar: greater
Encoding: 62 62 33
Width: 919
Flags: W
LayerCount: 2
Fore
SplineSet
83 -4 m 1,0,-1
 83 164 l 1,1,-1
 683 455 l 1,2,-1
 81 748 l 1,3,-1
 81 909 l 1,4,-1
 837 532 l 1,5,-1
 837 375 l 1,6,-1
 83 -4 l 1,0,-1
EndSplineSet
EndChar

StartChar: question
Encoding: 63 63 34
Width: 841
Flags: W
LayerCount: 2
Fore
SplineSet
759 901 m 0,0,1
 759 754 759 754 599 621.5 c 128,-1,2
 439 489 439 489 439 451 c 2,3,-1
 439 369 l 1,4,-1
 439 301 l 2,5,6
 439 276 439 276 452 225 c 1,7,-1
 368 225 l 1,8,-1
 337 340 l 1,9,-1
 329 446 l 1,10,11
 329 479 329 479 499 700 c 0,12,13
 585 811 585 811 585 911 c 0,14,15
 585 991 585 991 537 1054.5 c 128,-1,16
 489 1118 489 1118 396 1118 c 0,17,18
 288 1118 288 1118 222 1055 c 1,19,20
 169 1008 169 1008 169 944 c 1,21,-1
 181 901 l 1,22,-1
 190 885 l 1,23,-1
 216 920 l 1,24,25
 245 954 245 954 276 958 c 1,26,27
 319 958 319 958 349.5 929.5 c 128,-1,28
 380 901 380 901 380 854 c 0,29,30
 380 795 380 795 362 774 c 0,31,32
 337 745 337 745 261 745 c 0,33,34
 175 745 175 745 128 800.5 c 128,-1,35
 81 856 81 856 81 952 c 0,36,37
 81 1092 81 1092 185 1169 c 1,38,39
 278 1233 278 1233 417 1233 c 0,40,41
 560 1233 560 1233 659.5 1140 c 128,-1,42
 759 1047 759 1047 759 901 c 0,0,1
530 4 m 0,43,44
 530 -45 530 -45 496 -78 c 128,-1,45
 462 -111 462 -111 413 -111 c 256,46,47
 364 -111 364 -111 329 -77 c 128,-1,48
 294 -43 294 -43 294 4 c 256,49,50
 294 51 294 51 330 89 c 128,-1,51
 366 127 366 127 413 127 c 256,52,53
 460 127 460 127 495 92 c 128,-1,54
 530 57 530 57 530 4 c 0,43,44
EndSplineSet
EndChar

StartChar: at
Encoding: 64 64 35
Width: 1757
Flags: W
LayerCount: 2
Fore
SplineSet
980 129 m 1,0,1
 925 66 925 66 859.5 33 c 128,-1,2
 794 0 794 0 728 0 c 0,3,4
 654 0 654 0 582.5 39 c 128,-1,5
 511 78 511 78 463 166 c 128,-1,6
 415 254 415 254 411 367 c 1,7,8
 408 494 408 494 474 626 c 128,-1,9
 540 758 540 758 634 826.5 c 128,-1,10
 728 895 728 895 824 895 c 0,11,12
 894 895 894 895 964.5 857 c 128,-1,13
 1035 819 1035 819 1080 739 c 1,14,-1
 1105 870 l 1,15,-1
 1254 870 l 1,16,-1
 1154 315 l 1,17,18
 1136 193 1136 193 1136 180 c 1,19,20
 1138 162 1138 162 1155 145.5 c 128,-1,21
 1172 129 1172 129 1195 129 c 0,22,23
 1238 129 1238 129 1308 178 c 0,24,25
 1402 244 1402 244 1451 355.5 c 128,-1,26
 1500 467 1500 467 1494 592 c 1,27,28
 1490 729 1490 729 1416 849 c 128,-1,29
 1342 969 1342 969 1201 1041.5 c 128,-1,30
 1060 1114 1060 1114 886 1114 c 0,31,32
 691 1114 691 1114 534.5 1023 c 128,-1,33
 378 932 378 932 293 762 c 128,-1,34
 208 592 208 592 216 397 c 1,35,36
 228 193 228 193 321.5 52.5 c 128,-1,37
 415 -88 415 -88 587 -159.5 c 128,-1,38
 759 -231 759 -231 959 -231 c 0,39,40
 1174 -231 1174 -231 1318.5 -158.5 c 128,-1,41
 1463 -86 1463 -86 1531 8 c 1,42,-1
 1682 8 l 1,43,44
 1645 -68 1645 -68 1547 -159 c 128,-1,45
 1449 -250 1449 -250 1307.5 -305 c 128,-1,46
 1166 -360 1166 -360 968 -360 c 0,47,48
 783 -360 783 -360 626.5 -311 c 128,-1,49
 470 -262 470 -262 355.5 -165 c 128,-1,50
 241 -68 241 -68 181 47 c 1,51,52
 107 203 107 203 97 385 c 1,53,54
 89 586 89 586 165 768 c 0,55,56
 259 993 259 993 440 1113 c 128,-1,57
 621 1233 621 1233 886 1233 c 0,58,59
 1093 1233 1093 1233 1259.5 1148 c 128,-1,60
 1426 1063 1426 1063 1531 899 c 1,61,62
 1615 752 1615 752 1621 586 c 0,63,64
 1631 344 1631 344 1469 160 c 1,65,66
 1324 0 1324 0 1144 0 c 0,67,68
 1086 0 1086 0 1048.5 13.5 c 128,-1,69
 1011 27 1011 27 994 59 c 1,70,71
 986 80 986 80 980 129 c 1,0,1
566 354 m 1,72,73
 572 240 572 240 628.5 177.5 c 128,-1,74
 685 115 685 115 759 115 c 0,75,76
 800 115 800 115 850 143.5 c 128,-1,77
 900 172 900 172 945 225.5 c 128,-1,78
 990 279 990 279 1020 364 c 128,-1,79
 1050 449 1050 449 1043 530 c 1,80,81
 1041 643 1041 643 982 706.5 c 128,-1,82
 923 770 923 770 843 770 c 0,83,84
 789 770 789 770 741 743.5 c 128,-1,85
 693 717 693 717 652 657.5 c 128,-1,86
 611 598 611 598 585.5 513 c 128,-1,87
 560 428 560 428 566 354 c 1,72,73
EndSplineSet
EndChar

StartChar: bracketleft
Encoding: 91 91 62
Width: 450
Flags: W
LayerCount: 2
Fore
SplineSet
81 -106 m 1,0,-1
 81 1243 l 1,1,-1
 368 1243 l 1,2,-1
 368 1135 l 1,3,-1
 210 1135 l 1,4,-1
 210 4 l 1,5,-1
 368 4 l 1,6,-1
 368 -106 l 1,7,-1
 81 -106 l 1,0,-1
EndSplineSet
EndChar

StartChar: backslash
Encoding: 92 92 63
Width: 557
Flags: W
LayerCount: 2
Fore
SplineSet
329 -104 m 1,0,-1
 81 1233 l 1,1,-1
 228 1233 l 1,2,-1
 474 -104 l 1,3,-1
 329 -104 l 1,0,-1
EndSplineSet
EndChar

StartChar: bracketright
Encoding: 93 93 64
Width: 450
Flags: W
LayerCount: 2
Fore
SplineSet
81 -106 m 1,0,-1
 81 2 l 1,1,-1
 239 2 l 1,2,-1
 239 1135 l 1,3,-1
 81 1135 l 1,4,-1
 81 1241 l 1,5,-1
 368 1241 l 1,6,-1
 368 -106 l 1,7,-1
 81 -106 l 1,0,-1
EndSplineSet
EndChar

StartChar: asciicircum
Encoding: 94 94 65
Width: 888
Flags: W
LayerCount: 2
Fore
SplineSet
237 537 m 1,0,-1
 81 537 l 1,1,-1
 394 1217 l 1,2,-1
 515 1217 l 1,3,-1
 806 537 l 1,4,-1
 652 537 l 1,5,-1
 452 1047 l 1,6,-1
 237 537 l 1,0,-1
EndSplineSet
EndChar

StartChar: underscore
Encoding: 95 95 66
Width: 1226
Flags: W
LayerCount: 2
Fore
SplineSet
81 -252 m 1,0,-1
 81 -113 l 1,1,-1
 1144 -113 l 1,2,-1
 1144 -252 l 1,3,-1
 81 -252 l 1,0,-1
EndSplineSet
EndChar

StartChar: braceleft
Encoding: 123 123 94
Width: 569
Flags: W
LayerCount: 2
Fore
SplineSet
81 616 m 1,0,1
 132 616 132 616 165 645 c 128,-1,2
 198 674 198 674 209 722 c 128,-1,3
 220 770 220 770 218 888 c 128,-1,4
 216 1006 216 1006 220 1044 c 1,5,6
 224 1104 224 1104 239.5 1140 c 128,-1,7
 255 1176 255 1176 279.5 1196.5 c 128,-1,8
 304 1217 304 1217 341 1229 c 0,9,10
 368 1237 368 1237 427 1237 c 2,11,-1
 466 1237 l 1,12,-1
 468 1124 l 1,13,-1
 446 1124 l 2,14,15
 374 1124 374 1124 351.5 1098.5 c 128,-1,16
 329 1073 329 1073 331 981 c 1,17,18
 333 795 333 795 327 748 c 0,19,20
 317 672 317 672 288 632 c 128,-1,21
 259 592 259 592 198 559 c 1,22,23
 271 524 271 524 305 458.5 c 128,-1,24
 339 393 339 393 343 242 c 1,25,26
 345 104 345 104 349 80 c 0,27,28
 355 33 355 33 377.5 14.5 c 128,-1,29
 400 -4 400 -4 466 -4 c 2,30,-1
 487 -4 l 1,31,-1
 487 -117 l 1,32,-1
 448 -117 l 2,33,34
 382 -117 382 -117 353 -104 c 1,35,36
 310 -88 310 -88 280.5 -52 c 128,-1,37
 251 -16 251 -16 242 39 c 128,-1,38
 233 94 233 94 230.5 221 c 128,-1,39
 228 348 228 348 215 396 c 128,-1,40
 202 444 202 444 168 472 c 128,-1,41
 134 500 134 500 83 502 c 1,42,-1
 81 616 l 1,0,1
EndSplineSet
EndChar

StartChar: bar
Encoding: 124 124 95
Width: 317
Flags: W
LayerCount: 2
Fore
SplineSet
61 -117 m 1,0,-1
 61 1231 l 1,1,-1
 215 1231 l 1,2,-1
 215 -117 l 1,3,-1
 61 -117 l 1,0,-1
EndSplineSet
EndChar

StartChar: braceright
Encoding: 125 125 96
Width: 569
Flags: W
LayerCount: 2
Fore
SplineSet
484 502 m 1,0,1
 433 500 433 500 399.5 472 c 128,-1,2
 366 444 366 444 352.5 396 c 128,-1,3
 339 348 339 348 337 221 c 128,-1,4
 335 94 335 94 326 39 c 128,-1,5
 317 -16 317 -16 287 -52 c 128,-1,6
 257 -88 257 -88 214 -104 c 1,7,8
 185 -117 185 -117 120 -117 c 2,9,-1
 81 -117 l 1,10,-1
 81 -4 l 1,11,-1
 101 -4 l 2,12,13
 167 -4 167 -4 189.5 14.5 c 128,-1,14
 212 33 212 33 218 80 c 0,15,16
 222 104 222 104 224 242 c 1,17,18
 228 393 228 393 262 458.5 c 128,-1,19
 296 524 296 524 370 559 c 1,20,21
 308 592 308 592 279.5 632 c 128,-1,22
 251 672 251 672 241 748 c 0,23,24
 235 795 235 795 237 981 c 1,25,26
 239 1073 239 1073 216.5 1098.5 c 128,-1,27
 194 1124 194 1124 122 1124 c 2,28,-1
 99 1124 l 1,29,-1
 101 1237 l 1,30,-1
 140 1237 l 2,31,32
 200 1237 200 1237 226 1229 c 0,33,34
 263 1217 263 1217 287.5 1196.5 c 128,-1,35
 312 1176 312 1176 327.5 1140 c 128,-1,36
 343 1104 343 1104 347 1044 c 1,37,38
 351 1006 351 1006 349 888 c 128,-1,39
 347 770 347 770 358.5 722 c 128,-1,40
 370 674 370 674 402.5 645 c 128,-1,41
 435 616 435 616 487 616 c 1,42,-1
 484 502 l 1,0,1
EndSplineSet
EndChar

StartChar: multiply
Encoding: 215 215 151
Width: 1071
Flags: W
LayerCount: 2
Fore
SplineSet
655 213 m 1,0,-1
 144 710 l 1,1,-1
 221 792 l 1,2,-1
 733 295 l 1,3,-1
 655 213 l 1,0,-1
728 720 m 1,4,-1
 231 208 l 1,5,-1
 149 285 l 1,6,-1
 646 797 l 1,7,-1
 728 720 l 1,4,-1
EndSplineSet
EndChar

StartChar: divide
Encoding: 247 247 183
Width: 1014
Flags: W
LayerCount: 2
Fore
SplineSet
-76 501 m 1,0,-1
 -76 655 l 1,1,-1
 880 655 l 1,2,-1
 880 501 l 1,3,-1
 -76 501 l 1,0,-1
523 229 m 0,4,5
 523 179 523 179 490 149.5 c 128,-1,6
 457 120 457 120 404 120 c 0,7,8
 355 120 355 120 321 148.5 c 128,-1,9
 287 177 287 177 287 229 c 0,10,11
 287 286 287 286 322 315.5 c 128,-1,12
 357 345 357 345 404 345 c 256,13,14
 451 345 451 345 487 314.5 c 128,-1,15
 523 284 523 284 523 229 c 0,4,5
537 920 m 0,16,17
 537 870 537 870 504 840.5 c 128,-1,18
 471 811 471 811 418 811 c 0,19,20
 369 811 369 811 335 839.5 c 128,-1,21
 301 868 301 868 301 920 c 0,22,23
 301 977 301 977 336 1006.5 c 128,-1,24
 371 1036 371 1036 418 1036 c 256,25,26
 465 1036 465 1036 501 1005.5 c 128,-1,27
 537 975 537 975 537 920 c 0,16,17
EndSplineSet
EndChar

StartChar: uni0C82
Encoding: 3202 3202 202
Width: 837
Flags: W
LayerCount: 2
Fore
SplineSet
755 471 m 0,0,1
 755 246 755 246 672 121 c 128,-1,2
 589 -4 589 -4 417 -4 c 0,3,4
 255 -4 255 -4 169 121 c 1,5,6
 124 184 124 184 102.5 270 c 128,-1,7
 81 356 81 356 81 471 c 0,8,9
 81 676 81 676 167 792.5 c 128,-1,10
 253 909 253 909 415 909 c 0,11,12
 583 909 583 909 669 793.5 c 128,-1,13
 755 678 755 678 755 471 c 0,0,1
681 459 m 0,14,15
 681 557 681 557 599 642 c 128,-1,16
 517 727 517 727 417 727 c 0,17,18
 314 727 314 727 234.5 644 c 128,-1,19
 155 561 155 561 155 459 c 0,20,21
 155 334 155 334 237 258 c 0,22,23
 308 193 308 193 417 193 c 0,24,25
 527 193 527 193 597 252 c 0,26,27
 681 324 681 324 681 459 c 0,14,15
EndSplineSet
EndChar

StartChar: uni0C83
Encoding: 3203 3203 203
Width: 489
Flags: W
LayerCount: 2
Fore
SplineSet
407 221 m 0,0,1
 407 113 407 113 367 54.5 c 128,-1,2
 327 -4 327 -4 243 -4 c 0,3,4
 171 -4 171 -4 126 55 c 1,5,6
 108 86 108 86 96.5 124 c 128,-1,7
 85 162 85 162 85 221 c 0,8,9
 85 315 85 315 127 370.5 c 128,-1,10
 169 426 169 426 243 426 c 0,11,12
 325 426 325 426 366 371.5 c 128,-1,13
 407 317 407 317 407 221 c 0,0,1
372 213 m 0,14,15
 372 260 372 260 332 300 c 128,-1,16
 292 340 292 340 243 340 c 0,17,18
 196 340 196 340 159 301 c 128,-1,19
 122 262 122 262 122 213 c 0,20,21
 122 154 122 154 161 121 c 1,22,23
 196 88 196 88 243 88 c 0,24,25
 298 88 298 88 331 115 c 0,26,27
 372 147 372 147 372 213 c 0,14,15
400 707 m 0,28,29
 400 600 400 600 360.5 541.5 c 128,-1,30
 321 483 321 483 239 483 c 0,31,32
 165 483 165 483 122 543 c 0,33,34
 101 571 101 571 91 611 c 128,-1,35
 81 651 81 651 81 707 c 0,36,37
 81 803 81 803 122 858 c 128,-1,38
 163 913 163 913 237 913 c 0,39,40
 319 913 319 913 359.5 859 c 128,-1,41
 400 805 400 805 400 707 c 0,28,29
364 698 m 0,42,43
 364 750 364 750 325 788.5 c 128,-1,44
 286 827 286 827 239 827 c 256,45,46
 192 827 192 827 154 789.5 c 128,-1,47
 116 752 116 752 116 698 c 0,48,49
 116 643 116 643 155 606 c 1,50,51
 190 575 190 575 239 575 c 0,52,53
 290 575 290 575 325 602 c 1,54,55
 364 639 364 639 364 698 c 0,42,43
EndSplineSet
EndChar

StartChar: uni0C85
Encoding: 3205 3205 204
Width: 1183
Flags: W
LayerCount: 2
Fore
SplineSet
392 696 m 0,0,1
 392 719 392 719 374.5 738.5 c 128,-1,2
 357 758 357 758 325 758 c 0,3,4
 274 758 274 758 237 729 c 1,5,-1
 224 713 l 1,6,-1
 235 668 l 1,7,8
 257 623 257 623 310 623 c 0,9,10
 349 623 349 623 370.5 645.5 c 128,-1,11
 392 668 392 668 392 696 c 0,0,1
876 758 m 0,12,13
 847 758 847 758 824 735 c 1,14,15
 808 715 808 715 802 686 c 1,16,17
 802 655 802 655 855 635 c 1,18,-1
 880 629 l 1,19,-1
 966 629 l 1,20,-1
 968 479 l 1,21,-1
 507 479 l 1,22,-1
 507 645 l 1,23,-1
 743 645 l 1,24,-1
 736 686 l 1,25,26
 736 764 736 764 765 827 c 0,27,28
 802 909 802 909 874 909 c 0,29,30
 982 909 982 909 1046 786 c 1,31,32
 1101 678 1101 678 1101 520 c 0,33,34
 1101 276 1101 276 931 131 c 1,35,36
 779 0 779 0 573 0 c 0,37,38
 368 0 368 0 233 131 c 1,39,40
 81 276 81 276 81 541 c 0,41,42
 81 674 81 674 144 786 c 0,43,44
 214 909 214 909 333 909 c 0,45,46
 400 909 400 909 436 855 c 128,-1,47
 472 801 472 801 472 727 c 0,48,49
 472 643 472 643 426 572.5 c 128,-1,50
 380 502 380 502 304 502 c 0,51,52
 249 502 249 502 202 545 c 1,53,54
 159 594 159 594 159 662 c 2,55,-1
 159 528 l 2,56,57
 159 358 159 358 284 264 c 0,58,59
 400 178 400 178 573 178 c 0,60,61
 757 178 757 178 886 264 c 1,62,63
 1033 367 1033 367 1033 559 c 0,64,65
 1033 608 1033 608 1017 645 c 1,66,67
 1017 666 1017 666 978 711 c 1,68,69
 929 758 929 758 876 758 c 0,12,13
EndSplineSet
EndChar

StartChar: uni0C86
Encoding: 3206 3206 205
Width: 1179
Flags: W
LayerCount: 2
Fore
SplineSet
1097 713 m 0,0,1
 1097 635 1097 635 1062 567 c 1,2,3
 1039 518 1039 518 996 494 c 1,4,5
 1011 479 1011 479 1026.5 437 c 128,-1,6
 1042 395 1042 395 1042 342 c 0,7,8
 1042 195 1042 195 907.5 97.5 c 128,-1,9
 773 0 773 0 566 0 c 0,10,11
 360 0 360 0 231 125 c 1,12,13
 81 266 81 266 81 545 c 0,14,15
 81 682 81 682 138 788 c 1,16,17
 208 909 208 909 321 909 c 0,18,19
 390 909 390 909 429 857 c 128,-1,20
 468 805 468 805 468 727 c 0,21,22
 468 641 468 641 421 571.5 c 128,-1,23
 374 502 374 502 298 502 c 0,24,25
 249 502 249 502 198 580 c 1,26,27
 190 598 190 598 161 659 c 1,28,-1
 157 629 l 1,29,-1
 153 551 l 1,30,31
 153 365 153 365 280 268 c 0,32,33
 388 186 388 186 564 186 c 0,34,35
 732 186 732 186 839 238 c 1,36,37
 953 291 953 291 953 381 c 0,38,39
 953 446 953 446 923 471 c 1,40,-1
 493 471 l 1,41,-1
 493 651 l 1,42,-1
 794 651 l 1,43,-1
 775 692 l 1,44,45
 763 750 763 750 763 784 c 0,46,47
 763 827 763 827 800 868 c 128,-1,48
 837 909 837 909 904 909 c 0,49,50
 996 909 996 909 1046.5 851 c 128,-1,51
 1097 793 1097 793 1097 713 c 0,0,1
1017 694 m 0,52,53
 1017 725 1017 725 999.5 742.5 c 128,-1,54
 982 760 982 760 943 760 c 0,55,56
 906 760 906 760 884 737 c 1,57,58
 863 713 863 713 863 682 c 1,59,-1
 865 649 l 1,60,-1
 892 643 l 1,61,-1
 929 641 l 1,62,63
 966 641 966 641 991.5 653.5 c 128,-1,64
 1017 666 1017 666 1017 694 c 0,52,53
384 694 m 1,65,66
 384 727 384 727 370 745 c 1,67,68
 355 760 355 760 325 760 c 0,69,70
 278 760 278 760 253 735 c 1,71,-1
 241 725 l 1,72,73
 241 690 241 690 245 674 c 0,74,75
 259 625 259 625 308 625 c 0,76,77
 343 625 343 625 362.5 643.5 c 128,-1,78
 382 662 382 662 384 694 c 1,65,66
EndSplineSet
EndChar

StartChar: uni0C87
Encoding: 3207 3207 206
Width: 1198
Flags: W
LayerCount: 2
Fore
SplineSet
1115 117 m 0,0,1
 1115 63 1115 63 1079.5 30.5 c 128,-1,2
 1044 -2 1044 -2 994 -2 c 0,3,4
 943 -2 943 -2 904 29 c 1,5,6
 861 66 861 66 861 131 c 0,7,8
 861 172 861 172 894 248 c 1,9,-1
 925 317 l 1,10,-1
 874 274 l 1,11,12
 818 233 818 233 775 233 c 0,13,14
 691 233 691 233 640 281 c 1,15,16
 591 330 591 330 591 389 c 0,17,18
 591 444 591 444 643 486 c 128,-1,19
 695 528 695 528 786 528 c 0,20,21
 855 528 855 528 917 494 c 1,22,-1
 964 457 l 1,23,-1
 992 494 l 1,24,25
 1015 530 1015 530 1019 563 c 1,26,27
 1019 631 1019 631 961.5 689.5 c 128,-1,28
 904 748 904 748 831 748 c 0,29,30
 720 748 720 748 648 662 c 1,31,32
 622 633 622 633 595 578 c 1,33,34
 573 633 573 633 546 659 c 1,35,36
 474 748 474 748 347 748 c 0,37,38
 271 748 271 748 219 708 c 128,-1,39
 167 668 167 668 167 612 c 0,40,41
 167 563 167 563 206 532.5 c 128,-1,42
 245 502 245 502 339 502 c 1,43,-1
 347 471 l 1,44,45
 355 461 355 461 355 440 c 0,46,47
 355 416 355 416 343 401.5 c 128,-1,48
 331 387 331 387 292 387 c 0,49,50
 196 387 196 387 138.5 458.5 c 128,-1,51
 81 530 81 530 81 633 c 0,52,53
 81 748 81 748 142 819 c 1,54,55
 214 909 214 909 337 909 c 0,56,57
 478 909 478 909 550 797 c 1,58,59
 575 762 575 762 597 682 c 1,60,61
 618 760 618 760 642 795 c 1,62,63
 712 909 712 909 847 909 c 0,64,65
 951 909 951 909 1025 827 c 128,-1,66
 1099 745 1099 745 1099 608 c 0,67,68
 1099 528 1099 528 1056 438 c 1,69,70
 1042 401 1042 401 1013 362 c 1,71,72
 1023 344 1023 344 1023 317 c 0,73,74
 1023 295 1023 295 1003 227 c 0,75,76
 992 188 992 188 992 166 c 0,77,78
 992 147 992 147 1007 143 c 2,79,-1
 1039 135 l 1,80,81
 1066 135 1066 135 1082 166 c 1,82,-1
 1089 182 l 1,83,-1
 1105 178 l 1,84,85
 1115 178 1115 178 1115 117 c 0,0,1
923 410 m 1,86,87
 902 428 902 428 880 440 c 0,88,89
 847 457 847 457 808 457 c 0,90,91
 767 457 767 457 740 440 c 1,92,93
 716 428 716 428 716 393 c 0,94,95
 716 367 716 367 736 350 c 1,96,97
 765 338 765 338 800 338 c 0,98,99
 853 338 853 338 902 387 c 1,100,-1
 923 410 l 1,86,87
EndSplineSet
EndChar

StartChar: uni0C88
Encoding: 3208 3208 207
Width: 1601
Flags: W
LayerCount: 2
Fore
SplineSet
1519 645 m 0,0,1
 1519 545 1519 545 1457 487 c 1,2,3
 1443 471 1443 471 1398 449 c 1,4,5
 1451 395 1451 395 1482 332.5 c 128,-1,6
 1513 270 1513 270 1513 213 c 0,7,8
 1513 131 1513 131 1466.5 70.5 c 128,-1,9
 1420 10 1420 10 1355 10 c 0,10,11
 1293 10 1293 10 1259 68 c 1,12,-1
 1236 121 l 1,13,14
 1306 121 1306 121 1343 166 c 0,15,16
 1381 213 1381 213 1381 289 c 0,17,18
 1381 324 1381 324 1369 348 c 1,19,20
 1365 371 1365 371 1362 381 c 128,-1,21
 1359 391 1359 391 1343 412 c 1,22,-1
 1310 401 l 1,23,-1
 1267 397 l 1,24,-1
 1066 397 l 1,25,26
 1066 236 1066 236 933 118 c 128,-1,27
 800 0 800 0 646 0 c 0,28,29
 495 0 495 0 365 119 c 128,-1,30
 235 238 235 238 235 397 c 1,31,-1
 81 397 l 1,32,-1
 81 518 l 1,33,-1
 257 520 l 1,34,35
 257 567 257 567 288 627 c 1,36,37
 317 678 317 678 392 739 c 1,38,-1
 237 739 l 1,39,-1
 237 909 l 1,40,-1
 800 909 l 2,41,42
 872 909 872 909 905.5 940 c 128,-1,43
 939 971 939 971 939 1018 c 0,44,45
 939 1055 939 1055 921.5 1089.5 c 128,-1,46
 904 1124 904 1124 878 1139 c 1,47,-1
 939 1208 l 1,48,49
 986 1184 986 1184 1021 1116 c 1,50,51
 1039 1077 1039 1077 1046.5 1040.5 c 128,-1,52
 1054 1004 1054 1004 1054 977 c 0,53,54
 1054 881 1054 881 1007 811 c 1,55,56
 949 739 949 739 865 739 c 1,57,58
 990 705 990 705 1050 520 c 1,59,-1
 1228 520 l 1,60,61
 1211 551 1211 551 1191 604 c 0,62,63
 1181 631 1181 631 1178 655.5 c 128,-1,64
 1175 680 1175 680 1175 715 c 0,65,66
 1175 791 1175 791 1220 834 c 0,67,68
 1242 856 1242 856 1267.5 866.5 c 128,-1,69
 1293 877 1293 877 1328 877 c 0,70,71
 1404 877 1404 877 1457 821 c 1,72,73
 1488 791 1488 791 1503.5 746.5 c 128,-1,74
 1519 702 1519 702 1519 645 c 0,0,1
937 520 m 1,75,76
 937 602 937 602 876 664 c 1,77,78
 798 741 798 741 652 741 c 0,79,80
 523 741 523 741 435 664 c 1,81,82
 364 596 364 596 364 520 c 1,83,-1
 937 520 l 1,75,76
1457 659 m 0,84,85
 1457 692 1457 692 1428.5 718.5 c 128,-1,86
 1400 745 1400 745 1363 745 c 0,87,88
 1328 745 1328 745 1296.5 720.5 c 128,-1,89
 1265 696 1265 696 1265 649 c 0,90,91
 1265 627 1265 627 1266 614.5 c 128,-1,92
 1267 602 1267 602 1281 567 c 2,93,-1
 1298 524 l 1,94,95
 1359 524 1359 524 1408 557 c 128,-1,96
 1457 590 1457 590 1457 659 c 0,84,85
933 397 m 1,97,-1
 364 397 l 1,98,99
 364 299 364 299 462 238 c 1,100,101
 546 184 546 184 646 184 c 0,102,103
 749 184 749 184 833 238 c 1,104,105
 933 297 933 297 933 397 c 1,97,-1
EndSplineSet
EndChar

StartChar: uni0C89
Encoding: 3209 3209 208
Width: 1626
Flags: W
LayerCount: 2
Fore
SplineSet
1543 412 m 0,0,1
 1543 250 1543 250 1461 125 c 128,-1,2
 1379 0 1379 0 1236 0 c 0,3,4
 1113 0 1113 0 1048 109 c 1,5,6
 999 195 999 195 999 334 c 1,7,-1
 1005 420 l 1,8,-1
 1007 449 l 1,9,-1
 1009 487 l 1,10,11
 1009 596 1009 596 957.5 672 c 128,-1,12
 906 748 906 748 843 748 c 0,13,14
 781 748 781 748 732 680 c 1,15,16
 710 647 710 647 695.5 604 c 128,-1,17
 681 561 681 561 681 516 c 2,18,-1
 681 489 l 1,19,-1
 691 430 l 1,20,21
 716 305 716 305 716 240 c 0,22,23
 716 121 716 121 659.5 60.5 c 128,-1,24
 603 0 603 0 480 0 c 0,25,26
 306 0 306 0 185 174 c 1,27,28
 81 334 81 334 81 539 c 0,29,30
 81 694 81 694 134 788 c 0,31,32
 198 903 198 903 308 903 c 0,33,34
 380 903 380 903 424 825.5 c 128,-1,35
 468 748 468 748 468 659 c 0,36,37
 468 567 468 567 428 500.5 c 128,-1,38
 388 434 388 434 314 434 c 0,39,40
 239 434 239 434 196 524 c 1,41,-1
 171 614 l 1,42,-1
 165 553 l 1,43,-1
 159 502 l 1,44,45
 159 350 159 350 220 272 c 0,46,47
 288 184 288 184 448 184 c 0,48,49
 548 184 548 184 590 228 c 128,-1,50
 632 272 632 272 632 352 c 0,51,52
 632 393 632 393 629 410.5 c 128,-1,53
 626 428 626 428 620 471 c 1,54,-1
 607 537 l 1,55,-1
 603 606 l 1,56,57
 603 739 603 739 669.5 824 c 128,-1,58
 736 909 736 909 831 909 c 0,59,60
 943 909 943 909 1010.5 810 c 128,-1,61
 1078 711 1078 711 1078 528 c 2,62,-1
 1078 459 l 1,63,-1
 1070 416 l 1,64,-1
 1070 385 l 2,65,66
 1070 305 1070 305 1125 242 c 1,67,68
 1185 184 1185 184 1263 184 c 0,69,70
 1351 184 1351 184 1409 244.5 c 128,-1,71
 1467 305 1467 305 1467 391 c 0,72,73
 1467 500 1467 500 1394 604 c 0,74,75
 1308 727 1308 727 1160 768 c 1,76,77
 1148 770 1148 770 1169.5 836.5 c 128,-1,78
 1191 903 1191 903 1250 903 c 0,79,80
 1279 903 1279 903 1306 893 c 1,81,82
 1412 848 1412 848 1482 700 c 0,83,84
 1513 633 1513 633 1528 563.5 c 128,-1,85
 1543 494 1543 494 1543 412 c 0,0,1
405 647 m 0,86,87
 405 690 405 690 380 717 c 0,88,89
 345 754 345 754 294 754 c 0,90,91
 259 754 259 754 231 723 c 1,92,-1
 212 686 l 1,93,-1
 222 633 l 1,94,95
 251 580 251 580 319 580 c 0,96,97
 362 580 362 580 383.5 598 c 128,-1,98
 405 616 405 616 405 647 c 0,86,87
EndSplineSet
EndChar

StartChar: uni0C8A
Encoding: 3210 3210 209
Width: 2037
Flags: W
LayerCount: 2
Fore
SplineSet
1955 414 m 0,0,1
 1955 217 1955 217 1875 100 c 1,2,3
 1810 0 1810 0 1709 0 c 0,4,5
 1623 0 1623 0 1555.5 71.5 c 128,-1,6
 1488 143 1488 143 1488 254 c 0,7,8
 1488 387 1488 387 1541 444 c 0,9,10
 1588 494 1588 494 1658 494 c 0,11,12
 1721 494 1721 494 1765.5 461 c 128,-1,13
 1810 428 1810 428 1810 367 c 0,14,15
 1810 319 1810 319 1779 289 c 1,16,17
 1748 264 1748 264 1715 264 c 0,18,19
 1680 264 1680 264 1654.5 282.5 c 128,-1,20
 1629 301 1629 301 1629 334 c 0,21,22
 1629 381 1629 381 1664 395 c 1,23,-1
 1697 406 l 1,24,-1
 1689 410 l 1,25,26
 1666 420 1666 420 1652 420 c 0,27,28
 1621 420 1621 420 1588 387 c 1,29,30
 1572 369 1572 369 1566 350.5 c 128,-1,31
 1560 332 1560 332 1560 301 c 0,32,33
 1560 250 1560 250 1599 215 c 1,34,35
 1621 201 1621 201 1643.5 192.5 c 128,-1,36
 1666 184 1666 184 1701 184 c 0,37,38
 1781 184 1781 184 1832 238 c 1,39,40
 1896 301 1896 301 1896 422 c 0,41,42
 1896 545 1896 545 1808.5 637 c 128,-1,43
 1721 729 1721 729 1619 729 c 0,44,45
 1529 729 1529 729 1470.5 656.5 c 128,-1,46
 1412 584 1412 584 1412 444 c 1,47,-1
 1414 389 l 2,48,49
 1414 371 1414 371 1414 356 c 1,50,51
 1420 332 1420 332 1422 326 c 1,52,-1
 1427 256 l 1,53,54
 1427 135 1427 135 1361 59 c 1,55,56
 1302 0 1302 0 1216 0 c 0,57,58
 1091 0 1091 0 1037 100 c 0,59,60
 994 180 994 180 994 315 c 1,61,-1
 1001 420 l 1,62,-1
 1003 446 l 1,63,-1
 1005 483 l 1,64,65
 1005 596 1005 596 953.5 670.5 c 128,-1,66
 902 745 902 745 837 745 c 0,67,68
 777 745 777 745 728 678 c 0,69,70
 706 647 706 647 692.5 604 c 128,-1,71
 679 561 679 561 679 512 c 2,72,-1
 679 485 l 1,73,-1
 691 430 l 1,74,75
 714 332 714 332 714 254 c 0,76,77
 714 133 714 133 652.5 66.5 c 128,-1,78
 591 0 591 0 464 0 c 0,79,80
 282 0 282 0 173 176 c 1,81,82
 81 332 81 332 81 537 c 0,83,84
 81 690 81 690 134 788 c 1,85,86
 198 901 198 901 308 901 c 0,87,88
 378 901 378 901 423 823 c 128,-1,89
 468 745 468 745 468 653 c 0,90,91
 468 567 468 567 426 501.5 c 128,-1,92
 384 436 384 436 314 436 c 0,93,94
 237 436 237 436 198 522 c 1,95,-1
 169 614 l 1,96,-1
 161 555 l 1,97,-1
 159 498 l 1,98,99
 159 350 159 350 218 272 c 1,100,101
 286 184 286 184 448 184 c 0,102,103
 542 184 542 184 586 228 c 128,-1,104
 630 272 630 272 630 352 c 0,105,106
 630 387 630 387 628 406.5 c 128,-1,107
 626 426 626 426 617.5 468 c 128,-1,108
 609 510 609 510 605 538.5 c 128,-1,109
 601 567 601 567 601 598 c 0,110,111
 601 739 601 739 667.5 821 c 128,-1,112
 734 903 734 903 835 903 c 0,113,114
 943 903 943 903 1009.5 808 c 128,-1,115
 1076 713 1076 713 1076 535 c 2,116,-1
 1076 461 l 1,117,-1
 1066 414 l 1,118,-1
 1064 371 l 1,119,120
 1064 287 1064 287 1103 235.5 c 128,-1,121
 1142 184 1142 184 1218 184 c 0,122,123
 1359 184 1359 184 1359 336 c 1,124,-1
 1357 381 l 1,125,-1
 1349 426 l 1,126,-1
 1343 492 l 1,127,-1
 1341 537 l 1,128,129
 1341 709 1341 709 1417.5 806 c 128,-1,130
 1494 903 1494 903 1607 903 c 0,131,132
 1742 903 1742 903 1846 776 c 1,133,134
 1955 641 1955 641 1955 414 c 0,0,1
400 647 m 0,135,136
 400 688 400 688 374 715 c 1,137,138
 343 752 343 752 294 752 c 0,139,140
 259 752 259 752 233 717 c 1,141,-1
 210 682 l 1,142,-1
 226 633 l 1,143,144
 253 580 253 580 319 580 c 0,145,146
 357 580 357 580 378.5 598 c 128,-1,147
 400 616 400 616 400 647 c 0,135,136
EndSplineSet
EndChar

StartChar: uni0C8B
Encoding: 3211 3211 210
Width: 1355
Flags: W
LayerCount: 2
Fore
SplineSet
1285 412 m 1,0,1
 1285 233 1285 233 1205 123 c 1,2,3
 1117 0 1117 0 925 0 c 0,4,5
 876 0 876 0 823.5 22.5 c 128,-1,6
 771 45 771 45 718 98 c 0,7,8
 685 131 685 131 638 201 c 1,9,10
 605 135 605 135 570 98 c 1,11,12
 468 0 468 0 308 0 c 0,13,14
 200 0 200 0 134 80 c 0,15,16
 81 143 81 143 81 233 c 0,17,18
 81 326 81 326 134 381 c 1,19,20
 202 455 202 455 341 455 c 0,21,22
 429 455 429 455 519 395 c 1,23,-1
 599 332 l 1,24,-1
 632 408 l 1,25,26
 663 504 663 504 663 555 c 0,27,28
 663 649 663 649 609 721 c 0,29,30
 548 801 548 801 448 801 c 0,31,32
 372 801 372 801 333 773 c 128,-1,33
 294 745 294 745 294 700 c 0,34,35
 294 668 294 668 327 641 c 1,36,-1
 355 629 l 1,37,-1
 353 662 l 1,38,39
 353 696 353 696 383 717.5 c 128,-1,40
 413 739 413 739 448 739 c 0,41,42
 480 739 480 739 509 715 c 0,43,44
 540 688 540 688 540 641 c 0,45,46
 540 586 540 586 501 555 c 128,-1,47
 462 524 462 524 403 524 c 0,48,49
 329 524 329 524 265.5 583.5 c 128,-1,50
 202 643 202 643 202 719 c 0,51,52
 202 815 202 815 255 877 c 1,53,54
 317 961 317 961 427 961 c 0,55,56
 577 961 577 961 663 823 c 1,57,58
 743 702 743 702 743 543 c 0,59,60
 743 512 743 512 736.5 473 c 128,-1,61
 730 434 730 434 714 381 c 1,62,63
 710 358 710 358 685 293 c 1,64,-1
 747 250 l 1,65,66
 826 201 826 201 902 201 c 0,67,68
 1056 201 1056 201 1136 276 c 0,69,70
 1205 340 1205 340 1205 455 c 0,71,72
 1205 571 1205 571 1119 656 c 128,-1,73
 1033 741 1033 741 915 737 c 1,74,-1
 792 737 l 1,75,-1
 792 909 l 1,76,-1
 1062 909 l 1,77,-1
 1062 803 l 1,78,-1
 1107 803 l 1,79,80
 1279 711 1279 711 1285 412 c 1,0,1
560 260 m 1,81,82
 519 299 519 299 493 315 c 1,83,84
 413 375 413 375 327 375 c 0,85,86
 249 375 249 375 211 348.5 c 128,-1,87
 173 322 173 322 173 279 c 0,88,89
 173 240 173 240 206 213 c 1,90,91
 237 190 237 190 271 190 c 0,92,93
 370 190 370 190 468 225 c 1,94,95
 497 233 497 233 560 260 c 1,81,82
1209 920 m 1,96,97
 1197 739 1197 739 986 737 c 1,98,-1
 880 737 l 1,99,-1
 880 905 l 1,100,-1
 986 905 l 1,101,102
 1097 913 1097 913 1095 1006 c 1,103,104
 1095 1063 1095 1063 1037 1151 c 1,105,-1
 1076 1190 l 1,106,107
 1211 1069 1211 1069 1209 920 c 1,96,97
1967 414 m 1,108,109
 1971 238 1971 238 1887 117 c 0,110,111
 1816 16 1816 16 1660 0 c 1,112,113
 1230 -4 1230 -4 1285 393 c 1,114,115
 1365 205 1365 205 1613 184 c 1,116,117
 1756 190 1756 190 1822 240 c 0,118,119
 1896 295 1896 295 1896 395 c 0,120,121
 1896 522 1896 522 1811 603 c 128,-1,122
 1726 684 1726 684 1558 729 c 1,123,124
 1527 739 1527 739 1510.5 761.5 c 128,-1,125
 1494 784 1494 784 1492 819 c 1,126,127
 1492 852 1492 852 1507.5 880.5 c 128,-1,128
 1523 909 1523 909 1566 909 c 0,129,130
 1697 909 1697 909 1826 762 c 1,131,132
 1967 606 1967 606 1967 414 c 1,108,109
EndSplineSet
EndChar

StartChar: uni0C8E
Encoding: 3214 3214 211
Width: 1146
Flags: W
LayerCount: 2
Fore
SplineSet
1064 299 m 0,0,1
 1064 178 1064 178 1009 94 c 1,2,3
 945 0 945 0 831 0 c 0,4,5
 706 0 706 0 628 109 c 0,6,7
 607 139 607 139 577 219 c 1,8,9
 552 145 552 145 523 109 c 1,10,11
 450 0 450 0 327 0 c 0,12,13
 208 0 208 0 136 92 c 1,14,15
 81 170 81 170 81 276 c 0,16,17
 81 393 81 393 142 461 c 1,18,19
 196 512 196 512 278 512 c 0,20,21
 345 512 345 512 394 472 c 128,-1,22
 443 432 443 432 443 371 c 0,23,24
 443 324 443 324 411.5 298 c 128,-1,25
 380 272 380 272 339 272 c 1,26,-1
 345 303 l 1,27,-1
 349 326 l 1,28,29
 349 350 349 350 324.5 367.5 c 128,-1,30
 300 385 300 385 263 385 c 0,31,32
 218 385 218 385 190.5 364.5 c 128,-1,33
 163 344 163 344 163 303 c 0,34,35
 163 248 163 248 200 209 c 1,36,37
 239 176 239 176 312 176 c 0,38,39
 441 176 441 176 523 272 c 1,40,41
 544 299 544 299 577 367 c 1,42,43
 597 303 597 303 624 272 c 1,44,45
 697 176 697 176 818 176 c 0,46,47
 894 176 894 176 941 237.5 c 128,-1,48
 988 299 988 299 988 393 c 0,49,50
 988 518 988 518 839.5 627.5 c 128,-1,51
 691 737 691 737 507 737 c 0,52,53
 476 737 476 737 451.5 735 c 128,-1,54
 427 733 427 733 405 729 c 2,55,-1
 378 725 l 1,56,57
 339 725 339 725 316.5 747.5 c 128,-1,58
 294 770 294 770 294 803 c 0,59,60
 294 842 294 842 339 872 c 0,61,62
 394 909 394 909 482 909 c 0,63,64
 669 909 669 909 841 774 c 0,65,66
 1064 600 1064 600 1064 299 c 0,0,1
EndSplineSet
EndChar

StartChar: uni0C8F
Encoding: 3215 3215 212
Width: 1064
Flags: W
LayerCount: 2
Fore
SplineSet
982 356 m 0,0,1
 982 205 982 205 921 111 c 1,2,3
 855 4 855 4 738 4 c 0,4,5
 628 4 628 4 573 98 c 1,6,7
 554 127 554 127 534 195 c 1,8,9
 515 127 515 127 495 98 c 0,10,11
 429 4 429 4 323 4 c 0,12,13
 210 4 210 4 140 94 c 1,14,15
 81 172 81 172 81 266 c 0,16,17
 81 369 81 369 140 428 c 1,18,19
 194 477 194 477 265 477 c 0,20,21
 325 477 325 477 366 437 c 128,-1,22
 407 397 407 397 407 334 c 0,23,24
 407 281 407 281 375 247 c 128,-1,25
 343 213 343 213 302 213 c 0,26,27
 259 213 259 213 259 248 c 1,28,29
 280 252 280 252 288 258 c 0,30,31
 321 281 321 281 321 324 c 0,32,33
 321 350 321 350 296 367.5 c 128,-1,34
 271 385 271 385 243 385 c 0,35,36
 204 385 204 385 176.5 361.5 c 128,-1,37
 149 338 149 338 149 295 c 0,38,39
 149 233 149 233 190 195 c 1,40,41
 237 162 237 162 306 162 c 0,42,43
 419 162 419 162 489 248 c 1,44,45
 509 270 509 270 536 328 c 1,46,47
 554 270 554 270 575 248 c 1,48,49
 632 162 632 162 747 162 c 0,50,51
 824 162 824 162 869.5 230.5 c 128,-1,52
 915 299 915 299 915 395 c 0,53,54
 915 549 915 549 814 670 c 1,55,56
 702 811 702 811 536 811 c 1,57,-1
 542 799 l 1,58,59
 556 766 556 766 556 748 c 0,60,61
 556 682 556 682 507 633 c 128,-1,62
 458 584 458 584 396 584 c 0,63,64
 300 584 300 584 238.5 652.5 c 128,-1,65
 177 721 177 721 177 860 c 2,66,-1
 177 909 l 1,67,-1
 243 909 l 1,68,69
 243 823 243 823 290 772 c 1,70,71
 333 727 333 727 392 727 c 0,72,73
 425 727 425 727 451.5 752.5 c 128,-1,74
 478 778 478 778 478 823 c 0,75,76
 478 860 478 860 471 880.5 c 128,-1,77
 464 901 464 901 460 909 c 1,78,79
 699 909 699 909 851 727 c 1,80,81
 982 565 982 565 982 356 c 0,0,1
EndSplineSet
EndChar

StartChar: uni0C90
Encoding: 3216 3216 213
Width: 1155
Flags: W
LayerCount: 2
Fore
SplineSet
1072 393 m 0,0,1
 1072 225 1072 225 1005 119 c 0,2,3
 929 0 929 0 804 0 c 0,4,5
 706 0 706 0 634 94 c 1,6,7
 613 117 613 117 585 188 c 1,8,9
 560 131 560 131 534 94 c 1,10,11
 464 0 464 0 341 0 c 0,12,13
 228 0 228 0 157 96 c 1,14,15
 91 188 91 188 91 299 c 0,16,17
 91 399 91 399 153.5 461.5 c 128,-1,18
 216 524 216 524 296 524 c 0,19,20
 357 524 357 524 405.5 484 c 128,-1,21
 454 444 454 444 454 369 c 0,22,23
 454 315 454 315 405 279 c 1,24,25
 394 268 394 268 372.5 258 c 128,-1,26
 351 248 351 248 325 248 c 0,27,28
 284 248 284 248 284 274 c 1,29,-1
 319 287 l 1,30,31
 355 313 355 313 355 358 c 0,32,33
 355 393 355 393 326.5 408.5 c 128,-1,34
 298 424 298 424 257 424 c 0,35,36
 224 424 224 424 196 399 c 1,37,38
 192 391 192 391 181.5 371.5 c 128,-1,39
 171 352 171 352 171 326 c 0,40,41
 171 258 171 258 202 221 c 0,42,43
 245 170 245 170 337 170 c 0,44,45
 466 170 466 170 534 281 c 0,46,47
 556 317 556 317 573 393 c 1,48,49
 595 319 595 319 622 281 c 1,50,51
 689 170 689 170 812 170 c 0,52,53
 904 170 904 170 960 248 c 1,54,55
 1005 315 1005 315 1005 410 c 0,56,57
 1005 530 1005 530 939 631 c 0,58,59
 867 743 867 743 751 743 c 0,60,61
 638 743 638 743 583 649 c 1,62,63
 566 625 566 625 552 555 c 1,64,65
 527 616 527 616 505 647 c 1,66,67
 431 741 431 741 317 741 c 0,68,69
 294 741 294 741 270.5 738 c 128,-1,70
 247 735 247 735 218 721 c 1,71,72
 175 705 175 705 175 668 c 2,73,-1
 175 586 l 1,74,75
 132 586 132 586 106.5 626 c 128,-1,76
 81 666 81 666 81 713 c 0,77,78
 81 805 81 805 149.5 856 c 128,-1,79
 218 907 218 907 308 907 c 0,80,81
 427 907 427 907 501 807 c 0,82,83
 525 776 525 776 552 707 c 1,84,85
 564 768 564 768 583 805 c 1,86,87
 630 907 630 907 734 907 c 0,88,89
 886 907 886 907 986 737 c 1,90,91
 1072 584 1072 584 1072 393 c 0,0,1
EndSplineSet
EndChar

StartChar: uni0C92
Encoding: 3218 3218 214
Width: 1196
Flags: W
LayerCount: 2
Fore
SplineSet
1113 274 m 0,0,1
 1113 170 1113 170 1052 92 c 1,2,3
 978 4 978 4 865 4 c 0,4,5
 751 4 751 4 673 96 c 1,6,7
 652 123 652 123 620 193 c 1,8,9
 589 135 589 135 560 96 c 1,10,11
 484 4 484 4 368 4 c 0,12,13
 261 4 261 4 191.5 71.5 c 128,-1,14
 122 139 122 139 122 240 c 0,15,16
 122 358 122 358 251 469 c 128,-1,17
 380 580 380 580 380 639 c 0,18,19
 380 696 380 696 366 723 c 1,20,21
 339 760 339 760 288 760 c 0,22,23
 196 760 196 760 196 670 c 0,24,25
 196 625 196 625 233 586 c 1,26,-1
 269 555 l 1,27,-1
 247 551 l 1,28,-1
 235 549 l 1,29,30
 175 549 175 549 132 586 c 0,31,32
 81 631 81 631 81 709 c 0,33,34
 81 801 81 801 134 855 c 128,-1,35
 187 909 187 909 276 909 c 0,36,37
 362 909 362 909 425.5 850 c 128,-1,38
 489 791 489 791 489 686 c 0,39,40
 489 610 489 610 317 453 c 1,41,42
 241 381 241 381 241 299 c 0,43,44
 241 250 241 250 271 217 c 1,45,46
 304 190 304 190 398 190 c 0,47,48
 495 190 495 190 570 281 c 1,49,50
 585 301 585 301 620 371 c 1,51,52
 634 324 634 324 641 310.5 c 128,-1,53
 648 297 648 297 663 281 c 1,54,55
 722 190 722 190 835 190 c 0,56,57
 915 190 915 190 966 229 c 128,-1,58
 1017 268 1017 268 1017 322 c 0,59,60
 1017 365 1017 365 985 390.5 c 128,-1,61
 953 416 953 416 888 416 c 1,62,63
 888 449 888 449 898 463 c 128,-1,64
 908 477 908 477 939 477 c 0,65,66
 1017 477 1017 477 1070 414 c 1,67,68
 1113 358 1113 358 1113 274 c 0,0,1
EndSplineSet
EndChar

StartChar: uni0C93
Encoding: 3219 3219 215
Width: 1196
Flags: W
LayerCount: 2
Fore
SplineSet
1113 270 m 0,0,1
 1113 170 1113 170 1052 88 c 1,2,3
 978 2 978 2 865 2 c 0,4,5
 730 2 730 2 663 94 c 0,6,7
 642 123 642 123 620 190 c 1,8,9
 595 129 595 129 570 94 c 1,10,11
 497 2 497 2 366 2 c 0,12,13
 261 2 261 2 190.5 70.5 c 128,-1,14
 120 139 120 139 120 238 c 0,15,16
 120 356 120 356 250 468 c 128,-1,17
 380 580 380 580 380 637 c 0,18,19
 380 692 380 692 364 723 c 1,20,21
 343 758 343 758 288 758 c 0,22,23
 198 758 198 758 198 668 c 0,24,25
 198 625 198 625 231 584 c 1,26,-1
 269 555 l 1,27,-1
 233 547 l 1,28,29
 177 547 177 547 130 584 c 1,30,31
 81 629 81 629 81 707 c 0,32,33
 81 762 81 762 105.5 809 c 128,-1,34
 130 856 130 856 161 872 c 1,35,36
 130 891 130 891 114 918 c 1,37,38
 83 965 83 965 83 1012 c 0,39,40
 83 1073 83 1073 128 1108 c 1,41,42
 171 1145 171 1145 249 1145 c 0,43,44
 284 1145 284 1145 343 1116 c 1,45,-1
 398 1083 l 1,46,47
 357 1083 357 1083 343 1081 c 0,48,49
 222 1065 222 1065 222 995 c 0,50,51
 222 958 222 958 251 918 c 1,52,-1
 263 907 l 1,53,-1
 274 907 l 2,54,55
 364 907 364 907 424 846.5 c 128,-1,56
 484 786 484 786 484 686 c 0,57,58
 484 606 484 606 317 451 c 1,59,60
 241 379 241 379 241 297 c 0,61,62
 241 248 241 248 271 215 c 1,63,64
 304 188 304 188 396 188 c 0,65,66
 497 188 497 188 566 276 c 1,67,68
 587 305 587 305 620 369 c 1,69,70
 636 322 636 322 642 308.5 c 128,-1,71
 648 295 648 295 663 276 c 1,72,73
 722 188 722 188 835 188 c 0,74,75
 912 188 912 188 965.5 228 c 128,-1,76
 1019 268 1019 268 1019 319 c 0,77,78
 1019 362 1019 362 986 389 c 128,-1,79
 953 416 953 416 888 416 c 1,80,81
 888 444 888 444 898 460.5 c 128,-1,82
 908 477 908 477 937 477 c 0,83,84
 1019 477 1019 477 1070 414 c 1,85,86
 1113 356 1113 356 1113 270 c 0,0,1
EndSplineSet
EndChar

StartChar: uni0C94
Encoding: 3220 3220 216
Width: 1261
Flags: W
LayerCount: 2
Fore
SplineSet
1179 877 m 0,0,1
 1179 745 1179 745 1111 653 c 1,2,3
 1035 559 1035 559 908 559 c 0,4,5
 788 559 788 559 716 639 c 0,6,7
 652 709 652 709 652 809 c 0,8,9
 652 897 652 897 704.5 958.5 c 128,-1,10
 757 1020 757 1020 847 1020 c 0,11,12
 923 1020 923 1020 963 965.5 c 128,-1,13
 1003 911 1003 911 1003 842 c 0,14,15
 1003 788 1003 788 974 753.5 c 128,-1,16
 945 719 945 719 894 719 c 0,17,18
 835 719 835 719 813.5 738.5 c 128,-1,19
 792 758 792 758 792 801 c 0,20,21
 792 829 792 829 809 853 c 128,-1,22
 826 877 826 877 865 877 c 1,23,24
 929 881 929 881 933 836 c 1,25,26
 933 891 933 891 923 909 c 1,27,28
 908 946 908 946 847 946 c 0,29,30
 796 946 796 946 757 897 c 128,-1,31
 718 848 718 848 718 801 c 0,32,33
 718 750 718 750 771 702 c 1,34,35
 826 655 826 655 912 655 c 0,36,37
 1001 655 1001 655 1062 731 c 0,38,39
 1113 793 1113 793 1113 877 c 256,40,41
 1113 961 1113 961 1064 1030 c 1,42,43
 1005 1104 1005 1104 908 1104 c 2,44,-1
 487 1102 l 1,45,46
 513 1081 513 1081 525.5 1050.5 c 128,-1,47
 538 1020 538 1020 538 995 c 0,48,49
 538 909 538 909 446 885 c 1,50,51
 472 856 472 856 491 813 c 1,52,53
 501 795 501 795 504 774.5 c 128,-1,54
 507 754 507 754 507 723 c 0,55,56
 507 639 507 639 329 475 c 1,57,58
 247 397 247 397 247 313 c 0,59,60
 247 262 247 262 280 227 c 1,61,62
 317 199 317 199 411 199 c 256,63,64
 505 199 505 199 587 291 c 1,65,66
 609 324 609 324 644 389 c 1,67,68
 663 338 663 338 669 324.5 c 128,-1,69
 675 311 675 311 689 291 c 0,70,71
 757 199 757 199 872 199 c 0,72,73
 953 199 953 199 1009.5 241 c 128,-1,74
 1066 283 1066 283 1066 334 c 0,75,76
 1066 381 1066 381 1031 409.5 c 128,-1,77
 996 438 996 438 931 438 c 1,78,79
 931 469 931 469 940 486.5 c 128,-1,80
 949 504 949 504 980 504 c 0,81,82
 1066 504 1066 504 1121 436 c 1,83,84
 1166 373 1166 373 1166 287 c 0,85,86
 1166 180 1166 180 1101 94 c 1,87,88
 1023 4 1023 4 902 4 c 0,89,90
 765 4 765 4 693 102 c 1,91,92
 667 133 667 133 644 201 c 1,93,94
 616 135 616 135 589 102 c 0,95,96
 509 4 509 4 380 4 c 0,97,98
 271 4 271 4 196.5 75.5 c 128,-1,99
 122 147 122 147 122 254 c 0,100,101
 122 373 122 373 259 490.5 c 128,-1,102
 396 608 396 608 396 670 c 0,103,104
 396 731 396 731 378 760 c 0,105,106
 355 799 355 799 298 799 c 0,107,108
 200 799 200 799 200 705 c 0,109,110
 200 653 200 653 243 610 c 1,111,-1
 278 582 l 1,112,-1
 245 575 l 1,113,114
 181 575 181 575 136 610 c 1,115,116
 81 662 81 662 81 741 c 0,117,118
 81 842 81 842 144 905 c 1,119,-1
 144 987 l 1,120,-1
 411 987 l 2,121,122
 429 987 429 987 437 1001 c 1,123,-1
 446 1044 l 1,124,125
 446 1094 446 1094 419 1102 c 1,126,-1
 179 1102 l 1,127,-1
 144 1102 l 1,128,-1
 144 1233 l 1,129,-1
 829 1233 l 2,130,131
 996 1233 996 1233 1095 1122 c 1,132,133
 1179 1020 1179 1020 1179 877 c 0,0,1
EndSplineSet
EndChar

StartChar: uni0C95
Encoding: 3221 3221 217
Width: 741
Flags: W
LayerCount: 2
Fore
SplineSet
771 494 m 1,0,-1
 630 494 l 1,1,2
 671 461 671 461 695 406 c 0,3,4
 702 391 702 391 711 361.5 c 128,-1,5
 720 332 720 332 720 291 c 0,6,7
 720 156 720 156 630 72 c 1,8,9
 550 0 550 0 431 0 c 0,10,11
 310 0 310 0 237 70 c 1,12,13
 149 150 149 150 149 291 c 0,14,15
 149 326 149 326 153 351.5 c 128,-1,16
 157 377 157 377 176.5 417 c 128,-1,17
 196 457 196 457 239 494 c 1,18,-1
 81 494 l 1,19,-1
 81 639 l 1,20,-1
 349 639 l 1,21,-1
 349 739 l 1,22,-1
 81 739 l 1,23,-1
 81 911 l 1,24,-1
 605 911 l 1,25,-1
 605 739 l 1,26,-1
 474 739 l 1,27,-1
 474 639 l 1,28,-1
 771 639 l 1,29,-1
 771 494 l 1,0,-1
607 346 m 0,30,31
 607 416 607 416 561 464 c 128,-1,32
 515 512 515 512 431 512 c 0,33,34
 357 512 357 512 306 464 c 128,-1,35
 255 416 255 416 255 346 c 0,36,37
 255 268 255 268 304 227 c 1,38,39
 333 209 333 209 363.5 199.5 c 128,-1,40
 394 190 394 190 431 190 c 0,41,42
 503 190 503 190 550 223 c 1,43,44
 607 268 607 268 607 346 c 0,30,31
781 924 m 1,45,46
 769 743 769 743 558 739 c 1,47,-1
 452 739 l 1,48,-1
 452 911 l 1,49,-1
 558 911 l 1,50,51
 669 918 669 918 667 1010 c 1,52,53
 667 1067 667 1067 609 1155 c 1,54,-1
 650 1194 l 1,55,56
 783 1073 783 1073 781 924 c 1,45,46
EndSplineSet
EndChar

StartChar: uni0C96
Encoding: 3222 3222 218
Width: 1349
Flags: W
LayerCount: 2
Fore
SplineSet
1267 410 m 0,0,1
 1267 231 1267 231 1191 125 c 0,2,3
 1101 0 1101 0 912 0 c 0,4,5
 863 0 863 0 813 23.5 c 128,-1,6
 763 47 763 47 712 98 c 1,7,8
 677 129 677 129 630 197 c 1,9,10
 597 135 597 135 562 98 c 1,11,12
 462 0 462 0 302 0 c 0,13,14
 200 0 200 0 132 78 c 1,15,16
 81 145 81 145 81 231 c 0,17,18
 81 322 81 322 134 379 c 1,19,20
 202 449 202 449 337 449 c 0,21,22
 427 449 427 449 513 389 c 1,23,-1
 589 328 l 1,24,-1
 622 403 l 1,25,26
 654 500 654 500 654 547 c 0,27,28
 654 643 654 643 601 713 c 1,29,30
 540 791 540 791 441 791 c 0,31,32
 368 791 368 791 329 765 c 128,-1,33
 290 739 290 739 290 692 c 0,34,35
 290 659 290 659 321 635 c 1,36,-1
 355 623 l 1,37,-1
 351 653 l 1,38,39
 351 686 351 686 379 707.5 c 128,-1,40
 407 729 407 729 441 729 c 0,41,42
 476 729 476 729 507 707 c 1,43,44
 532 680 532 680 532 633 c 0,45,46
 532 580 532 580 494 549 c 128,-1,47
 456 518 456 518 398 518 c 0,48,49
 323 518 323 518 262.5 577.5 c 128,-1,50
 202 637 202 637 202 711 c 0,51,52
 202 803 202 803 251 866 c 1,53,54
 310 948 310 948 423 948 c 0,55,56
 570 948 570 948 656 813 c 1,57,58
 734 694 734 694 734 537 c 0,59,60
 734 504 734 504 728 467 c 128,-1,61
 722 430 722 430 706 379 c 0,62,63
 699 354 699 354 677 291 c 1,64,-1
 738 246 l 1,65,66
 814 197 814 197 888 197 c 0,67,68
 1044 197 1044 197 1119 276 c 1,69,70
 1191 338 1191 338 1191 449 c 0,71,72
 1191 563 1191 563 1106 652 c 128,-1,73
 1021 741 1021 741 904 745 c 0,74,75
 876 745 876 745 855 776 c 1,76,77
 837 807 837 807 837 836 c 0,78,79
 837 903 837 903 892 911 c 1,80,81
 1050 911 1050 911 1158.5 756.5 c 128,-1,82
 1267 602 1267 602 1267 410 c 0,0,1
552 258 m 1,83,84
 513 295 513 295 487 313 c 0,85,86
 407 371 407 371 323 371 c 0,87,88
 245 371 245 371 209 344 c 128,-1,89
 173 317 173 317 173 276 c 0,90,91
 173 238 173 238 206 209 c 1,92,93
 233 188 233 188 267 188 c 0,94,95
 366 188 366 188 462 221 c 1,96,97
 493 229 493 229 552 258 c 1,83,84
EndSplineSet
EndChar

StartChar: uni0C97
Encoding: 3223 3223 219
Width: 948
Flags: W
LayerCount: 2
Fore
SplineSet
949 2 m 1,0,-1
 775 2 l 1,1,2
 775 383 775 383 722 559 c 1,3,4
 669 727 669 727 517 741 c 1,5,6
 378 733 378 733 315.5 556 c 128,-1,7
 253 379 253 379 253 2 c 1,8,-1
 81 2 l 1,9,10
 81 317 81 317 132 469 c 0,11,12
 153 532 153 532 198 601 c 128,-1,13
 243 670 243 670 319 741 c 1,14,-1
 81 741 l 1,15,-1
 81 913 l 1,16,-1
 728 913 l 1,17,-1
 728 764 l 1,18,19
 853 598 853 598 898 469 c 1,20,21
 949 315 949 315 949 2 c 1,0,-1
949 924 m 1,22,23
 937 743 937 743 726 739 c 1,24,-1
 620 739 l 1,25,-1
 620 911 l 1,26,-1
 726 911 l 1,27,28
 837 918 837 918 835 1010 c 1,29,30
 835 1067 835 1067 777 1155 c 1,31,-1
 818 1194 l 1,32,33
 951 1073 951 1073 949 924 c 1,22,23
EndSplineSet
EndChar

StartChar: uni0C98
Encoding: 3224 3224 220
Width: 1134
Flags: W
LayerCount: 2
Fore
SplineSet
684 569 m 0,0,1
 684 524 684 524 655 494 c 0,2,3
 638 477 638 477 622 470 c 128,-1,4
 606 463 606 463 579 463 c 0,5,6
 534 463 534 463 503 494 c 1,7,8
 487 508 487 508 480 524.5 c 128,-1,9
 473 541 473 541 473 569 c 0,10,11
 473 616 473 616 503 647 c 1,12,13
 518 659 518 659 534 668.5 c 128,-1,14
 550 678 550 678 579 678 c 0,15,16
 624 678 624 678 655 647 c 1,17,18
 669 629 669 629 676.5 612.5 c 128,-1,19
 684 596 684 596 684 569 c 0,0,1
1325 592 m 1,20,21
 1335 496 1335 496 1271.5 435.5 c 128,-1,22
 1208 375 1208 375 1069 408 c 1,23,-1
 1071 340 l 1,24,25
 1071 209 1071 209 1011 115 c 0,26,27
 946 12 946 12 815 12 c 0,28,29
 741 12 741 12 651 104 c 1,30,31
 638 121 638 121 630 129 c 0,32,33
 604 160 604 160 577 201 c 1,34,35
 536 135 536 135 512 104 c 1,36,37
 425 12 425 12 342 12 c 0,38,39
 210 12 210 12 141 115 c 1,40,41
 81 201 81 201 81 326 c 0,42,43
 81 432 81 432 147 498 c 1,44,45
 204 549 204 549 286 549 c 0,46,47
 352 549 352 549 402 503 c 128,-1,48
 452 457 452 457 452 379 c 0,49,50
 452 324 452 324 419 289 c 1,51,52
 393 256 393 256 348 256 c 0,53,54
 305 256 305 256 278 283 c 1,55,-1
 311 299 l 1,56,57
 344 326 344 326 344 377 c 0,58,59
 344 403 344 403 316 423.5 c 128,-1,60
 288 444 288 444 256 444 c 0,61,62
 163 444 163 444 163 332 c 0,63,64
 163 274 163 274 208 225 c 1,65,66
 258 184 258 184 337 184 c 0,67,68
 456 184 456 184 526 291 c 1,69,70
 548 322 548 322 575 401 c 1,71,72
 602 332 602 332 624 293 c 1,73,74
 700 184 700 184 817 184 c 0,75,76
 894 184 894 184 943.5 234.5 c 128,-1,77
 993 285 993 285 993 348 c 0,78,79
 993 395 993 395 970.5 440 c 128,-1,80
 948 485 948 485 892.5 529 c 128,-1,81
 837 573 837 573 837 616 c 0,82,83
 837 635 837 635 853.5 652.5 c 128,-1,84
 870 670 870 670 903 674 c 1,85,86
 940 674 940 674 973.5 589 c 128,-1,87
 1007 504 1007 504 1118 485 c 1,88,89
 1296 508 1296 508 1206 711 c 1,90,91
 1216 748 1216 748 1247 727 c 1,92,93
 1304 672 1304 672 1325 592 c 1,20,21
829 739 m 1,94,-1
 63 739 l 1,95,-1
 63 911 l 1,96,-1
 829 911 l 1,97,-1
 829 739 l 1,94,-1
675 -231 m 1,98,99
 675 -299 675 -299 648.5 -341 c 128,-1,100
 622 -383 622 -383 583 -383 c 0,101,102
 542 -383 542 -383 511.5 -342 c 128,-1,103
 481 -301 481 -301 481 -238 c 0,104,105
 481 -221 481 -221 492 -168 c 128,-1,106
 503 -115 503 -115 528 -39 c 1,107,-1
 575 113 l 1,108,-1
 626 -35 l 1,109,110
 673 -195 673 -195 675 -231 c 1,98,99
1077 924 m 1,111,112
 1064 743 1064 743 854 739 c 1,113,-1
 747 739 l 1,114,-1
 747 911 l 1,115,-1
 854 911 l 1,116,117
 964 918 964 918 962 1010 c 1,118,119
 962 1067 962 1067 905 1155 c 1,120,-1
 946 1194 l 1,121,122
 1079 1073 1079 1073 1077 924 c 1,111,112
EndSplineSet
EndChar

StartChar: uni0C99
Encoding: 3225 3225 221
Width: 1245
Flags: W
LayerCount: 2
Fore
SplineSet
1111 272 m 0,0,1
 1111 166 1111 166 1050 90 c 0,2,3
 978 0 978 0 863 0 c 0,4,5
 745 0 745 0 669 94 c 1,6,7
 642 123 642 123 618 188 c 1,8,9
 597 125 597 125 568 94 c 1,10,11
 497 0 497 0 366 0 c 0,12,13
 261 0 261 0 191.5 68.5 c 128,-1,14
 122 137 122 137 122 236 c 0,15,16
 122 354 122 354 252 466 c 128,-1,17
 382 578 382 578 382 635 c 0,18,19
 382 694 382 694 364 719 c 1,20,21
 341 756 341 756 288 756 c 0,22,23
 196 756 196 756 196 666 c 0,24,25
 196 618 196 618 235 582 c 1,26,-1
 269 549 l 1,27,-1
 235 545 l 1,28,29
 177 545 177 545 132 582 c 1,30,31
 81 629 81 629 81 702 c 0,32,33
 81 797 81 797 134 852 c 128,-1,34
 187 907 187 907 276 907 c 0,35,36
 364 907 364 907 423 850 c 1,37,38
 437 834 437 834 460 793 c 1,39,40
 677 1034 677 1034 931 918 c 1,41,42
 1080 829 1080 829 1103 662 c 1,43,-1
 1066 662 l 1,44,45
 996 819 996 819 781 827 c 1,46,47
 609 827 609 827 484 686 c 1,48,49
 484 602 484 602 317 449 c 0,50,51
 239 377 239 377 239 295 c 0,52,53
 239 231 239 231 290 201 c 1,54,55
 329 174 329 174 398 174 c 0,56,57
 499 174 499 174 568 272 c 1,58,59
 589 291 589 291 618 369 c 1,60,61
 636 309 636 309 659 274 c 1,62,63
 720 174 720 174 833 174 c 0,64,65
 915 174 915 174 966 218 c 128,-1,66
 1017 262 1017 262 1017 319 c 0,67,68
 1017 358 1017 358 987.5 387 c 128,-1,69
 958 416 958 416 896 416 c 1,70,-1
 898 453 l 1,71,72
 902 475 902 475 939 475 c 0,73,74
 1017 475 1017 475 1068 414 c 1,75,76
 1111 354 1111 354 1111 272 c 0,0,1
685 702 m 0,77,78
 716 702 716 702 744.5 688 c 128,-1,79
 773 674 773 674 787.5 648.5 c 128,-1,80
 802 623 802 623 802 592 c 0,81,82
 802 565 802 565 787.5 538.5 c 128,-1,83
 773 512 773 512 744.5 498.5 c 128,-1,84
 716 485 716 485 685 485 c 0,85,86
 656 485 656 485 627.5 498.5 c 128,-1,87
 599 512 599 512 583.5 538.5 c 128,-1,88
 568 565 568 565 568 592 c 0,89,90
 568 623 568 623 583.5 648.5 c 128,-1,91
 599 674 599 674 627.5 688 c 128,-1,92
 656 702 656 702 685 702 c 0,77,78
EndSplineSet
EndChar

StartChar: uni0C9A
Encoding: 3226 3226 222
Width: 1159
Flags: W
LayerCount: 2
Fore
SplineSet
1179 504 m 1,0,-1
 1003 504 l 1,1,2
 1056 473 1056 473 1082 444 c 1,3,4
 1158 369 1158 369 1158 281 c 0,5,6
 1158 174 1158 174 1095 92 c 1,7,8
 1021 0 1021 0 900 0 c 0,9,10
 777 0 777 0 697 96 c 1,11,12
 673 129 673 129 644 197 c 1,13,14
 611 131 611 131 585 96 c 1,15,16
 501 0 501 0 380 0 c 0,17,18
 269 0 269 0 196.5 70.5 c 128,-1,19
 124 141 124 141 124 248 c 0,20,21
 124 369 124 369 260 485.5 c 128,-1,22
 396 602 396 602 396 664 c 0,23,24
 396 723 396 723 378 752 c 0,25,26
 353 793 353 793 294 793 c 0,27,28
 200 793 200 793 200 696 c 0,29,30
 200 649 200 649 239 608 c 1,31,-1
 280 575 l 1,32,-1
 241 569 l 1,33,34
 179 569 179 569 136 608 c 0,35,36
 81 657 81 657 81 735 c 0,37,38
 81 831 81 831 135.5 888.5 c 128,-1,39
 190 946 190 946 284 946 c 0,40,41
 376 946 376 946 439.5 883.5 c 128,-1,42
 503 821 503 821 503 713 c 0,43,44
 503 633 503 633 329 467 c 1,45,46
 245 393 245 393 245 307 c 0,47,48
 245 256 245 256 280 223 c 1,49,50
 314 193 314 193 411 193 c 0,51,52
 515 193 515 193 589 285 c 0,53,54
 609 311 609 311 644 383 c 1,55,56
 661 334 661 334 668 319.5 c 128,-1,57
 675 305 675 305 691 285 c 1,58,59
 753 193 753 193 867 193 c 0,60,61
 951 193 951 193 1006.5 234.5 c 128,-1,62
 1062 276 1062 276 1062 330 c 0,63,64
 1062 385 1062 385 1001 453 c 1,65,-1
 945 504 l 1,66,-1
 708 504 l 1,67,-1
 708 657 l 1,68,-1
 960 657 l 2,69,70
 976 657 976 657 992 676 c 0,71,72
 999 684 999 684 999 694 c 0,73,74
 999 733 999 733 966 739 c 1,75,-1
 714 739 l 1,76,-1
 714 911 l 1,77,-1
 1033 911 l 1,78,-1
 1033 786 l 1,79,80
 1080 719 1080 719 1052 653 c 1,81,-1
 1179 653 l 1,82,-1
 1179 504 l 1,0,-1
1177 924 m 1,83,84
 1164 743 1164 743 953 739 c 1,85,-1
 847 739 l 1,86,-1
 847 911 l 1,87,-1
 953 911 l 1,88,89
 1064 918 1064 918 1062 1010 c 1,90,91
 1062 1067 1062 1067 1005 1155 c 1,92,-1
 1046 1194 l 1,93,94
 1179 1073 1179 1073 1177 924 c 1,83,84
EndSplineSet
EndChar

StartChar: uni0C9B
Encoding: 3227 3227 223
Width: 1148
Flags: W
LayerCount: 2
Fore
SplineSet
1117 311 m 0,0,1
 1117 176 1117 176 1053.5 86 c 128,-1,2
 990 -4 990 -4 880 -4 c 0,3,4
 761 -4 761 -4 675 92 c 1,5,6
 661 111 661 111 644.5 138.5 c 128,-1,7
 628 166 628 166 616 190 c 1,8,9
 595 147 595 147 579 127 c 1,10,11
 489 -4 489 -4 360 -4 c 0,12,13
 218 -4 218 -4 142 141 c 1,14,15
 81 266 81 266 81 461 c 0,16,17
 81 557 81 557 95.5 627.5 c 128,-1,18
 110 698 110 698 142 764 c 1,19,20
 214 899 214 899 333 899 c 0,21,22
 415 899 415 899 460 832.5 c 128,-1,23
 505 766 505 766 505 674 c 0,24,25
 505 580 505 580 461 516.5 c 128,-1,26
 417 453 417 453 335 453 c 0,27,28
 261 453 261 453 226 526 c 1,29,-1
 210 602 l 1,30,31
 153 535 153 535 153 420 c 0,32,33
 153 324 153 324 202 256 c 1,34,35
 263 178 263 178 372 178 c 0,36,37
 482 178 482 178 556 272 c 1,38,39
 579 297 579 297 605 365 c 1,40,41
 616 344 616 344 627 318.5 c 128,-1,42
 638 293 638 293 654 272 c 0,43,44
 724 178 724 178 835 178 c 0,45,46
 939 178 939 178 985 213 c 128,-1,47
 1031 248 1031 248 1031 326 c 0,48,49
 1031 543 1031 543 874 653 c 1,50,51
 812 705 812 705 710 741 c 1,52,-1
 710 909 l 1,53,-1
 960 909 l 1,54,-1
 960 737 l 1,55,-1
 904 737 l 1,56,57
 1007 668 1007 668 1062 549 c 128,-1,58
 1117 430 1117 430 1117 311 c 0,0,1
429 678 m 1,59,60
 429 705 429 705 409.5 724 c 128,-1,61
 390 743 390 743 357 743 c 0,62,63
 302 743 302 743 271 715 c 1,64,65
 263 711 263 711 253 686 c 1,66,67
 253 653 253 653 267.5 630.5 c 128,-1,68
 282 608 282 608 333 608 c 0,69,70
 380 608 380 608 403.5 627.5 c 128,-1,71
 427 647 427 647 429 678 c 1,59,60
726 -236 m 1,72,73
 726 -303 726 -303 699.5 -345 c 128,-1,74
 673 -387 673 -387 634 -387 c 0,75,76
 593 -387 593 -387 562.5 -346 c 128,-1,77
 532 -305 532 -305 532 -242 c 0,78,79
 532 -225 532 -225 543 -172 c 128,-1,80
 554 -119 554 -119 579 -43 c 1,81,-1
 626 109 l 1,82,-1
 677 -39 l 1,83,84
 724 -199 724 -199 726 -236 c 1,72,73
1181 922 m 1,85,86
 1168 741 1168 741 958 737 c 1,87,-1
 851 737 l 1,88,-1
 851 909 l 1,89,-1
 958 909 l 1,90,91
 1068 915 1068 915 1066 1008 c 1,92,93
 1066 1065 1066 1065 1009 1153 c 1,94,-1
 1050 1192 l 1,95,96
 1183 1071 1183 1071 1181 922 c 1,85,86
EndSplineSet
EndChar

StartChar: uni0C9C
Encoding: 3228 3228 224
Width: 1216
Flags: W
LayerCount: 2
Fore
SplineSet
1115 272 m 0,0,1
 1115 166 1115 166 1056 90 c 1,2,3
 984 0 984 0 869 0 c 0,4,5
 749 0 749 0 671 94 c 0,6,7
 646 123 646 123 620 190 c 1,8,9
 599 125 599 125 570 94 c 1,10,11
 499 0 499 0 368 0 c 0,12,13
 263 0 263 0 191.5 67.5 c 128,-1,14
 120 135 120 135 120 238 c 0,15,16
 120 354 120 354 251 467 c 128,-1,17
 382 580 382 580 382 639 c 0,18,19
 382 694 382 694 368 723 c 1,20,21
 341 762 341 762 288 762 c 0,22,23
 196 762 196 762 196 670 c 0,24,25
 196 623 196 623 231 582 c 1,26,-1
 271 553 l 1,27,-1
 235 547 l 1,28,29
 177 547 177 547 132 582 c 1,30,31
 81 631 81 631 81 705 c 0,32,33
 81 799 81 799 134 854 c 128,-1,34
 187 909 187 909 276 909 c 0,35,36
 364 909 364 909 423 850 c 1,37,38
 437 838 437 838 462 795 c 1,39,-1
 538 725 l 1,40,41
 638 653 638 653 732 653 c 0,42,43
 835 653 835 653 900 721 c 1,44,45
 958 778 958 778 958 846 c 0,46,47
 958 872 958 872 945 891 c 1,48,49
 984 883 984 883 999 872 c 1,50,51
 1058 836 1058 836 1058 774 c 0,52,53
 1058 670 1058 670 982 593 c 128,-1,54
 906 516 906 516 802 516 c 0,55,56
 712 516 712 516 597 598 c 1,57,58
 552 623 552 623 499 678 c 1,59,-1
 491 690 l 1,60,61
 491 604 491 604 319 451 c 0,62,63
 239 379 239 379 239 299 c 0,64,65
 239 233 239 233 290 201 c 1,66,67
 329 178 329 178 398 178 c 0,68,69
 501 178 501 178 570 272 c 1,70,71
 589 295 589 295 620 369 c 1,72,73
 638 309 638 309 661 274 c 0,74,75
 724 178 724 178 837 178 c 0,76,77
 919 178 919 178 970 220 c 128,-1,78
 1021 262 1021 262 1021 319 c 0,79,80
 1021 358 1021 358 992.5 387 c 128,-1,81
 964 416 964 416 900 416 c 1,82,-1
 900 457 l 1,83,84
 904 475 904 475 943 475 c 0,85,86
 1021 475 1021 475 1074 414 c 1,87,88
 1115 354 1115 354 1115 272 c 0,0,1
EndSplineSet
EndChar

StartChar: uni0C9D
Encoding: 3229 3229 225
Width: 968
Flags: W
LayerCount: 2
Fore
SplineSet
781 772 m 1,0,1
 880 688 880 688 914.5 612.5 c 128,-1,2
 949 537 949 537 949 418 c 0,3,4
 949 242 949 242 822 121 c 128,-1,5
 695 0 695 0 517 0 c 256,6,7
 339 0 339 0 210 120 c 128,-1,8
 81 240 81 240 81 418 c 0,9,10
 81 528 81 528 134 623 c 1,11,12
 179 700 179 700 237 735 c 1,13,-1
 81 735 l 1,14,-1
 81 911 l 1,15,-1
 781 911 l 1,16,-1
 781 772 l 1,0,1
810 455 m 0,17,18
 810 571 810 571 726 653 c 128,-1,19
 642 735 642 735 521 735 c 0,20,21
 396 735 396 735 313.5 653 c 128,-1,22
 231 571 231 571 231 455 c 0,23,24
 231 342 231 342 314.5 257 c 128,-1,25
 398 172 398 172 521 172 c 0,26,27
 642 172 642 172 726 256 c 128,-1,28
 810 340 810 340 810 455 c 0,17,18
949 924 m 1,29,30
 937 743 937 743 726 739 c 1,31,-1
 620 739 l 1,32,-1
 620 911 l 1,33,-1
 726 911 l 1,34,35
 837 918 837 918 835 1010 c 1,36,37
 835 1067 835 1067 777 1155 c 1,38,-1
 818 1194 l 1,39,40
 951 1073 951 1073 949 924 c 1,29,30
1617 465 m 1,41,42
 1621 293 1621 293 1537 176 c 1,43,44
 1470 76 1470 76 1318 61 c 1,45,46
 896 57 896 57 949 444 c 1,47,48
 1027 262 1027 262 1271 242 c 1,49,50
 1410 246 1410 246 1474 295 c 0,51,52
 1547 350 1547 350 1547 446 c 0,53,54
 1547 571 1547 571 1464 650 c 128,-1,55
 1381 729 1381 729 1216 774 c 1,56,57
 1187 784 1187 784 1170.5 806.5 c 128,-1,58
 1154 829 1154 829 1152 862 c 1,59,60
 1152 895 1152 895 1167.5 922.5 c 128,-1,61
 1183 950 1183 950 1224 950 c 0,62,63
 1353 950 1353 950 1478 807 c 1,64,65
 1617 655 1617 655 1617 465 c 1,41,42
1709 -193 m 1,66,67
 1709 -260 1709 -260 1682.5 -302 c 128,-1,68
 1656 -344 1656 -344 1617 -344 c 0,69,70
 1576 -344 1576 -344 1545.5 -303 c 128,-1,71
 1515 -262 1515 -262 1515 -199 c 0,72,73
 1515 -182 1515 -182 1526 -129 c 128,-1,74
 1537 -76 1537 -76 1562 0 c 1,75,-1
 1609 152 l 1,76,-1
 1660 4 l 1,77,78
 1707 -156 1707 -156 1709 -193 c 1,66,67
2285 467 m 1,79,80
 2289 295 2289 295 2205 178 c 1,81,82
 2137 78 2137 78 1986 63 c 1,83,84
 1564 59 1564 59 1617 446 c 1,85,86
 1695 264 1695 264 1939 244 c 1,87,88
 2078 248 2078 248 2141 297 c 1,89,90
 2215 352 2215 352 2215 449 c 0,91,92
 2215 573 2215 573 2132 652 c 128,-1,93
 2049 731 2049 731 1883 776 c 1,94,95
 1855 786 1855 786 1838.5 808.5 c 128,-1,96
 1822 831 1822 831 1820 864 c 1,97,98
 1820 897 1820 897 1835 924.5 c 128,-1,99
 1850 952 1850 952 1891 952 c 0,100,101
 2020 952 2020 952 2145 809 c 1,102,103
 2285 657 2285 657 2285 467 c 1,79,80
EndSplineSet
EndChar

StartChar: uni0C9E
Encoding: 3230 3230 226
Width: 1490
Flags: W
LayerCount: 2
Fore
SplineSet
1408 649 m 0,0,1
 1408 555 1408 555 1358 475 c 128,-1,2
 1308 395 1308 395 1238 395 c 0,3,4
 1211 395 1211 395 1195 412 c 1,5,6
 1185 426 1185 426 1185 455 c 2,7,-1
 1185 477 l 1,8,-1
 1189 494 l 1,9,10
 1261 494 1261 494 1298.5 532.5 c 128,-1,11
 1336 571 1336 571 1336 623 c 0,12,13
 1336 666 1336 666 1295.5 704.5 c 128,-1,14
 1255 743 1255 743 1185 743 c 0,15,16
 1101 743 1101 743 1039 666 c 1,17,18
 1019 645 1019 645 994 596 c 1,19,20
 994 514 994 514 962 444 c 1,21,-1
 929 387 l 1,22,23
 943 360 943 360 943 326 c 0,24,25
 943 299 943 299 927.5 237.5 c 128,-1,26
 912 176 912 176 912 141 c 0,27,28
 912 123 912 123 927 117 c 1,29,-1
 960 111 l 1,30,31
 970 111 970 111 992.5 139.5 c 128,-1,32
 1015 168 1015 168 1015 199 c 1,33,-1
 1039 174 l 1,34,35
 1068 141 1068 141 1068 111 c 0,36,37
 1068 57 1068 57 1019 31 c 1,38,39
 994 12 994 12 977 5 c 128,-1,40
 960 -2 960 -2 929 -2 c 0,41,42
 884 -2 884 -2 841 33 c 128,-1,43
 798 68 798 68 798 123 c 0,44,45
 798 141 798 141 843 250 c 1,46,47
 845 258 845 258 863 309 c 1,48,49
 810 240 810 240 712 233 c 1,50,51
 628 233 628 233 586 274 c 128,-1,52
 544 315 544 315 544 375 c 0,53,54
 544 436 544 436 591 484 c 128,-1,55
 638 532 638 532 720 532 c 0,56,57
 775 532 775 532 829 502 c 1,58,59
 859 489 859 489 888 463 c 1,60,-1
 912 514 l 1,61,62
 921 539 921 539 927 571 c 1,63,64
 927 637 927 637 870.5 690 c 128,-1,65
 814 743 814 743 751 743 c 0,66,67
 652 743 652 743 589 664 c 1,68,69
 568 641 568 641 544 588 c 1,70,71
 523 633 523 633 503 664 c 1,72,73
 441 743 441 743 325 743 c 0,74,75
 257 743 257 743 208 701 c 128,-1,76
 159 659 159 659 159 606 c 0,77,78
 159 561 159 561 196 531.5 c 128,-1,79
 233 502 233 502 319 502 c 1,80,-1
 325 477 l 1,81,82
 333 465 333 465 333 444 c 0,83,84
 333 420 333 420 320.5 403.5 c 128,-1,85
 308 387 308 387 274 387 c 0,86,87
 190 387 190 387 134 463 c 1,88,89
 81 539 81 539 81 637 c 0,90,91
 81 748 81 748 140 819 c 1,92,93
 204 909 204 909 319 909 c 0,94,95
 441 909 441 909 497 805 c 1,96,97
 509 793 509 793 518 767 c 128,-1,98
 527 741 527 741 542 702 c 1,99,100
 550 776 550 776 568 805 c 1,101,102
 626 909 626 909 753 909 c 0,103,104
 859 909 859 909 929 827 c 0,105,106
 949 803 949 803 982 748 c 1,107,108
 999 786 999 786 1004 798.5 c 128,-1,109
 1009 811 1009 811 1023 827 c 1,110,111
 1085 909 1085 909 1193 909 c 0,112,113
 1289 909 1289 909 1348.5 833.5 c 128,-1,114
 1408 758 1408 758 1408 649 c 0,0,1
851 387 m 1,115,-1
 822 424 l 1,116,117
 788 463 788 463 740 463 c 0,118,119
 712 463 712 463 693.5 444.5 c 128,-1,120
 675 426 675 426 673 395 c 1,121,122
 673 342 673 342 736 342 c 0,123,124
 775 342 775 342 814 362 c 1,125,-1
 851 387 l 1,115,-1
EndSplineSet
EndChar

StartChar: uni0C9F
Encoding: 3231 3231 227
Width: 1124
Flags: W
LayerCount: 2
Fore
SplineSet
1042 322 m 1,0,1
 1029 10 1029 10 814 8 c 0,2,3
 708 8 708 8 630 94 c 1,4,5
 613 119 613 119 583 180 c 1,6,7
 562 125 562 125 538 94 c 0,8,9
 468 8 468 8 364 8 c 0,10,11
 231 8 231 8 151 117 c 0,12,13
 81 213 81 213 81 346 c 0,14,15
 81 508 81 508 165 586 c 0,16,17
 190 610 190 610 251 629 c 1,18,19
 208 643 208 643 177 659 c 1,20,21
 108 707 108 707 108 774 c 0,22,23
 108 838 108 838 158 873.5 c 128,-1,24
 208 909 208 909 274 909 c 0,25,26
 304 909 304 909 351 885 c 1,27,-1
 370 870 l 1,28,29
 349 870 349 870 335 866 c 0,30,31
 251 842 251 842 251 768 c 0,32,33
 251 711 251 711 298 668 c 1,34,-1
 345 637 l 1,35,36
 398 616 398 616 427 571 c 1,37,38
 456 528 456 528 456 473 c 0,39,40
 456 410 456 410 416 356.5 c 128,-1,41
 376 303 376 303 310 303 c 0,42,43
 253 303 253 303 212 336 c 1,44,45
 175 369 175 369 175 430 c 1,46,-1
 177 463 l 1,47,-1
 173 444 l 1,48,49
 155 397 155 397 155 344 c 0,50,51
 155 276 155 276 205 230 c 128,-1,52
 255 184 255 184 351 184 c 0,53,54
 464 184 464 184 534 260 c 0,55,56
 544 270 544 270 557 289.5 c 128,-1,57
 570 309 570 309 583 332 c 1,58,59
 605 283 605 283 630 260 c 1,60,61
 697 184 697 184 816 184 c 1,62,63
 941 195 941 195 945 338 c 1,64,65
 939 461 939 461 845 471 c 1,66,-1
 720 471 l 1,67,-1
 720 590 l 1,68,-1
 851 590 l 2,69,70
 869 590 869 590 889.5 606.5 c 128,-1,71
 910 623 910 623 910 657 c 0,72,73
 910 707 910 707 866 737.5 c 128,-1,74
 822 768 822 768 751 768 c 0,75,76
 695 768 695 768 675 786 c 1,77,78
 661 803 661 803 661 838 c 0,79,80
 661 870 661 870 687.5 889.5 c 128,-1,81
 714 909 714 909 781 909 c 0,82,83
 884 909 884 909 941 848 c 0,84,85
 990 797 990 797 990 721 c 0,86,87
 990 641 990 641 953 596 c 1,88,89
 937 580 937 580 910 565 c 1,90,91
 1031 502 1031 502 1042 322 c 1,0,1
382 479 m 0,92,93
 382 539 382 539 308 539 c 0,94,95
 290 539 290 539 265 526 c 1,96,-1
 241 510 l 1,97,98
 241 467 241 467 251 455 c 1,99,100
 265 426 265 426 302 426 c 0,101,102
 341 426 341 426 361.5 441.5 c 128,-1,103
 382 457 382 457 382 479 c 0,92,93
EndSplineSet
EndChar

StartChar: uni0CA0
Encoding: 3232 3232 228
Width: 917
Flags: W
LayerCount: 2
Fore
SplineSet
749 762 m 1,0,1
 839 684 839 684 873.5 606 c 128,-1,2
 908 528 908 528 908 416 c 0,3,4
 908 240 908 240 787.5 120 c 128,-1,5
 667 0 667 0 497 0 c 256,6,7
 327 0 327 0 204 119 c 128,-1,8
 81 238 81 238 81 416 c 0,9,10
 81 522 81 522 130 616 c 1,11,12
 175 694 175 694 231 737 c 1,13,-1
 81 737 l 1,14,-1
 81 911 l 1,15,-1
 749 911 l 1,16,-1
 749 762 l 1,0,1
773 459 m 0,17,18
 773 575 773 575 690 657 c 128,-1,19
 607 739 607 739 497 739 c 0,20,21
 382 739 382 739 301 658.5 c 128,-1,22
 220 578 220 578 220 459 c 0,23,24
 220 350 220 350 302 266 c 128,-1,25
 384 182 384 182 497 182 c 0,26,27
 607 182 607 182 690 265 c 128,-1,28
 773 348 773 348 773 459 c 0,17,18
620 469 m 0,29,30
 620 424 620 424 587 391 c 128,-1,31
 554 358 554 358 509 358 c 0,32,33
 462 358 462 358 429 391 c 0,34,35
 413 406 413 406 404.5 425 c 128,-1,36
 396 444 396 444 396 469 c 0,37,38
 396 516 396 516 429 547 c 0,39,40
 446 563 446 563 464 572.5 c 128,-1,41
 482 582 482 582 509 582 c 0,42,43
 554 582 554 582 587 549 c 128,-1,44
 620 516 620 516 620 469 c 0,29,30
949 924 m 1,45,46
 937 743 937 743 726 739 c 1,47,-1
 620 739 l 1,48,-1
 620 911 l 1,49,-1
 726 911 l 1,50,51
 837 918 837 918 835 1010 c 1,52,53
 835 1067 835 1067 777 1155 c 1,54,-1
 818 1194 l 1,55,56
 951 1073 951 1073 949 924 c 1,45,46
EndSplineSet
EndChar

StartChar: uni0CA1
Encoding: 3233 3233 229
Width: 1114
Flags: W
LayerCount: 2
Fore
SplineSet
1097 301 m 0,0,1
 1097 172 1097 172 1038 88 c 1,2,3
 964 -8 964 -8 831 -8 c 0,4,5
 729 -8 729 -8 659 55 c 0,6,7
 581 125 581 125 581 205 c 1,8,9
 555 131 555 131 528 98 c 1,10,11
 454 -8 454 -8 337 -8 c 0,12,13
 229 -8 229 -8 151 72 c 0,14,15
 61 164 61 164 61 326 c 0,16,17
 61 473 61 473 133 586 c 1,18,19
 190 678 190 678 301 743 c 1,20,-1
 77 743 l 1,21,-1
 77 913 l 1,22,-1
 923 913 l 1,23,-1
 923 743 l 1,24,25
 938 733 938 733 974.5 670.5 c 128,-1,26
 1011 608 1011 608 1003 535 c 1,27,28
 1028 516 1028 516 1062.5 439 c 128,-1,29
 1097 362 1097 362 1097 301 c 0,0,1
942 518 m 1,30,-1
 919 530 l 1,31,32
 868 555 868 555 835 555 c 0,33,34
 794 555 794 555 766.5 533.5 c 128,-1,35
 739 512 739 512 739 485 c 0,36,37
 739 469 739 469 757.5 449.5 c 128,-1,38
 776 430 776 430 806 430 c 0,39,40
 864 430 864 430 907 473 c 1,41,-1
 942 518 l 1,30,-1
1028 338 m 0,42,43
 1028 362 1028 362 1026 374.5 c 128,-1,44
 1024 387 1024 387 1009 418 c 1,45,46
 1007 438 1007 438 995 459 c 1,47,48
 968 420 968 420 944 399 c 0,49,50
 878 342 878 342 788 342 c 0,51,52
 714 342 714 342 676.5 380 c 128,-1,53
 639 418 639 418 639 473 c 0,54,55
 639 532 639 532 681 576.5 c 128,-1,56
 723 621 723 621 804 621 c 0,57,58
 856 621 856 621 927 584 c 1,59,60
 925 635 925 635 828 690 c 128,-1,61
 731 745 731 745 583 745 c 0,62,63
 397 745 397 745 287.5 655 c 128,-1,64
 178 565 178 565 178 387 c 0,65,66
 178 193 178 193 358 193 c 0,67,68
 475 193 475 193 538 274 c 1,69,70
 559 297 559 297 583 358 c 1,71,-1
 610 309 l 1,72,73
 677 193 677 193 817 193 c 0,74,75
 917 193 917 193 972.5 231.5 c 128,-1,76
 1028 270 1028 270 1028 338 c 0,42,43
1093 924 m 1,77,78
 1081 743 1081 743 870 739 c 1,79,-1
 763 739 l 1,80,-1
 763 911 l 1,81,-1
 870 911 l 1,82,83
 981 918 981 918 979 1010 c 1,84,85
 979 1067 979 1067 921 1155 c 1,86,-1
 962 1194 l 1,87,88
 1095 1073 1095 1073 1093 924 c 1,77,78
EndSplineSet
EndChar

StartChar: uni0CA2
Encoding: 3234 3234 230
Width: 2
Flags: W
LayerCount: 2
Fore
SplineSet
679 -293 m 1,0,1
 679 -360 679 -360 652.5 -402 c 128,-1,2
 626 -444 626 -444 587 -444 c 0,3,4
 546 -444 546 -444 515.5 -403 c 128,-1,5
 485 -362 485 -362 485 -299 c 0,6,7
 485 -283 485 -283 496 -229.5 c 128,-1,8
 507 -176 507 -176 532 -100 c 1,9,-1
 579 51 l 1,10,-1
 630 -96 l 1,11,12
 677 -256 677 -256 679 -293 c 1,0,1
1097 301 m 0,13,14
 1097 172 1097 172 1038 88 c 1,15,16
 964 -8 964 -8 831 -8 c 0,17,18
 729 -8 729 -8 659 55 c 0,19,20
 581 125 581 125 581 205 c 1,21,22
 555 131 555 131 528 98 c 1,23,24
 454 -8 454 -8 337 -8 c 0,25,26
 229 -8 229 -8 151 72 c 0,27,28
 61 164 61 164 61 326 c 0,29,30
 61 473 61 473 133 586 c 1,31,32
 190 678 190 678 301 743 c 1,33,-1
 77 743 l 1,34,-1
 77 913 l 1,35,-1
 923 913 l 1,36,-1
 923 743 l 1,37,38
 938 733 938 733 974.5 670.5 c 128,-1,39
 1011 608 1011 608 1003 535 c 1,40,41
 1028 516 1028 516 1062.5 439 c 128,-1,42
 1097 362 1097 362 1097 301 c 0,13,14
942 518 m 1,43,-1
 919 530 l 1,44,45
 868 555 868 555 835 555 c 0,46,47
 794 555 794 555 766.5 533.5 c 128,-1,48
 739 512 739 512 739 485 c 0,49,50
 739 469 739 469 757.5 449.5 c 128,-1,51
 776 430 776 430 806 430 c 0,52,53
 864 430 864 430 907 473 c 1,54,-1
 942 518 l 1,43,-1
1028 338 m 0,55,56
 1028 362 1028 362 1026 374.5 c 128,-1,57
 1024 387 1024 387 1009 418 c 1,58,59
 1007 438 1007 438 995 459 c 1,60,61
 968 420 968 420 944 399 c 0,62,63
 878 342 878 342 788 342 c 0,64,65
 714 342 714 342 676.5 380 c 128,-1,66
 639 418 639 418 639 473 c 0,67,68
 639 532 639 532 681 576.5 c 128,-1,69
 723 621 723 621 804 621 c 0,70,71
 856 621 856 621 927 584 c 1,72,73
 925 635 925 635 828 690 c 128,-1,74
 731 745 731 745 583 745 c 0,75,76
 397 745 397 745 287.5 655 c 128,-1,77
 178 565 178 565 178 387 c 0,78,79
 178 193 178 193 358 193 c 0,80,81
 475 193 475 193 538 274 c 1,82,83
 559 297 559 297 583 358 c 1,84,-1
 610 309 l 1,85,86
 677 193 677 193 817 193 c 0,87,88
 917 193 917 193 972.5 231.5 c 128,-1,89
 1028 270 1028 270 1028 338 c 0,55,56
1093 924 m 1,90,91
 1081 743 1081 743 870 739 c 1,92,-1
 763 739 l 1,93,-1
 763 911 l 1,94,-1
 870 911 l 1,95,96
 981 918 981 918 979 1010 c 1,97,98
 979 1067 979 1067 921 1155 c 1,99,-1
 962 1194 l 1,100,101
 1095 1073 1095 1073 1093 924 c 1,90,91
EndSplineSet
EndChar

StartChar: uni0CA3
Encoding: 3235 3235 231
Width: 1310
Flags: W
LayerCount: 2
Fore
SplineSet
1228 446 m 0,0,1
 1228 0 1228 0 933 0 c 0,2,3
 822 0 822 0 742.5 70.5 c 128,-1,4
 663 141 663 141 663 262 c 0,5,6
 663 371 663 371 720 422 c 128,-1,7
 777 473 777 473 865 473 c 0,8,9
 929 473 929 473 977 432 c 128,-1,10
 1025 391 1025 391 1025 326 c 0,11,12
 1025 268 1025 268 992 240 c 0,13,14
 962 215 962 215 921 215 c 1,15,-1
 886 217 l 2,16,17
 872 217 872 217 861 223 c 1,18,-1
 892 252 l 1,19,20
 923 285 923 285 923 315 c 0,21,22
 923 346 923 346 902 360 c 1,23,24
 884 379 884 379 851 379 c 0,25,26
 759 379 759 379 759 260 c 0,27,28
 759 201 759 201 812 160 c 128,-1,29
 865 119 865 119 933 119 c 0,30,31
 1037 119 1037 119 1093.5 210 c 128,-1,32
 1150 301 1150 301 1150 451 c 0,33,34
 1150 612 1150 612 1076 682 c 1,35,36
 1015 737 1015 737 894 737 c 0,37,38
 745 737 745 737 667 643 c 1,39,40
 642 616 642 616 618 549 c 1,41,42
 603 612 603 612 579 641 c 1,43,44
 517 735 517 735 405 735 c 0,45,46
 329 735 329 735 271 696 c 1,47,48
 212 662 212 662 212 596 c 0,49,50
 212 502 212 502 304 446 c 1,51,52
 310 444 310 444 331 438 c 1,53,54
 386 418 386 418 400 414 c 1,55,56
 353 401 353 401 340 397 c 128,-1,57
 327 393 327 393 304 381 c 1,58,59
 212 328 212 328 212 213 c 0,60,61
 212 164 212 164 256 134 c 128,-1,62
 300 104 300 104 355 104 c 0,63,64
 400 104 400 104 433 131 c 1,65,-1
 458 156 l 1,66,-1
 493 135 l 1,67,68
 493 82 493 82 443 43 c 0,69,70
 396 6 396 6 343 6 c 0,71,72
 237 6 237 6 159 63.5 c 128,-1,73
 81 121 81 121 81 227 c 0,74,75
 81 324 81 324 151 381 c 1,76,77
 175 397 175 397 226 416 c 1,78,79
 177 438 177 438 157 463 c 1,80,81
 89 535 89 535 89 668 c 0,82,83
 89 776 89 776 182.5 842.5 c 128,-1,84
 276 909 276 909 390 909 c 0,85,86
 505 909 505 909 577 815 c 1,87,88
 593 791 593 791 620 719 c 1,89,90
 642 782 642 782 671 815 c 1,91,92
 745 909 745 909 904 909 c 0,93,94
 1064 909 1064 909 1152 764 c 0,95,96
 1228 639 1228 639 1228 446 c 0,0,1
EndSplineSet
EndChar

StartChar: uni0CA4
Encoding: 3236 3236 232
Width: 946
Flags: W
LayerCount: 2
Fore
SplineSet
919 344 m 0,0,1
 919 176 919 176 788 84 c 0,2,3
 728 43 728 43 658.5 21.5 c 128,-1,4
 589 0 589 0 499 0 c 0,5,6
 331 0 331 0 206 80 c 1,7,8
 81 166 81 166 81 309 c 0,9,10
 81 369 81 369 120 420 c 1,11,-1
 159 459 l 1,12,-1
 171 444 l 1,13,14
 181 422 181 422 181 381 c 0,15,16
 181 289 181 289 288 236 c 0,17,18
 386 188 386 188 513 188 c 256,19,20
 640 188 640 188 726 233 c 1,21,22
 824 287 824 287 824 385 c 0,23,24
 824 414 824 414 800 459 c 1,25,-1
 786 477 l 1,26,27
 732 430 732 430 695 406 c 0,28,29
 587 334 587 334 497 334 c 0,30,31
 409 334 409 334 349.5 381 c 128,-1,32
 290 428 290 428 290 494 c 0,33,34
 290 563 290 563 345 612 c 1,35,36
 409 672 409 672 527 672 c 0,37,38
 593 672 593 672 656 645 c 1,39,-1
 681 631 l 1,40,41
 693 664 693 664 660.5 703.5 c 128,-1,42
 628 743 628 743 589 743 c 2,43,-1
 87 743 l 1,44,-1
 87 913 l 1,45,-1
 734 913 l 1,46,-1
 734 743 l 1,47,48
 757 725 757 725 773 702 c 0,49,50
 812 645 812 645 812 563 c 1,51,52
 845 545 845 545 863 518 c 1,53,54
 919 446 919 446 919 344 c 0,0,1
681 561 m 1,55,-1
 644 571 l 1,56,57
 595 588 595 588 552 588 c 0,58,59
 497 588 497 588 464 570.5 c 128,-1,60
 431 553 431 553 425 524 c 1,61,62
 425 508 425 508 443.5 487.5 c 128,-1,63
 462 467 462 467 493 467 c 0,64,65
 577 467 577 467 636 512 c 0,66,67
 650 522 650 522 681 561 c 1,55,-1
925 924 m 1,68,69
 912 743 912 743 702 739 c 1,70,-1
 595 739 l 1,71,-1
 595 911 l 1,72,-1
 702 911 l 1,73,74
 812 918 812 918 810 1010 c 1,75,76
 810 1067 810 1067 753 1155 c 1,77,-1
 794 1194 l 1,78,79
 927 1073 927 1073 925 924 c 1,68,69
EndSplineSet
EndChar

StartChar: uni0CA5
Encoding: 3237 3237 233
Width: 1126
Flags: W
LayerCount: 2
Fore
SplineSet
1123 305 m 0,0,1
 1123 174 1123 174 1058 90 c 1,2,3
 1019 45 1019 45 971 22.5 c 128,-1,4
 923 0 923 0 861 0 c 0,5,6
 755 0 755 0 665 90 c 1,7,8
 642 117 642 117 599 180 c 1,9,10
 566 119 566 119 542 90 c 0,11,12
 464 0 464 0 351 0 c 0,13,14
 222 0 222 0 147 90 c 1,15,16
 81 172 81 172 81 305 c 0,17,18
 81 428 81 428 146.5 552 c 128,-1,19
 212 676 212 676 327 735 c 1,20,-1
 89 735 l 1,21,-1
 89 913 l 1,22,-1
 943 913 l 1,23,-1
 943 737 l 1,24,-1
 841 737 l 1,25,26
 968 672 968 672 1045.5 555 c 128,-1,27
 1123 438 1123 438 1123 305 c 0,0,1
994 362 m 0,28,29
 994 500 994 500 902 606 c 0,30,31
 792 731 792 731 597 731 c 0,32,33
 423 731 423 731 306 610 c 1,34,35
 208 498 208 498 208 362 c 0,36,37
 208 289 208 289 247 229 c 1,38,39
 290 176 290 176 370 176 c 0,40,41
 480 176 480 176 552 264 c 0,42,43
 575 293 575 293 599 348 c 1,44,45
 607 328 607 328 618.5 305.5 c 128,-1,46
 630 283 630 283 646 264 c 1,47,48
 714 176 714 176 816 176 c 0,49,50
 896 176 896 176 945 231.5 c 128,-1,51
 994 287 994 287 994 362 c 0,28,29
708 524 m 0,52,53
 708 479 708 479 676 446.5 c 128,-1,54
 644 414 644 414 597 414 c 256,55,56
 550 414 550 414 517 446 c 1,57,58
 503 461 503 461 495 479.5 c 128,-1,59
 487 498 487 498 487 524 c 0,60,61
 487 571 487 571 517 606 c 1,62,63
 534 618 534 618 552 626.5 c 128,-1,64
 570 635 570 635 597 635 c 0,65,66
 644 635 644 635 676 603 c 128,-1,67
 708 571 708 571 708 524 c 0,52,53
706 -236 m 1,68,69
 706 -303 706 -303 679 -345 c 128,-1,70
 652 -387 652 -387 613 -387 c 0,71,72
 573 -387 573 -387 542 -346 c 128,-1,73
 511 -305 511 -305 511 -242 c 0,74,75
 511 -225 511 -225 522.5 -172 c 128,-1,76
 534 -119 534 -119 558 -43 c 2,77,-1
 605 109 l 1,78,-1
 656 -39 l 1,79,80
 704 -199 704 -199 706 -236 c 1,68,69
1123 924 m 1,81,82
 1111 743 1111 743 900 739 c 1,83,-1
 794 739 l 1,84,-1
 794 911 l 1,85,-1
 900 911 l 1,86,87
 1011 918 1011 918 1009 1010 c 1,88,89
 1009 1067 1009 1067 951 1155 c 1,90,-1
 992 1194 l 1,91,92
 1125 1073 1125 1073 1123 924 c 1,81,82
EndSplineSet
EndChar

StartChar: uni0CA6
Encoding: 3238 3238 234
Width: 1134
Flags: W
LayerCount: 2
Fore
SplineSet
1123 305 m 0,0,1
 1123 174 1123 174 1058 90 c 1,2,3
 1019 45 1019 45 971 22.5 c 128,-1,4
 923 0 923 0 861 0 c 0,5,6
 755 0 755 0 665 90 c 1,7,8
 642 117 642 117 599 180 c 1,9,10
 566 119 566 119 542 90 c 0,11,12
 464 0 464 0 351 0 c 0,13,14
 222 0 222 0 147 90 c 1,15,16
 81 172 81 172 81 305 c 0,17,18
 81 428 81 428 146.5 552 c 128,-1,19
 212 676 212 676 327 735 c 1,20,-1
 89 735 l 1,21,-1
 89 913 l 1,22,-1
 943 913 l 1,23,-1
 943 737 l 1,24,-1
 841 737 l 1,25,26
 968 672 968 672 1045.5 555 c 128,-1,27
 1123 438 1123 438 1123 305 c 0,0,1
994 362 m 0,28,29
 994 500 994 500 902 606 c 0,30,31
 792 731 792 731 597 731 c 0,32,33
 423 731 423 731 306 610 c 1,34,35
 208 498 208 498 208 362 c 0,36,37
 208 289 208 289 247 229 c 1,38,39
 290 176 290 176 370 176 c 0,40,41
 480 176 480 176 552 264 c 0,42,43
 575 293 575 293 599 348 c 1,44,45
 607 328 607 328 618.5 305.5 c 128,-1,46
 630 283 630 283 646 264 c 1,47,48
 714 176 714 176 816 176 c 0,49,50
 896 176 896 176 945 231.5 c 128,-1,51
 994 287 994 287 994 362 c 0,28,29
1123 924 m 1,52,53
 1111 743 1111 743 900 739 c 1,54,-1
 794 739 l 1,55,-1
 794 911 l 1,56,-1
 900 911 l 1,57,58
 1011 918 1011 918 1009 1010 c 1,59,60
 1009 1067 1009 1067 951 1155 c 1,61,-1
 992 1194 l 1,62,63
 1125 1073 1125 1073 1123 924 c 1,52,53
EndSplineSet
EndChar

StartChar: uni0CA7
Encoding: 3239 3239 235
Width: 569
Flags: W
LayerCount: 2
Fore
SplineSet
1123 305 m 0,0,1
 1123 174 1123 174 1058 90 c 1,2,3
 1019 45 1019 45 971 22.5 c 128,-1,4
 923 0 923 0 861 0 c 0,5,6
 755 0 755 0 665 90 c 1,7,8
 642 117 642 117 599 180 c 1,9,10
 566 119 566 119 542 90 c 0,11,12
 464 0 464 0 351 0 c 0,13,14
 222 0 222 0 147 90 c 1,15,16
 81 172 81 172 81 305 c 0,17,18
 81 428 81 428 146.5 552 c 128,-1,19
 212 676 212 676 327 735 c 1,20,-1
 89 735 l 1,21,-1
 89 913 l 1,22,-1
 943 913 l 1,23,-1
 943 737 l 1,24,-1
 841 737 l 1,25,26
 968 672 968 672 1045.5 555 c 128,-1,27
 1123 438 1123 438 1123 305 c 0,0,1
994 362 m 0,28,29
 994 500 994 500 902 606 c 0,30,31
 792 731 792 731 597 731 c 0,32,33
 423 731 423 731 306 610 c 1,34,35
 208 498 208 498 208 362 c 0,36,37
 208 289 208 289 247 229 c 1,38,39
 290 176 290 176 370 176 c 0,40,41
 480 176 480 176 552 264 c 0,42,43
 575 293 575 293 599 348 c 1,44,45
 607 328 607 328 618.5 305.5 c 128,-1,46
 630 283 630 283 646 264 c 1,47,48
 714 176 714 176 816 176 c 0,49,50
 896 176 896 176 945 231.5 c 128,-1,51
 994 287 994 287 994 362 c 0,28,29
706 -236 m 1,52,53
 706 -303 706 -303 679 -345 c 128,-1,54
 652 -387 652 -387 613 -387 c 0,55,56
 573 -387 573 -387 542 -346 c 128,-1,57
 511 -305 511 -305 511 -242 c 0,58,59
 511 -225 511 -225 522.5 -172 c 128,-1,60
 534 -119 534 -119 558 -43 c 2,61,-1
 605 109 l 1,62,-1
 656 -39 l 1,63,64
 704 -199 704 -199 706 -236 c 1,52,53
1123 924 m 1,65,66
 1111 743 1111 743 900 739 c 1,67,-1
 794 739 l 1,68,-1
 794 911 l 1,69,-1
 900 911 l 1,70,71
 1011 918 1011 918 1009 1010 c 1,72,73
 1009 1067 1009 1067 951 1155 c 1,74,-1
 992 1194 l 1,75,76
 1125 1073 1125 1073 1123 924 c 1,65,66
EndSplineSet
EndChar

StartChar: uni0CA8
Encoding: 3240 3240 236
Width: 1019
Flags: W
LayerCount: 2
Fore
SplineSet
988 287 m 1,0,1
 980 -6 980 -6 728 0 c 1,2,3
 611 -4 611 -4 562 63 c 1,4,5
 548 86 548 86 480 252 c 1,6,7
 462 299 462 299 421 323.5 c 128,-1,8
 380 348 380 348 325 348 c 0,9,10
 261 348 261 348 212 315.5 c 128,-1,11
 163 283 163 283 163 225 c 0,12,13
 163 129 163 129 271.5 85 c 128,-1,14
 380 41 380 41 380 6 c 0,15,16
 380 -31 380 -31 356.5 -48.5 c 128,-1,17
 333 -66 333 -66 298 -66 c 0,18,19
 222 -66 222 -66 151.5 43 c 128,-1,20
 81 152 81 152 81 281 c 0,21,22
 81 391 81 391 128 453 c 0,23,24
 185 528 185 528 298 528 c 0,25,26
 386 528 386 528 442.5 478 c 128,-1,27
 499 428 499 428 523.5 340 c 128,-1,28
 548 252 548 252 611 207 c 1,29,30
 665 170 665 170 736 170 c 0,31,32
 808 170 808 170 851 217 c 1,33,34
 872 242 872 242 884 274.5 c 128,-1,35
 896 307 896 307 896 350 c 0,36,37
 896 485 896 485 806 586 c 1,38,39
 734 657 734 657 595 737 c 1,40,-1
 89 737 l 1,41,-1
 89 911 l 1,42,-1
 826 911 l 1,43,-1
 826 737 l 1,44,-1
 745 737 l 1,45,46
 853 653 853 653 915 545 c 1,47,48
 988 428 988 428 988 287 c 1,0,1
974 924 m 1,49,50
 962 743 962 743 751 739 c 1,51,-1
 644 739 l 1,52,-1
 644 911 l 1,53,-1
 751 911 l 1,54,55
 861 918 861 918 859 1010 c 1,56,57
 859 1067 859 1067 802 1155 c 1,58,-1
 843 1194 l 1,59,60
 976 1073 976 1073 974 924 c 1,49,50
EndSplineSet
EndChar

StartChar: uni0CAA
Encoding: 3242 3242 237
Width: 1150
Flags: W
LayerCount: 2
Fore
SplineSet
1138 385 m 0,0,1
 1138 223 1138 223 1078 119 c 1,2,3
 1005 -2 1005 -2 863 -2 c 0,4,5
 740 -2 740 -2 663 94 c 0,6,7
 642 121 642 121 611 193 c 1,8,9
 611 129 611 129 538 55 c 1,10,11
 470 -2 470 -2 372 -2 c 0,12,13
 235 -2 235 -2 161 115 c 1,14,15
 99 207 99 207 99 334 c 0,16,17
 99 444 99 444 162.5 506.5 c 128,-1,18
 226 569 226 569 306 569 c 0,19,20
 382 569 382 569 435.5 520 c 128,-1,21
 489 471 489 471 489 387 c 0,22,23
 489 338 489 338 439 299 c 1,24,25
 396 268 396 268 347 268 c 0,26,27
 300 268 300 268 300 299 c 1,28,-1
 337 315 l 1,29,30
 376 340 376 340 376 387 c 0,31,32
 376 418 376 418 347.5 437.5 c 128,-1,33
 319 457 319 457 284 457 c 0,34,35
 243 457 243 457 214 429 c 128,-1,36
 185 401 185 401 185 342 c 0,37,38
 185 272 185 272 227 235.5 c 128,-1,39
 269 199 269 199 366 199 c 0,40,41
 495 199 495 199 564 281 c 1,42,43
 585 301 585 301 611 367 c 1,44,45
 632 307 632 307 656 281 c 0,46,47
 732 199 732 199 867 199 c 0,48,49
 958 199 958 199 1005 240 c 128,-1,50
 1052 281 1052 281 1052 348 c 0,51,52
 1052 455 1052 455 958 549 c 0,53,54
 933 575 933 575 917.5 601 c 128,-1,55
 902 627 902 627 902 653 c 0,56,57
 902 682 902 682 927 707 c 1,58,59
 949 725 949 725 972 729 c 1,60,61
 1037 729 1037 729 1087.5 620.5 c 128,-1,62
 1138 512 1138 512 1138 385 c 0,0,1
702 569 m 0,63,64
 702 524 702 524 673 494 c 0,65,66
 656 477 656 477 640 470 c 128,-1,67
 624 463 624 463 597 463 c 0,68,69
 552 463 552 463 521 494 c 1,70,71
 505 508 505 508 498 524.5 c 128,-1,72
 491 541 491 541 491 569 c 0,73,74
 491 616 491 616 521 647 c 1,75,76
 536 659 536 659 552 668.5 c 128,-1,77
 568 678 568 678 597 678 c 0,78,79
 642 678 642 678 673 647 c 1,80,81
 687 629 687 629 694.5 612.5 c 128,-1,82
 702 596 702 596 702 569 c 0,63,64
912 737 m 1,83,-1
 81 737 l 1,84,-1
 81 913 l 1,85,-1
 912 913 l 1,86,-1
 912 737 l 1,83,-1
1144 926 m 1,87,88
 1132 741 1132 741 921 737 c 1,89,-1
 814 737 l 1,90,-1
 814 913 l 1,91,-1
 921 913 l 1,92,93
 1031 920 1031 920 1029 1012 c 1,94,95
 1029 1071 1029 1071 972 1161 c 1,96,-1
 1013 1200 l 1,97,98
 1146 1077 1146 1077 1144 926 c 1,87,88
EndSplineSet
EndChar

StartChar: uni0CAB
Encoding: 3243 3243 238
Width: 1249
Flags: W
LayerCount: 2
Fore
SplineSet
1138 385 m 0,0,1
 1138 223 1138 223 1078 119 c 1,2,3
 1005 -2 1005 -2 863 -2 c 0,4,5
 740 -2 740 -2 663 94 c 0,6,7
 642 121 642 121 611 193 c 1,8,9
 611 129 611 129 538 55 c 1,10,11
 470 -2 470 -2 372 -2 c 0,12,13
 235 -2 235 -2 161 115 c 1,14,15
 99 207 99 207 99 334 c 0,16,17
 99 444 99 444 162.5 506.5 c 128,-1,18
 226 569 226 569 306 569 c 0,19,20
 382 569 382 569 435.5 520 c 128,-1,21
 489 471 489 471 489 387 c 0,22,23
 489 338 489 338 439 299 c 1,24,25
 396 268 396 268 347 268 c 0,26,27
 300 268 300 268 300 299 c 1,28,-1
 337 315 l 1,29,30
 376 340 376 340 376 387 c 0,31,32
 376 418 376 418 347.5 437.5 c 128,-1,33
 319 457 319 457 284 457 c 0,34,35
 243 457 243 457 214 429 c 128,-1,36
 185 401 185 401 185 342 c 0,37,38
 185 272 185 272 227 235.5 c 128,-1,39
 269 199 269 199 366 199 c 0,40,41
 495 199 495 199 564 281 c 1,42,43
 585 301 585 301 611 367 c 1,44,45
 632 307 632 307 656 281 c 0,46,47
 732 199 732 199 867 199 c 0,48,49
 958 199 958 199 1005 240 c 128,-1,50
 1052 281 1052 281 1052 348 c 0,51,52
 1052 455 1052 455 958 549 c 0,53,54
 933 575 933 575 917.5 601 c 128,-1,55
 902 627 902 627 902 653 c 0,56,57
 902 682 902 682 927 707 c 1,58,59
 949 725 949 725 972 729 c 1,60,61
 1037 729 1037 729 1087.5 620.5 c 128,-1,62
 1138 512 1138 512 1138 385 c 0,0,1
702 569 m 0,63,64
 702 524 702 524 673 494 c 0,65,66
 656 477 656 477 640 470 c 128,-1,67
 624 463 624 463 597 463 c 0,68,69
 552 463 552 463 521 494 c 1,70,71
 505 508 505 508 498 524.5 c 128,-1,72
 491 541 491 541 491 569 c 0,73,74
 491 616 491 616 521 647 c 1,75,76
 536 659 536 659 552 668.5 c 128,-1,77
 568 678 568 678 597 678 c 0,78,79
 642 678 642 678 673 647 c 1,80,81
 687 629 687 629 694.5 612.5 c 128,-1,82
 702 596 702 596 702 569 c 0,63,64
912 737 m 1,83,-1
 81 737 l 1,84,-1
 81 913 l 1,85,-1
 912 913 l 1,86,-1
 912 737 l 1,83,-1
1144 926 m 1,87,88
 1132 741 1132 741 921 737 c 1,89,-1
 814 737 l 1,90,-1
 814 913 l 1,91,-1
 921 913 l 1,92,93
 1031 920 1031 920 1029 1012 c 1,94,95
 1029 1071 1029 1071 972 1161 c 1,96,-1
 1013 1200 l 1,97,98
 1146 1077 1146 1077 1144 926 c 1,87,88
715 -236 m 1,99,100
 715 -303 715 -303 688 -345 c 128,-1,101
 661 -387 661 -387 622 -387 c 0,102,103
 582 -387 582 -387 551 -346 c 128,-1,104
 520 -305 520 -305 520 -242 c 0,105,106
 520 -225 520 -225 531.5 -172 c 128,-1,107
 543 -119 543 -119 567 -43 c 2,108,-1
 614 109 l 1,109,-1
 665 -39 l 1,110,111
 713 -199 713 -199 715 -236 c 1,99,100
EndSplineSet
EndChar

StartChar: uni0CAC
Encoding: 3244 3244 239
Width: 1249
Flags: W
LayerCount: 2
Fore
SplineSet
1166 377 m 1,0,1
 1150 2 1150 2 906 0 c 1,2,3
 783 0 783 0 699 94 c 1,4,5
 675 131 675 131 646 197 c 1,6,7
 616 133 616 133 585 96 c 0,8,9
 503 0 503 0 382 0 c 0,10,11
 271 0 271 0 197.5 71.5 c 128,-1,12
 124 143 124 143 124 250 c 0,13,14
 124 375 124 375 260 492.5 c 128,-1,15
 396 610 396 610 396 670 c 0,16,17
 396 731 396 731 380 760 c 0,18,19
 357 801 357 801 300 801 c 0,20,21
 202 801 202 801 202 705 c 0,22,23
 202 657 202 657 241 614 c 1,24,-1
 280 584 l 1,25,-1
 243 580 l 1,26,27
 179 580 179 580 136 614 c 1,28,29
 81 664 81 664 81 745 c 0,30,31
 81 844 81 844 135.5 901 c 128,-1,32
 190 958 190 958 288 958 c 0,33,34
 378 958 378 958 444.5 893.5 c 128,-1,35
 511 829 511 829 511 723 c 0,36,37
 511 639 511 639 333 473 c 1,38,39
 249 401 249 401 249 311 c 0,40,41
 249 258 249 258 284 227 c 0,42,43
 319 197 319 197 415 197 c 0,44,45
 530 197 530 197 595 291 c 0,46,47
 613 317 613 317 642 395 c 1,48,49
 667 332 667 332 691 293 c 1,50,51
 761 197 761 197 876 197 c 1,52,53
 1070 236 1070 236 1052 465 c 1,54,55
 1042 725 1042 725 724 739 c 1,56,57
 691 739 691 739 667.5 766 c 128,-1,58
 644 793 644 793 644 827 c 0,59,60
 644 866 644 866 667.5 888.5 c 128,-1,61
 691 911 691 911 736 911 c 0,62,63
 937 911 937 911 1048.5 767 c 128,-1,64
 1160 623 1160 623 1166 377 c 1,0,1
EndSplineSet
EndChar

StartChar: uni0CAD
Encoding: 3245 3245 240
Width: 1179
Flags: W
LayerCount: 2
Fore
SplineSet
1160 381 m 0,0,1
 1160 217 1160 217 1103 119 c 0,2,3
 1035 4 1035 4 904 4 c 0,4,5
 781 4 781 4 693 100 c 1,6,7
 671 129 671 129 636 199 c 1,8,9
 605 137 605 137 575 100 c 0,10,11
 497 4 497 4 376 4 c 0,12,13
 267 4 267 4 194.5 73.5 c 128,-1,14
 122 143 122 143 122 248 c 0,15,16
 122 367 122 367 256 482.5 c 128,-1,17
 390 598 390 598 390 657 c 0,18,19
 390 715 390 715 372 745 c 1,20,21
 347 782 347 782 292 782 c 0,22,23
 200 782 200 782 200 690 c 0,24,25
 200 643 200 643 237 604 c 1,26,-1
 276 571 l 1,27,-1
 239 567 l 1,28,29
 177 567 177 567 134 604 c 0,30,31
 81 651 81 651 81 731 c 0,32,33
 81 825 81 825 133 880.5 c 128,-1,34
 185 936 185 936 282 936 c 0,35,36
 370 936 370 936 434.5 873.5 c 128,-1,37
 499 811 499 811 499 709 c 0,38,39
 499 625 499 625 325 467 c 0,40,41
 243 393 243 393 243 309 c 0,42,43
 243 242 243 242 294 215 c 1,44,45
 331 199 331 199 407 199 c 0,46,47
 513 199 513 199 581 291 c 1,48,49
 605 319 605 319 628 383 c 1,50,51
 638 360 638 360 651.5 335.5 c 128,-1,52
 665 311 665 311 681 291 c 0,53,54
 755 199 755 199 874 199 c 0,55,56
 976 199 976 199 1032.5 252 c 128,-1,57
 1089 305 1089 305 1089 395 c 0,58,59
 1089 545 1089 545 1029 631 c 1,60,61
 978 727 978 727 912 737 c 1,62,-1
 755 737 l 1,63,-1
 755 911 l 1,64,-1
 1013 911 l 1,65,-1
 1013 760 l 1,66,67
 1064 709 1064 709 1112 593 c 128,-1,68
 1160 477 1160 477 1160 381 c 0,0,1
1162 924 m 1,69,70
 1150 743 1150 743 939 739 c 1,71,-1
 833 739 l 1,72,-1
 833 911 l 1,73,-1
 939 911 l 1,74,75
 1050 918 1050 918 1048 1010 c 1,76,77
 1048 1067 1048 1067 990 1155 c 1,78,-1
 1031 1194 l 1,79,80
 1164 1073 1164 1073 1162 924 c 1,69,70
738 -236 m 1,81,82
 738 -303 738 -303 711 -345 c 128,-1,83
 684 -387 684 -387 645 -387 c 0,84,85
 605 -387 605 -387 574 -346 c 128,-1,86
 543 -305 543 -305 543 -242 c 0,87,88
 543 -225 543 -225 554.5 -172 c 128,-1,89
 566 -119 566 -119 590 -43 c 2,90,-1
 637 109 l 1,91,-1
 688 -39 l 1,92,93
 736 -199 736 -199 738 -236 c 1,81,82
EndSplineSet
EndChar

StartChar: uni0CAE
Encoding: 3246 3246 241
Width: 1142
Flags: W
LayerCount: 2
Fore
SplineSet
1125 295 m 0,0,1
 1125 170 1125 170 1056.5 83 c 128,-1,2
 988 -4 988 -4 865 -4 c 0,3,4
 738 -4 738 -4 667 96 c 0,5,6
 644 129 644 129 622 205 c 1,7,8
 603 131 603 131 579 96 c 1,9,10
 501 -4 501 -4 364 -4 c 0,11,12
 226 -4 226 -4 153 104 c 0,13,14
 91 197 91 197 91 315 c 0,15,16
 91 432 91 432 159 498 c 0,17,18
 214 551 214 551 304 551 c 0,19,20
 372 551 372 551 427 503 c 128,-1,21
 482 455 482 455 482 377 c 0,22,23
 482 324 482 324 429 289 c 1,24,25
 388 256 388 256 339 256 c 256,26,27
 290 256 290 256 290 289 c 1,28,-1
 329 301 l 1,29,30
 368 324 368 324 368 365 c 0,31,32
 368 403 368 403 341 426 c 1,33,34
 325 444 325 444 290 449 c 1,35,36
 247 449 247 449 212 416 c 128,-1,37
 177 383 177 383 177 326 c 0,38,39
 177 260 177 260 237 225 c 1,40,41
 290 197 290 197 364 197 c 0,42,43
 501 197 501 197 577 301 c 1,44,45
 593 334 593 334 620 406 c 1,46,47
 638 336 638 336 665 301 c 1,48,49
 734 197 734 197 861 197 c 0,50,51
 941 197 941 197 988 245 c 128,-1,52
 1035 293 1035 293 1035 367 c 0,53,54
 1035 471 1035 471 943 575 c 1,55,56
 845 684 845 684 667 741 c 1,57,-1
 81 741 l 1,58,-1
 81 913 l 1,59,-1
 890 913 l 1,60,-1
 890 741 l 1,61,-1
 874 741 l 1,62,63
 984 672 984 672 1058 541 c 1,64,65
 1125 416 1125 416 1125 295 c 0,0,1
1121 926 m 1,66,67
 1109 745 1109 745 898 741 c 1,68,-1
 792 741 l 1,69,-1
 792 913 l 1,70,-1
 898 913 l 1,71,72
 1009 920 1009 920 1007 1012 c 1,73,74
 1007 1069 1007 1069 949 1157 c 1,75,-1
 990 1196 l 1,76,77
 1123 1075 1123 1075 1121 926 c 1,66,67
1784 399 m 1,78,79
 1788 227 1788 227 1704 111 c 1,80,81
 1637 10 1637 10 1485 -4 c 1,82,83
 1063 -8 1063 -8 1117 379 c 1,84,85
 1195 197 1195 197 1438 176 c 1,86,87
 1578 180 1578 180 1641 229 c 1,88,89
 1715 285 1715 285 1715 381 c 0,90,91
 1715 506 1715 506 1632 585 c 128,-1,92
 1549 664 1549 664 1383 709 c 1,93,94
 1354 719 1354 719 1338 741.5 c 128,-1,95
 1322 764 1322 764 1319 797 c 1,96,97
 1319 829 1319 829 1334.5 857 c 128,-1,98
 1350 885 1350 885 1391 885 c 0,99,100
 1520 885 1520 885 1645 741 c 1,101,102
 1784 590 1784 590 1784 399 c 1,78,79
EndSplineSet
EndChar

StartChar: uni0CAF
Encoding: 3247 3247 242
Width: 657
Flags: W
LayerCount: 2
Fore
SplineSet
756 471 m 0,0,1
 756 246 756 246 673 121 c 128,-1,2
 590 -4 590 -4 418 -4 c 0,3,4
 256 -4 256 -4 170 121 c 1,5,6
 125 184 125 184 103.5 270 c 128,-1,7
 82 356 82 356 82 471 c 0,8,9
 82 676 82 676 168 792.5 c 128,-1,10
 254 909 254 909 416 909 c 0,11,12
 584 909 584 909 670 793.5 c 128,-1,13
 756 678 756 678 756 471 c 0,0,1
682 459 m 0,14,15
 682 557 682 557 600 642 c 128,-1,16
 518 727 518 727 418 727 c 0,17,18
 315 727 315 727 235.5 644 c 128,-1,19
 156 561 156 561 156 459 c 0,20,21
 156 334 156 334 238 258 c 0,22,23
 309 193 309 193 418 193 c 0,24,25
 528 193 528 193 598 252 c 0,26,27
 682 324 682 324 682 459 c 0,14,15
2060 399 m 1,28,29
 2064 227 2064 227 1980 111 c 1,30,31
 1913 10 1913 10 1761 -4 c 1,32,33
 1339 -8 1339 -8 1393 379 c 1,34,35
 1471 197 1471 197 1714 176 c 1,36,37
 1854 180 1854 180 1917 229 c 1,38,39
 1991 285 1991 285 1991 381 c 0,40,41
 1991 506 1991 506 1908 585 c 128,-1,42
 1825 664 1825 664 1659 709 c 1,43,44
 1630 719 1630 719 1614 741.5 c 128,-1,45
 1598 764 1598 764 1595 797 c 1,46,47
 1595 829 1595 829 1610.5 857 c 128,-1,48
 1626 885 1626 885 1667 885 c 0,49,50
 1796 885 1796 885 1921 741 c 1,51,52
 2060 590 2060 590 2060 399 c 1,28,29
1393 399 m 1,53,54
 1397 225 1397 225 1313 109 c 1,55,56
 1243 8 1243 8 1088 -8 c 1,57,58
 696 -12 696 -12 752 379 c 1,59,60
 830 195 830 195 1040 174 c 1,61,62
 1294 172 1294 172 1321 381 c 1,63,64
 1337 670 1337 670 1049 723 c 1,65,-1
 981 723 l 1,66,-1
 981 899 l 1,67,-1
 1231 899 l 1,68,-1
 1231 725 l 1,69,70
 1393 592 1393 592 1393 399 c 1,53,54
1489 911 m 1,71,72
 1477 731 1477 731 1266 727 c 1,73,-1
 1159 727 l 1,74,-1
 1159 899 l 1,75,-1
 1266 899 l 1,76,77
 1376 905 1376 905 1374 997 c 1,78,79
 1374 1055 1374 1055 1317 1143 c 1,80,-1
 1358 1182 l 1,81,82
 1491 1061 1491 1061 1489 911 c 1,71,72
EndSplineSet
EndChar

StartChar: uni0CB0
Encoding: 3248 3248 243
Width: 657
Flags: W
LayerCount: 2
Fore
SplineSet
782 772 m 1,0,1
 881 688 881 688 915.5 612.5 c 128,-1,2
 950 537 950 537 950 418 c 0,3,4
 950 242 950 242 823 121 c 128,-1,5
 696 0 696 0 518 0 c 256,6,7
 340 0 340 0 211 120 c 128,-1,8
 82 240 82 240 82 418 c 0,9,10
 82 528 82 528 135 623 c 1,11,12
 180 700 180 700 238 735 c 1,13,-1
 82 735 l 1,14,-1
 82 911 l 1,15,-1
 782 911 l 1,16,-1
 782 772 l 1,0,1
811 455 m 0,17,18
 811 571 811 571 727 653 c 128,-1,19
 643 735 643 735 522 735 c 0,20,21
 397 735 397 735 314.5 653 c 128,-1,22
 232 571 232 571 232 455 c 0,23,24
 232 342 232 342 315.5 257 c 128,-1,25
 399 172 399 172 522 172 c 0,26,27
 643 172 643 172 727 256 c 128,-1,28
 811 340 811 340 811 455 c 0,17,18
950 924 m 1,29,30
 938 743 938 743 727 739 c 1,31,-1
 621 739 l 1,32,-1
 621 911 l 1,33,-1
 727 911 l 1,34,35
 838 918 838 918 836 1010 c 1,36,37
 836 1067 836 1067 778 1155 c 1,38,-1
 819 1194 l 1,39,40
 952 1073 952 1073 950 924 c 1,29,30
EndSplineSet
EndChar

StartChar: uni0CB1
Encoding: 3249 3249 244
Width: 1175
Flags: W
LayerCount: 2
Fore
SplineSet
1089 434 m 1,0,1
 1089 248 1089 248 1027 131 c 1,2,3
 955 2 955 2 822 2 c 0,4,5
 716 2 716 2 642 92 c 1,6,7
 624 119 624 119 587 184 c 1,8,9
 560 123 560 123 532 94 c 1,10,11
 458 2 458 2 357 2 c 0,12,13
 231 2 231 2 156 142.5 c 128,-1,14
 81 283 81 283 81 465 c 0,15,16
 81 565 81 565 95.5 633.5 c 128,-1,17
 110 702 110 702 142.5 768 c 128,-1,18
 175 834 175 834 225.5 868.5 c 128,-1,19
 276 903 276 903 333 903 c 0,20,21
 415 903 415 903 461 837.5 c 128,-1,22
 507 772 507 772 507 676 c 0,23,24
 507 590 507 590 462 523.5 c 128,-1,25
 417 457 417 457 337 457 c 1,26,27
 226 475 226 475 210 606 c 1,28,-1
 179 543 l 1,29,30
 155 465 155 465 155 420 c 0,31,32
 155 322 155 322 204 258 c 1,33,34
 263 184 263 184 374 184 c 0,35,36
 468 184 468 184 540 268 c 1,37,38
 560 295 560 295 587 356 c 1,39,40
 605 324 605 324 616.5 305.5 c 128,-1,41
 628 287 628 287 640 272 c 0,42,43
 710 184 710 184 810 184 c 0,44,45
 917 184 917 184 966 259 c 128,-1,46
 1015 334 1015 334 1015 440 c 1,47,48
 1007 606 1007 606 939 668 c 1,49,50
 939 600 939 600 906 549 c 1,51,52
 865 477 865 477 779 477 c 0,53,54
 702 477 702 477 653.5 545.5 c 128,-1,55
 605 614 605 614 605 700 c 256,56,57
 605 786 605 786 652 847.5 c 128,-1,58
 699 909 699 909 790 909 c 1,59,60
 925 911 925 911 1029 729 c 1,61,62
 1093 586 1093 586 1089 434 c 1,0,1
865 727 m 1,63,-1
 847 737 l 1,64,65
 822 748 822 748 788 752 c 1,66,67
 738 752 738 752 713.5 733.5 c 128,-1,68
 689 715 689 715 685 682 c 1,69,70
 685 655 685 655 700.5 636.5 c 128,-1,71
 716 618 716 618 747 614 c 1,72,73
 829 614 829 614 853 670 c 1,74,-1
 865 727 l 1,63,-1
427 682 m 1,75,76
 427 707 427 707 406.5 726 c 128,-1,77
 386 745 386 745 355 745 c 0,78,79
 331 745 331 745 310.5 739 c 128,-1,80
 290 733 290 733 276 719 c 1,81,82
 265 713 265 713 255 690 c 1,83,84
 247 655 247 655 265.5 632.5 c 128,-1,85
 284 610 284 610 333 610 c 0,86,87
 380 610 380 610 401.5 631.5 c 128,-1,88
 423 653 423 653 427 682 c 1,75,76
216 375 m 1,89,-1
 216 485 l 1,90,-1
 945 485 l 1,91,-1
 945 375 l 1,92,-1
 216 375 l 1,89,-1
EndSplineSet
EndChar

StartChar: uni0CB2
Encoding: 3250 3250 245
Width: 1142
Flags: W
LayerCount: 2
Fore
SplineSet
1091 485 m 0,0,1
 1091 272 1091 272 942.5 138 c 128,-1,2
 794 4 794 4 573 4 c 0,3,4
 366 4 366 4 233 121 c 0,5,6
 81 256 81 256 81 485 c 0,7,8
 81 678 81 678 173 799 c 1,9,10
 257 903 257 903 374 903 c 0,11,12
 464 903 464 903 525.5 844.5 c 128,-1,13
 587 786 587 786 587 670 c 0,14,15
 587 573 587 573 533.5 515 c 128,-1,16
 480 457 480 457 411 457 c 0,17,18
 341 457 341 457 293 506 c 128,-1,19
 245 555 245 555 245 645 c 0,20,21
 245 674 245 674 249 688 c 1,22,23
 204 645 204 645 179 592 c 1,24,25
 163 535 163 535 163 483 c 0,26,27
 163 332 163 332 282 258 c 0,28,29
 388 193 388 193 573 193 c 1,30,31
 925 213 925 213 982 483 c 1,32,33
 978 721 978 721 816 743 c 1,34,35
 783 743 783 743 755 766 c 1,36,37
 732 791 732 791 732 825 c 0,38,39
 732 860 732 860 755.5 883.5 c 128,-1,40
 779 907 779 907 822 907 c 0,41,42
 937 907 937 907 1014 787.5 c 128,-1,43
 1091 668 1091 668 1091 485 c 0,0,1
513 670 m 0,44,45
 513 707 513 707 481.5 724 c 128,-1,46
 450 741 450 741 411 741 c 1,47,-1
 376 739 l 1,48,49
 357 739 357 739 339 733 c 1,50,51
 321 713 321 713 321 670 c 0,52,53
 321 637 321 637 345.5 617.5 c 128,-1,54
 370 598 370 598 403 598 c 0,55,56
 446 598 446 598 479.5 617.5 c 128,-1,57
 513 637 513 637 513 670 c 0,44,45
EndSplineSet
EndChar

StartChar: uni0CB3
Encoding: 3251 3251 246
Width: 909
Flags: W
LayerCount: 2
Fore
SplineSet
906 537 m 1,0,1
 906 451 906 451 843 387 c 1,2,3
 783 334 783 334 695 317 c 1,4,-1
 638 317 l 1,5,-1
 697 285 l 1,6,7
 745 248 745 248 745 195 c 0,8,9
 745 111 745 111 669 49 c 1,10,11
 603 0 603 0 523 0 c 256,12,13
 443 0 443 0 378 45 c 1,14,15
 298 94 298 94 298 178 c 0,16,17
 298 231 298 231 353 272 c 1,18,-1
 409 299 l 1,19,-1
 384 299 l 2,20,21
 355 299 355 299 331 307 c 1,22,23
 204 334 204 334 149 399 c 1,24,25
 81 475 81 475 81 629 c 0,26,27
 81 758 81 758 153 840 c 1,28,29
 218 907 218 907 304 907 c 0,30,31
 368 907 368 907 412 863 c 128,-1,32
 456 819 456 819 456 733 c 256,33,34
 456 647 456 647 415 602 c 128,-1,35
 374 557 374 557 314 557 c 0,36,37
 261 557 261 557 219 593 c 128,-1,38
 177 629 177 629 177 692 c 1,39,-1
 167 668 l 2,40,41
 155 639 155 639 155 606 c 0,42,43
 155 532 155 532 224 496 c 1,44,-1
 362 449 l 1,45,-1
 437 426 l 1,46,-1
 507 420 l 1,47,48
 540 420 540 420 558 424 c 2,49,-1
 609 438 l 1,50,-1
 652 453 l 1,51,52
 716 471 716 471 768 512 c 128,-1,53
 820 553 820 553 820 602 c 1,54,55
 816 684 816 684 749 737 c 1,56,-1
 548 737 l 1,57,-1
 548 911 l 1,58,-1
 767 911 l 1,59,-1
 767 776 l 1,60,61
 912 727 912 727 906 537 c 1,0,1
384 707 m 0,62,63
 384 735 384 735 360.5 751.5 c 128,-1,64
 337 768 337 768 308 768 c 1,65,-1
 265 762 l 1,66,67
 251 762 251 762 239 748 c 1,68,-1
 241 725 l 1,69,70
 241 698 241 698 263.5 677.5 c 128,-1,71
 286 657 286 657 314 657 c 0,72,73
 337 657 337 657 360.5 669.5 c 128,-1,74
 384 682 384 682 384 707 c 0,62,63
659 217 m 0,75,76
 659 272 659 272 579 299 c 1,77,-1
 527 309 l 1,78,79
 472 295 472 295 462 289 c 0,80,81
 409 262 409 262 409 215 c 0,82,83
 409 180 409 180 450 157.5 c 128,-1,84
 491 135 491 135 532 135 c 0,85,86
 570 135 570 135 614.5 157.5 c 128,-1,87
 659 180 659 180 659 217 c 0,75,76
947 924 m 1,88,89
 935 743 935 743 724 739 c 1,90,-1
 618 739 l 1,91,-1
 618 911 l 1,92,-1
 724 911 l 1,93,94
 835 918 835 918 833 1010 c 1,95,96
 833 1067 833 1067 775 1155 c 1,97,-1
 816 1194 l 1,98,99
 949 1073 949 1073 947 924 c 1,88,89
EndSplineSet
EndChar

StartChar: uni0CB5
Encoding: 3253 3253 247
Width: 1142
Flags: W
LayerCount: 2
Fore
SplineSet
1125 295 m 0,0,1
 1125 170 1125 170 1056.5 83 c 128,-1,2
 988 -4 988 -4 865 -4 c 0,3,4
 738 -4 738 -4 667 96 c 0,5,6
 644 129 644 129 622 205 c 1,7,8
 603 131 603 131 579 96 c 1,9,10
 501 -4 501 -4 364 -4 c 0,11,12
 226 -4 226 -4 153 104 c 0,13,14
 91 197 91 197 91 315 c 0,15,16
 91 432 91 432 159 498 c 0,17,18
 214 551 214 551 304 551 c 0,19,20
 372 551 372 551 427 503 c 128,-1,21
 482 455 482 455 482 377 c 0,22,23
 482 324 482 324 429 289 c 1,24,25
 388 256 388 256 339 256 c 256,26,27
 290 256 290 256 290 289 c 1,28,-1
 329 301 l 1,29,30
 368 324 368 324 368 365 c 0,31,32
 368 403 368 403 341 426 c 1,33,34
 325 444 325 444 290 449 c 1,35,36
 247 449 247 449 212 416 c 128,-1,37
 177 383 177 383 177 326 c 0,38,39
 177 260 177 260 237 225 c 1,40,41
 290 197 290 197 364 197 c 0,42,43
 501 197 501 197 577 301 c 1,44,45
 593 334 593 334 620 406 c 1,46,47
 638 336 638 336 665 301 c 1,48,49
 734 197 734 197 861 197 c 0,50,51
 941 197 941 197 988 245 c 128,-1,52
 1035 293 1035 293 1035 367 c 0,53,54
 1035 471 1035 471 943 575 c 1,55,56
 845 684 845 684 667 741 c 1,57,-1
 81 741 l 1,58,-1
 81 913 l 1,59,-1
 890 913 l 1,60,-1
 890 741 l 1,61,-1
 874 741 l 1,62,63
 984 672 984 672 1058 541 c 1,64,65
 1125 416 1125 416 1125 295 c 0,0,1
1121 926 m 1,66,67
 1109 745 1109 745 898 741 c 1,68,-1
 792 741 l 1,69,-1
 792 913 l 1,70,-1
 898 913 l 1,71,72
 1009 920 1009 920 1007 1012 c 1,73,74
 1007 1069 1007 1069 949 1157 c 1,75,-1
 990 1196 l 1,76,77
 1123 1075 1123 1075 1121 926 c 1,66,67
EndSplineSet
EndChar

StartChar: uni0CB6
Encoding: 3254 3254 248
Width: 974
Flags: W
LayerCount: 2
Fore
SplineSet
943 408 m 0,0,1
 943 201 943 201 794 94 c 1,2,3
 663 4 663 4 421 4 c 0,4,5
 263 4 263 4 177 57 c 1,6,7
 81 119 81 119 81 240 c 0,8,9
 81 360 81 360 161 406 c 1,10,11
 210 432 210 432 341 432 c 2,12,-1
 407 432 l 2,13,14
 480 432 480 432 531.5 492.5 c 128,-1,15
 583 553 583 553 583 606 c 0,16,17
 583 666 583 666 547 700.5 c 128,-1,18
 511 735 511 735 431 737 c 0,19,20
 368 739 368 739 328 714.5 c 128,-1,21
 288 690 288 690 288 649 c 0,22,23
 288 618 288 618 308.5 587.5 c 128,-1,24
 329 557 329 557 364 557 c 0,25,26
 398 557 398 557 421 565 c 1,27,-1
 437 580 l 1,28,29
 407 586 407 586 394 594 c 1,30,31
 349 616 349 616 349 649 c 0,32,33
 349 678 349 678 367.5 699.5 c 128,-1,34
 386 721 386 721 421 721 c 0,35,36
 462 721 462 721 484 694 c 1,37,38
 511 668 511 668 511 629 c 0,39,40
 511 584 511 584 475 545 c 128,-1,41
 439 506 439 506 382 506 c 0,42,43
 308 506 308 506 263 545 c 1,44,45
 220 588 220 588 220 645 c 0,46,47
 220 705 220 705 241 737 c 1,48,-1
 95 737 l 1,49,-1
 95 913 l 1,50,-1
 736 913 l 1,51,-1
 736 784 l 1,52,53
 775 750 775 750 849 666 c 1,54,55
 943 549 943 549 943 408 c 0,0,1
822 475 m 0,56,57
 822 580 822 580 743 659 c 1,58,59
 689 709 689 709 607 741 c 1,60,61
 630 711 630 711 642 674 c 1,62,63
 650 655 650 655 654.5 638 c 128,-1,64
 659 621 659 621 659 598 c 0,65,66
 659 494 659 494 583 424 c 128,-1,67
 507 354 507 354 407 354 c 2,68,-1
 280 354 l 2,69,70
 190 354 190 354 190 279 c 0,71,72
 190 225 190 225 245 199 c 1,73,74
 304 176 304 176 429 176 c 0,75,76
 642 176 642 176 724 233 c 1,77,78
 822 299 822 299 822 475 c 0,56,57
953 924 m 1,79,80
 941 743 941 743 730 739 c 1,81,-1
 624 739 l 1,82,-1
 624 911 l 1,83,-1
 730 911 l 1,84,85
 841 918 841 918 839 1010 c 1,86,87
 839 1067 839 1067 781 1155 c 1,88,-1
 822 1194 l 1,89,90
 955 1073 955 1073 953 924 c 1,79,80
EndSplineSet
EndChar

StartChar: uni0CB7
Encoding: 3255 3255 249
Width: 1134
Flags: W
LayerCount: 2
Fore
SplineSet
1167 49 m 1,0,1
 1179 35 1179 35 1185 6 c 1,2,3
 1185 -29 1185 -29 1153 -53 c 1,4,5
 1142 -59 1142 -59 1116 -66 c 1,6,7
 1083 -66 1083 -66 1056 -35 c 2,8,-1
 981 49 l 1,9,-1
 933 31 l 1,10,11
 872 6 872 6 839 6 c 0,12,13
 716 6 716 6 643 104 c 1,14,15
 620 131 620 131 591 205 c 1,16,17
 591 139 591 139 512 63 c 1,18,19
 446 6 446 6 350 6 c 0,20,21
 206 6 206 6 135 121 c 1,22,23
 79 215 79 215 79 344 c 0,24,25
 79 449 79 449 141.5 513.5 c 128,-1,26
 204 578 204 578 286 578 c 0,27,28
 360 578 360 578 413.5 528.5 c 128,-1,29
 467 479 467 479 467 395 c 0,30,31
 467 344 467 344 417 307 c 0,32,33
 374 276 374 276 327 276 c 256,34,35
 280 276 280 276 280 307 c 1,36,-1
 317 324 l 1,37,38
 354 348 354 348 354 395 c 0,39,40
 354 424 354 424 327.5 444.5 c 128,-1,41
 301 465 301 465 262 465 c 0,42,43
 221 465 221 465 191 436.5 c 128,-1,44
 161 408 161 408 161 350 c 0,45,46
 161 283 161 283 205 244 c 128,-1,47
 249 205 249 205 348 205 c 0,48,49
 399 205 399 205 440 216 c 128,-1,50
 481 227 481 227 518 257 c 128,-1,51
 555 287 555 287 574 316.5 c 128,-1,52
 593 346 593 346 593 379 c 1,53,54
 606 344 606 344 616 326 c 0,55,56
 679 205 679 205 843 205 c 1,57,-1
 651 457 l 1,58,-1
 710 498 l 1,59,-1
 970 238 l 1,60,-1
 997 264 l 1,61,62
 1030 305 1030 305 1030 356 c 0,63,64
 1030 401 1030 401 1005 446 c 1,65,66
 991 469 991 469 978.5 485.5 c 128,-1,67
 966 502 966 502 937.5 532.5 c 128,-1,68
 909 563 909 563 895.5 587.5 c 128,-1,69
 882 612 882 612 882 639 c 0,70,71
 882 668 882 668 907 692 c 1,72,73
 925 711 925 711 950 713 c 1,74,75
 1015 713 1015 713 1064.5 615.5 c 128,-1,76
 1114 518 1114 518 1114 393 c 0,77,78
 1114 295 1114 295 1089 211 c 1,79,-1
 1062 147 l 1,80,-1
 1167 49 l 1,0,1
682 569 m 0,81,82
 682 524 682 524 653 494 c 0,83,84
 636 477 636 477 620 470 c 128,-1,85
 604 463 604 463 577 463 c 0,86,87
 532 463 532 463 501 494 c 1,88,89
 485 508 485 508 478 524.5 c 128,-1,90
 471 541 471 541 471 569 c 0,91,92
 471 616 471 616 501 647 c 1,93,94
 516 659 516 659 532 668.5 c 128,-1,95
 548 678 548 678 577 678 c 0,96,97
 622 678 622 678 653 647 c 1,98,99
 667 629 667 629 674.5 612.5 c 128,-1,100
 682 596 682 596 682 569 c 0,81,82
825 737 m 1,101,-1
 61 737 l 1,102,-1
 61 909 l 1,103,-1
 825 909 l 1,104,-1
 825 737 l 1,101,-1
1118 922 m 1,105,106
 1106 741 1106 741 895 737 c 1,107,-1
 789 737 l 1,108,-1
 789 909 l 1,109,-1
 895 909 l 1,110,111
 1006 916 1006 916 1004 1008 c 1,112,113
 1004 1065 1004 1065 946 1153 c 1,114,-1
 987 1192 l 1,115,116
 1120 1071 1120 1071 1118 922 c 1,105,106
EndSplineSet
EndChar

StartChar: uni0CB8
Encoding: 3256 3256 250
Width: 993
Flags: W
LayerCount: 2
Fore
SplineSet
968 332 m 0,0,1
 968 205 968 205 915 106 c 1,2,3
 853 -2 853 -2 757 -2 c 0,4,5
 690 -2 690 -2 628.5 138.5 c 128,-1,6
 567 279 567 279 423 274 c 1,7,8
 278 274 278 274 206 199 c 1,9,10
 157 143 157 143 157 63 c 1,11,-1
 163 4 l 1,12,13
 128 29 128 29 102 72 c 1,14,15
 83 119 83 119 83 166 c 0,16,17
 83 274 83 274 163 358 c 1,18,19
 247 453 247 453 409 453 c 1,20,21
 587 455 587 455 639.5 319.5 c 128,-1,22
 692 184 692 184 763 176 c 1,23,24
 802 186 802 186 829 244 c 1,25,26
 847 291 847 291 847 373 c 0,27,28
 847 465 847 465 823 567 c 1,29,-1
 796 664 l 1,30,31
 866 664 866 664 921 541 c 1,32,33
 941 489 941 489 954.5 433 c 128,-1,34
 968 377 968 377 968 332 c 0,0,1
685 569 m 0,35,36
 685 524 685 524 657 494 c 0,37,38
 640 477 640 477 624 470 c 128,-1,39
 608 463 608 463 581 463 c 0,40,41
 536 463 536 463 505 494 c 1,42,43
 489 508 489 508 482 524.5 c 128,-1,44
 475 541 475 541 475 569 c 0,45,46
 475 616 475 616 505 647 c 1,47,48
 520 659 520 659 536 668.5 c 128,-1,49
 552 678 552 678 581 678 c 0,50,51
 626 678 626 678 657 647 c 1,52,53
 671 629 671 629 678 612.5 c 128,-1,54
 685 596 685 596 685 569 c 0,35,36
800 737 m 1,55,-1
 69 737 l 1,56,-1
 69 911 l 1,57,-1
 800 911 l 1,58,-1
 800 737 l 1,55,-1
1005 924 m 1,59,60
 993 743 993 743 782 739 c 1,61,-1
 675 739 l 1,62,-1
 675 911 l 1,63,-1
 782 911 l 1,64,65
 892 918 892 918 890 1010 c 1,66,67
 890 1067 890 1067 833 1155 c 1,68,-1
 874 1194 l 1,69,70
 1007 1073 1007 1073 1005 924 c 1,59,60
EndSplineSet
EndChar

StartChar: uni0CB9
Encoding: 3257 3257 251
Width: 1204
Flags: W
LayerCount: 2
Fore
SplineSet
1199 309 m 0,0,1
 1199 195 1199 195 1119 97.5 c 128,-1,2
 1039 0 1039 0 902 0 c 0,3,4
 808 0 808 0 736 55 c 0,5,6
 687 92 687 92 644 156 c 1,7,8
 620 100 620 100 562 59 c 1,9,10
 484 0 484 0 376 0 c 0,11,12
 241 0 241 0 159 96 c 0,13,14
 89 178 89 178 89 301 c 0,15,16
 89 422 89 422 159 504 c 0,17,18
 239 596 239 596 378 596 c 0,19,20
 491 596 491 596 562 518 c 0,21,22
 585 494 585 494 611 440 c 1,23,24
 611 561 611 561 534 655 c 0,25,26
 466 739 466 739 362 735 c 1,27,-1
 81 735 l 1,28,-1
 81 907 l 1,29,-1
 943 907 l 1,30,-1
 943 735 l 1,31,-1
 548 735 l 1,32,33
 568 731 568 731 629.5 619.5 c 128,-1,34
 691 508 691 508 691 459 c 1,35,36
 704 487 704 487 738 520 c 1,37,38
 802 592 802 592 896 592 c 0,39,40
 1042 592 1042 592 1128 504 c 1,41,42
 1199 424 1199 424 1199 309 c 0,0,1
616 305 m 1,43,44
 591 367 591 367 570 401 c 1,45,46
 503 496 503 496 392 496 c 0,47,48
 308 496 308 496 264 443.5 c 128,-1,49
 220 391 220 391 220 324 c 0,50,51
 220 254 220 254 265 203 c 1,52,53
 317 154 317 154 394 154 c 0,54,55
 491 154 491 154 562 229 c 0,56,57
 575 244 575 244 587 262.5 c 128,-1,58
 599 281 599 281 616 305 c 1,43,44
1082 319 m 0,59,60
 1082 387 1082 387 1037 438 c 128,-1,61
 992 489 992 489 908 489 c 0,62,63
 808 489 808 489 747 403 c 1,64,65
 734 379 734 379 710 317 c 1,66,67
 722 258 722 258 743 233 c 1,68,69
 796 152 796 152 910 152 c 0,70,71
 988 152 988 152 1035 201 c 128,-1,72
 1082 250 1082 250 1082 319 c 0,59,60
1199 920 m 1,73,74
 1187 739 1187 739 976 735 c 1,75,-1
 869 735 l 1,76,-1
 869 907 l 1,77,-1
 976 907 l 1,78,79
 1087 913 1087 913 1085 1006 c 1,80,81
 1085 1063 1085 1063 1027 1151 c 1,82,-1
 1068 1190 l 1,83,84
 1201 1069 1201 1069 1199 920 c 1,73,74
EndSplineSet
EndChar

StartChar: uni0CBC
Encoding: 3260 3260 252
Width: 702
Flags: W
LayerCount: 2
Fore
SplineSet
444 -181 m 0,0,1
 444 -231 444 -231 411 -260.5 c 128,-1,2
 378 -290 378 -290 325 -290 c 0,3,4
 276 -290 276 -290 242 -261.5 c 128,-1,5
 208 -233 208 -233 208 -181 c 0,6,7
 208 -124 208 -124 243 -94.5 c 128,-1,8
 278 -65 278 -65 325 -65 c 256,9,10
 372 -65 372 -65 408 -95.5 c 128,-1,11
 444 -126 444 -126 444 -181 c 0,0,1
1024 -181 m 0,12,13
 1024 -231 1024 -231 991 -260.5 c 128,-1,14
 958 -290 958 -290 905 -290 c 0,15,16
 856 -290 856 -290 822 -261.5 c 128,-1,17
 788 -233 788 -233 788 -181 c 0,18,19
 788 -124 788 -124 823 -94.5 c 128,-1,20
 858 -65 858 -65 905 -65 c 256,21,22
 952 -65 952 -65 988 -95.5 c 128,-1,23
 1024 -126 1024 -126 1024 -181 c 0,12,13
EndSplineSet
EndChar

StartChar: uni0CBD
Encoding: 3261 3261 253
Width: 702
Flags: W
LayerCount: 2
Fore
SplineSet
92 297 m 1,0,1
 171 75 171 75 450 60 c 1,2,3
 530 63 530 63 581 83 c 128,-1,4
 632 103 632 103 657 137.5 c 128,-1,5
 682 172 682 172 687 237 c 1,6,7
 682 295 682 295 658 326 c 128,-1,8
 634 357 634 357 579 378 c 0,9,10
 543 392 543 392 421.5 421 c 128,-1,11
 300 450 300 450 251 476 c 0,12,13
 188 509 188 509 157 558 c 128,-1,14
 126 607 126 607 126 668 c 0,15,16
 126 735 126 735 164 793 c 128,-1,17
 202 851 202 851 279.5 883.5 c 128,-1,18
 357 916 357 916 728 912 c 1,19,-1
 729 804 l 1,20,21
 372 813 372 813 305 772 c 128,-1,22
 238 731 238 731 238 676 c 0,23,24
 238 629 238 629 273 598 c 1,25,26
 306 567 306 567 448.5 535 c 128,-1,27
 591 503 591 503 644 479 c 0,28,29
 722 443 722 443 758.5 388.5 c 128,-1,30
 795 334 795 334 795 263 c 256,31,32
 795 192 795 192 754.5 130 c 128,-1,33
 714 68 714 68 638.5 33 c 128,-1,34
 563 -2 563 -2 438 -3 c 1,35,36
 349 -2 349 -2 268 33 c 128,-1,37
 187 68 187 68 140.5 138.5 c 128,-1,38
 94 209 94 209 92 297 c 1,0,1
EndSplineSet
EndChar

StartChar: uni0CBE
Encoding: 3262 3262 254
Width: 733
Flags: W
LayerCount: 2
Fore
SplineSet
721 395 m 0,0,1
 721 231 721 231 645 121 c 1,2,3
 559 0 559 0 420 0 c 0,4,5
 283 0 283 0 217 98 c 1,6,7
 164 174 164 174 164 295 c 0,8,9
 164 406 164 406 223.5 464 c 128,-1,10
 283 522 283 522 371 522 c 0,11,12
 439 522 439 522 478.5 474 c 128,-1,13
 518 426 518 426 518 369 c 0,14,15
 518 322 518 322 490.5 288 c 128,-1,16
 463 254 463 254 410 254 c 0,17,18
 367 254 367 254 338 276 c 1,19,20
 314 301 314 301 314 338 c 0,21,22
 314 367 314 367 331 390.5 c 128,-1,23
 348 414 348 414 379 414 c 0,24,25
 402 414 402 414 416 403 c 2,26,-1
 430 393 l 1,27,28
 430 455 430 455 365 455 c 0,29,30
 318 455 318 455 277 419 c 128,-1,31
 236 383 236 383 236 328 c 0,32,33
 236 268 236 268 273 217 c 1,34,35
 324 150 324 150 422 150 c 0,36,37
 529 150 529 150 591.5 220.5 c 128,-1,38
 654 291 654 291 654 393 c 0,39,40
 654 526 654 526 570 627 c 1,41,42
 475 735 475 735 314 737 c 1,43,-1
 -266 737 l 1,44,-1
 -266 911 l 1,45,-1
 248 911 l 1,46,47
 475 907 475 907 606 741 c 0,48,49
 721 596 721 596 721 395 c 0,0,1
EndSplineSet
EndChar

StartChar: uni0CBF
Encoding: 3263 3263 255
Width: 202
Flags: W
LayerCount: 2
Fore
SplineSet
154 1047 m 1,0,1
 150 911 150 911 82 819 c 1,2,3
 23 760 23 760 -104 723 c 1,4,-1
 -123 776 l 1,5,6
 33 825 33 825 52 934 c 1,7,-1
 21 930 l 1,8,-1
 -16 924 l 1,9,10
 -67 924 -67 924 -102 954 c 0,11,12
 -143 989 -143 989 -143 1051 c 0,13,14
 -143 1124 -143 1124 -99 1168 c 128,-1,15
 -55 1212 -55 1212 2 1212 c 0,16,17
 62 1212 62 1212 108 1167 c 128,-1,18
 154 1122 154 1122 154 1047 c 1,0,1
45 1040 m 1,19,20
 45 1069 45 1069 28 1089.5 c 128,-1,21
 11 1110 11 1110 -24 1110 c 0,22,23
 -47 1110 -47 1110 -61 1092.5 c 128,-1,24
 -75 1075 -75 1075 -75 1051 c 0,25,26
 -75 1028 -75 1028 -62 1013.5 c 128,-1,27
 -49 999 -49 999 -22 999 c 0,28,29
 0 999 0 999 20.5 1010.5 c 128,-1,30
 41 1022 41 1022 45 1040 c 1,19,20
EndSplineSet
EndChar

StartChar: uni0CC0
Encoding: 3264 3264 256
Width: 649
Flags: W
LayerCount: 2
Fore
SplineSet
662 0 m 1,0,-1
 379 0 l 1,1,2
 260 72 260 72 195.5 216 c 128,-1,3
 131 360 131 360 131 508 c 0,4,5
 131 674 131 674 206 791.5 c 128,-1,6
 281 909 281 909 408 909 c 0,7,8
 510 909 510 909 566 840 c 1,9,10
 615 784 615 784 615 690 c 0,11,12
 615 604 615 604 562.5 530.5 c 128,-1,13
 510 457 510 457 428 457 c 256,14,15
 346 457 346 457 303 514 c 128,-1,16
 260 571 260 571 260 662 c 2,17,-1
 260 678 l 1,18,19
 213 610 213 610 213 508 c 0,20,21
 213 358 213 358 320 221 c 1,22,23
 445 66 445 66 662 0 c 1,0,-1
539 684 m 256,24,25
 539 719 539 719 514.5 743.5 c 128,-1,26
 490 768 490 768 430 768 c 0,27,28
 400 768 400 768 369 756 c 1,29,30
 355 752 355 752 336 739 c 1,31,32
 336 678 336 678 359.5 641 c 128,-1,33
 383 604 383 604 445 604 c 0,34,35
 482 604 482 604 510.5 626.5 c 128,-1,36
 539 649 539 649 539 684 c 256,24,25
154 1047 m 1,37,38
 150 911 150 911 82 819 c 1,39,40
 23 760 23 760 -104 723 c 1,41,-1
 -123 776 l 1,42,43
 33 825 33 825 52 934 c 1,44,-1
 21 930 l 1,45,-1
 -16 924 l 1,46,47
 -67 924 -67 924 -102 954 c 0,48,49
 -143 989 -143 989 -143 1051 c 0,50,51
 -143 1124 -143 1124 -99 1168 c 128,-1,52
 -55 1212 -55 1212 2 1212 c 0,53,54
 62 1212 62 1212 108 1167 c 128,-1,55
 154 1122 154 1122 154 1047 c 1,37,38
45 1040 m 1,56,57
 45 1069 45 1069 28 1089.5 c 128,-1,58
 11 1110 11 1110 -24 1110 c 0,59,60
 -47 1110 -47 1110 -61 1092.5 c 128,-1,61
 -75 1075 -75 1075 -75 1051 c 0,62,63
 -75 1028 -75 1028 -62 1013.5 c 128,-1,64
 -49 999 -49 999 -22 999 c 0,65,66
 0 999 0 999 20.5 1010.5 c 128,-1,67
 41 1022 41 1022 45 1040 c 1,56,57
EndSplineSet
EndChar

StartChar: uni0CC1
Encoding: 3265 3265 257
Width: 622
Flags: W
LayerCount: 2
Fore
SplineSet
586 414 m 1,0,1
 590 238 590 238 506 117 c 0,2,3
 435 16 435 16 279 0 c 1,4,5
 -151 -4 -151 -4 -96 393 c 1,6,7
 -16 205 -16 205 232 184 c 1,8,9
 375 190 375 190 441 240 c 0,10,11
 515 295 515 295 515 395 c 0,12,13
 515 522 515 522 430 603 c 128,-1,14
 345 684 345 684 177 729 c 1,15,16
 146 739 146 739 129.5 761.5 c 128,-1,17
 113 784 113 784 111 819 c 1,18,19
 111 852 111 852 126.5 880.5 c 128,-1,20
 142 909 142 909 185 909 c 0,21,22
 316 909 316 909 445 762 c 1,23,24
 586 606 586 606 586 414 c 1,0,1
EndSplineSet
EndChar

StartChar: uni0CC2
Encoding: 3266 3266 258
Width: 1032
Flags: W
LayerCount: 2
Fore
SplineSet
967 399 m 0,0,1
 967 186 967 186 896.5 93 c 128,-1,2
 826 0 826 0 670 0 c 0,3,4
 562 0 562 0 491.5 96.5 c 128,-1,5
 421 193 421 193 421 324 c 0,6,7
 421 418 421 418 474 471 c 0,8,9
 521 518 521 518 587 518 c 0,10,11
 646 518 646 518 687 483 c 0,12,13
 732 446 732 446 732 387 c 0,14,15
 732 336 732 336 704.5 310.5 c 128,-1,16
 677 285 677 285 638 285 c 0,17,18
 605 285 605 285 578 303 c 1,19,20
 554 330 554 330 554 365 c 0,21,22
 554 383 554 383 570 412 c 1,23,-1
 580 424 l 1,24,25
 552 420 552 420 539 414 c 0,26,27
 492 391 492 391 492 332 c 0,28,29
 492 279 492 279 548 225 c 1,30,31
 601 178 601 178 664 178 c 0,32,33
 752 178 752 178 824 241.5 c 128,-1,34
 896 305 896 305 896 401 c 0,35,36
 896 573 896 573 800 672 c 1,37,38
 752 717 752 717 697 740.5 c 128,-1,39
 642 764 642 764 570 764 c 0,40,41
 462 764 462 764 384 681 c 128,-1,42
 306 598 306 598 306 483 c 2,43,-1
 306 463 l 1,44,-1
 310 430 l 1,45,-1
 324 340 l 1,46,-1
 337 231 l 1,47,48
 337 133 337 133 288 72 c 1,49,50
 234 0 234 0 128 0 c 1,51,52
 -138 8 -138 8 -161 391 c 1,53,54
 -16 143 -16 143 115 150 c 1,55,56
 267 172 267 172 242 373 c 1,57,-1
 232 444 l 1,58,-1
 228 514 l 1,59,60
 228 698 228 698 318 803.5 c 128,-1,61
 408 909 408 909 554 909 c 0,62,63
 730 909 730 909 848.5 770 c 128,-1,64
 967 631 967 631 967 399 c 0,0,1
EndSplineSet
EndChar

StartChar: uni0CC3
Encoding: 3267 3267 259
Width: 335
Flags: W
LayerCount: 2
Fore
SplineSet
298 -102 m 0,0,1
 298 -279 298 -279 236 -381 c 1,2,3
 163 -506 163 -506 15 -506 c 0,4,5
 -104 -506 -104 -506 -177 -418 c 0,6,7
 -245 -336 -245 -336 -245 -233 c 0,8,9
 -245 -145 -245 -145 -198 -87 c 128,-1,10
 -151 -29 -151 -29 -71 -29 c 0,11,12
 -18 -29 -18 -29 21 -61 c 1,13,14
 56 -98 56 -98 56 -154 c 0,15,16
 56 -211 56 -211 24.5 -253 c 128,-1,17
 -7 -295 -7 -295 -69 -295 c 0,18,19
 -122 -295 -122 -295 -151 -238 c 1,20,-1
 -163 -213 l 1,21,22
 -163 -289 -163 -289 -114 -342 c 1,23,24
 -71 -383 -71 -383 -9 -383 c 0,25,26
 97 -383 97 -383 156 -293 c 1,27,28
 208 -211 208 -211 208 -72 c 0,29,30
 208 39 208 39 171 147.5 c 128,-1,31
 134 256 134 256 60 350 c 1,32,-1
 85 367 l 2,33,34
 101 379 101 379 120 379 c 0,35,36
 124 379 124 379 136 375 c 1,37,38
 195 344 195 344 246.5 197.5 c 128,-1,39
 298 51 298 51 298 -102 c 0,0,1
-12 -170 m 0,40,41
 -12 -145 -12 -145 -26 -129 c 1,42,43
 -44 -117 -44 -117 -71 -115 c 1,44,45
 -102 -115 -102 -115 -126.5 -131 c 128,-1,46
 -151 -147 -151 -147 -151 -174 c 1,47,48
 -145 -193 -145 -193 -127.5 -205 c 128,-1,49
 -110 -217 -110 -217 -81 -221 c 1,50,51
 -46 -221 -46 -221 -29 -203.5 c 128,-1,52
 -12 -186 -12 -186 -12 -170 c 0,40,41
EndSplineSet
EndChar

StartChar: uni0CC4
Encoding: 3268 3268 260
Width: 634
Flags: W
LayerCount: 2
Fore
SplineSet
213 -268 m 1,0,1
 213 -424 213 -424 160 -512 c 1,2,3
 96 -621 96 -621 -37 -621 c 0,4,5
 -137 -621 -137 -621 -205 -547 c 1,6,7
 -262 -473 -262 -473 -262 -381 c 0,8,9
 -262 -307 -262 -307 -220 -255 c 128,-1,10
 -178 -203 -178 -203 -110 -203 c 0,11,12
 -61 -203 -61 -203 -29 -233 c 1,13,14
 2 -268 2 -268 2 -313 c 0,15,16
 2 -367 2 -367 -25.5 -402.5 c 128,-1,17
 -53 -438 -53 -438 -106 -438 c 0,18,19
 -151 -438 -151 -438 -180 -389 c 1,20,-1
 -190 -367 l 1,21,22
 -190 -434 -190 -434 -147 -477 c 1,23,24
 -110 -518 -110 -518 -57 -518 c 0,25,26
 37 -518 37 -518 88 -434 c 1,27,28
 133 -367 133 -367 133 -244 c 1,29,30
 123 55 123 55 2 84 c 1,31,-1
 2 152 l 1,32,-1
 467 152 l 2,33,34
 617 152 617 152 621 -78 c 1,35,36
 623 -324 623 -324 461 -326 c 0,37,38
 322 -328 322 -328 316 -141 c 1,39,40
 328 33 328 33 430 25 c 1,41,42
 490 31 490 31 498 -35 c 1,43,44
 498 -111 498 -111 430 -111 c 1,45,46
 391 -106 391 -106 377 -74 c 1,47,48
 367 -102 367 -102 369 -147 c 1,49,50
 375 -236 375 -236 467 -244 c 1,51,52
 582 -225 582 -225 578 -70 c 1,53,54
 567 55 567 55 475 84 c 1,55,-1
 105 84 l 1,56,57
 199 -2 199 -2 213 -268 c 1,0,1
-57 -326 m 0,58,59
 -57 -307 -57 -307 -72 -293 c 0,60,61
 -84 -283 -84 -283 -110 -276 c 1,62,63
 -135 -276 -135 -276 -156.5 -293.5 c 128,-1,64
 -178 -311 -178 -311 -178 -332 c 1,65,66
 -174 -348 -174 -348 -157.5 -359.5 c 128,-1,67
 -141 -371 -141 -371 -117 -375 c 1,68,69
 -88 -375 -88 -375 -72.5 -360.5 c 128,-1,70
 -57 -346 -57 -346 -57 -326 c 0,58,59
EndSplineSet
EndChar

StartChar: uni0CC6
Encoding: 3270 3270 261
Width: 118
Flags: W
LayerCount: 2
Fore
SplineSet
66 977 m 1,0,1
 60 754 60 754 -98 735 c 1,2,-1
 -274 735 l 1,3,-1
 -274 911 l 1,4,-1
 -188 911 l 1,5,6
 -34 907 -34 907 -34 1010 c 1,7,8
 -30 1145 -30 1145 -153 1149 c 1,9,10
 -204 1149 -204 1149 -236 1126.5 c 128,-1,11
 -268 1104 -268 1104 -268 1071 c 0,12,13
 -268 1036 -268 1036 -239 1020 c 1,14,15
 -247 1075 -247 1075 -184 1075 c 0,16,17
 -128 1075 -128 1075 -134 1018 c 1,18,19
 -147 963 -147 963 -218 967 c 1,20,21
 -321 975 -321 975 -327 1063 c 1,22,23
 -327 1126 -327 1126 -271.5 1170 c 128,-1,24
 -216 1214 -216 1214 -141 1214 c 0,25,26
 -57 1214 -57 1214 1 1157 c 1,27,28
 66 1090 66 1090 66 977 c 1,0,1
EndSplineSet
EndChar

StartChar: uni0CC7
Encoding: 3271 3271 262
Width: 118
Flags: W
LayerCount: 2
Fore
SplineSet
662 0 m 1,0,-1
 379 0 l 1,1,2
 260 72 260 72 195.5 216 c 128,-1,3
 131 360 131 360 131 508 c 0,4,5
 131 674 131 674 206 791.5 c 128,-1,6
 281 909 281 909 408 909 c 0,7,8
 510 909 510 909 566 840 c 1,9,10
 615 784 615 784 615 690 c 0,11,12
 615 604 615 604 562.5 530.5 c 128,-1,13
 510 457 510 457 428 457 c 256,14,15
 346 457 346 457 303 514 c 128,-1,16
 260 571 260 571 260 662 c 2,17,-1
 260 678 l 1,18,19
 213 610 213 610 213 508 c 0,20,21
 213 358 213 358 320 221 c 1,22,23
 445 66 445 66 662 0 c 1,0,-1
539 684 m 256,24,25
 539 719 539 719 514.5 743.5 c 128,-1,26
 490 768 490 768 430 768 c 0,27,28
 400 768 400 768 369 756 c 1,29,30
 355 752 355 752 336 739 c 1,31,32
 336 678 336 678 359.5 641 c 128,-1,33
 383 604 383 604 445 604 c 0,34,35
 482 604 482 604 510.5 626.5 c 128,-1,36
 539 649 539 649 539 684 c 256,24,25
65 977 m 1,37,38
 59 754 59 754 -99 735 c 1,39,-1
 -275 735 l 1,40,-1
 -275 911 l 1,41,-1
 -189 911 l 1,42,43
 -35 907 -35 907 -35 1010 c 1,44,45
 -31 1145 -31 1145 -154 1149 c 1,46,47
 -205 1149 -205 1149 -237 1126.5 c 128,-1,48
 -269 1104 -269 1104 -269 1071 c 0,49,50
 -269 1036 -269 1036 -240 1020 c 1,51,52
 -248 1075 -248 1075 -185 1075 c 0,53,54
 -129 1075 -129 1075 -135 1018 c 1,55,56
 -148 963 -148 963 -219 967 c 1,57,58
 -322 975 -322 975 -328 1063 c 1,59,60
 -328 1126 -328 1126 -272.5 1170 c 128,-1,61
 -217 1214 -217 1214 -142 1214 c 0,62,63
 -58 1214 -58 1214 0 1157 c 1,64,65
 65 1090 65 1090 65 977 c 1,37,38
EndSplineSet
EndChar

StartChar: uni0CC8
Encoding: 3272 3272 263
Width: 569
Flags: W
LayerCount: 2
Fore
SplineSet
280 -276 m 0,0,1
 280 -379 280 -379 231 -459 c 0,2,3
 176 -547 176 -547 74 -547 c 0,4,5
 -33 -547 -33 -547 -98.5 -461 c 128,-1,6
 -164 -375 -164 -375 -164 -266 c 0,7,8
 -164 -186 -164 -186 -123 -128 c 128,-1,9
 -82 -70 -82 -70 -14 -70 c 0,10,11
 39 -70 39 -70 70.5 -111 c 128,-1,12
 102 -152 102 -152 102 -203 c 256,13,14
 102 -254 102 -254 70.5 -294 c 128,-1,15
 39 -334 39 -334 -17 -334 c 0,16,17
 -58 -334 -58 -334 -82 -295 c 1,18,-1
 -105 -254 l 1,19,20
 -105 -328 -105 -328 -61 -382 c 128,-1,21
 -17 -436 -17 -436 41 -436 c 0,22,23
 94 -436 94 -436 144 -381 c 128,-1,24
 194 -326 194 -326 194 -250 c 0,25,26
 194 -147 194 -147 100 -31 c 1,27,28
 72 6 72 6 8 59 c 1,29,-1
 53 145 l 1,30,31
 74 195 74 195 76 223 c 1,32,33
 76 272 76 272 43 342 c 1,34,-1
 12 403 l 1,35,36
 63 403 63 403 114.5 344 c 128,-1,37
 166 285 166 285 166 227 c 0,38,39
 166 174 166 174 147 121 c 1,40,41
 129 59 129 59 104 43 c 1,42,-1
 164 -4 l 1,43,44
 280 -113 280 -113 280 -276 c 0,0,1
41 -211 m 0,45,46
 41 -195 41 -195 26.5 -178.5 c 128,-1,47
 12 -162 12 -162 -17 -158 c 1,48,49
 -53 -158 -53 -158 -76 -184 c 1,50,-1
 -90 -211 l 1,51,-1
 -78 -231 l 1,52,53
 -55 -252 -55 -252 -23 -252 c 0,54,55
 41 -252 41 -252 41 -211 c 0,45,46
65 977 m 1,56,57
 59 754 59 754 -99 735 c 1,58,-1
 -275 735 l 1,59,-1
 -275 911 l 1,60,-1
 -189 911 l 1,61,62
 -35 907 -35 907 -35 1010 c 1,63,64
 -31 1145 -31 1145 -154 1149 c 1,65,66
 -205 1149 -205 1149 -237 1126.5 c 128,-1,67
 -269 1104 -269 1104 -269 1071 c 0,68,69
 -269 1036 -269 1036 -240 1020 c 1,70,71
 -248 1075 -248 1075 -185 1075 c 0,72,73
 -129 1075 -129 1075 -135 1018 c 1,74,75
 -148 963 -148 963 -219 967 c 1,76,77
 -322 975 -322 975 -328 1063 c 1,78,79
 -328 1126 -328 1126 -272.5 1170 c 128,-1,80
 -217 1214 -217 1214 -142 1214 c 0,81,82
 -58 1214 -58 1214 0 1157 c 1,83,84
 65 1090 65 1090 65 977 c 1,56,57
EndSplineSet
EndChar

StartChar: uni0CCA
Encoding: 3274 3274 264
Width: 118
Flags: W
LayerCount: 2
Fore
SplineSet
66 977 m 1,0,1
 60 754 60 754 -98 735 c 1,2,-1
 -274 735 l 1,3,-1
 -274 911 l 1,4,-1
 -188 911 l 1,5,6
 -34 907 -34 907 -34 1010 c 1,7,8
 -30 1145 -30 1145 -153 1149 c 1,9,10
 -204 1149 -204 1149 -236 1126.5 c 128,-1,11
 -268 1104 -268 1104 -268 1071 c 0,12,13
 -268 1036 -268 1036 -239 1020 c 1,14,15
 -247 1075 -247 1075 -184 1075 c 0,16,17
 -128 1075 -128 1075 -134 1018 c 1,18,19
 -147 963 -147 963 -218 967 c 1,20,21
 -321 975 -321 975 -327 1063 c 1,22,23
 -327 1126 -327 1126 -271.5 1170 c 128,-1,24
 -216 1214 -216 1214 -141 1214 c 0,25,26
 -57 1214 -57 1214 1 1157 c 1,27,28
 66 1090 66 1090 66 977 c 1,0,1
967 399 m 0,29,30
 967 186 967 186 896.5 93 c 128,-1,31
 826 0 826 0 670 0 c 0,32,33
 562 0 562 0 491.5 96.5 c 128,-1,34
 421 193 421 193 421 324 c 0,35,36
 421 418 421 418 474 471 c 0,37,38
 521 518 521 518 587 518 c 0,39,40
 646 518 646 518 687 483 c 0,41,42
 732 446 732 446 732 387 c 0,43,44
 732 336 732 336 704.5 310.5 c 128,-1,45
 677 285 677 285 638 285 c 0,46,47
 605 285 605 285 578 303 c 1,48,49
 554 330 554 330 554 365 c 0,50,51
 554 383 554 383 570 412 c 1,52,-1
 580 424 l 1,53,54
 552 420 552 420 539 414 c 0,55,56
 492 391 492 391 492 332 c 0,57,58
 492 279 492 279 548 225 c 1,59,60
 601 178 601 178 664 178 c 0,61,62
 752 178 752 178 824 241.5 c 128,-1,63
 896 305 896 305 896 401 c 0,64,65
 896 573 896 573 800 672 c 1,66,67
 752 717 752 717 697 740.5 c 128,-1,68
 642 764 642 764 570 764 c 0,69,70
 462 764 462 764 384 681 c 128,-1,71
 306 598 306 598 306 483 c 2,72,-1
 306 463 l 1,73,-1
 310 430 l 1,74,-1
 324 340 l 1,75,-1
 337 231 l 1,76,77
 337 133 337 133 288 72 c 1,78,79
 234 0 234 0 128 0 c 1,80,81
 -138 8 -138 8 -161 391 c 1,82,83
 -16 143 -16 143 115 150 c 1,84,85
 267 172 267 172 242 373 c 1,86,-1
 232 444 l 1,87,-1
 228 514 l 1,88,89
 228 698 228 698 318 803.5 c 128,-1,90
 408 909 408 909 554 909 c 0,91,92
 730 909 730 909 848.5 770 c 128,-1,93
 967 631 967 631 967 399 c 0,29,30
EndSplineSet
EndChar

StartChar: uni0CCB
Encoding: 3275 3275 265
Width: 118
Flags: W
LayerCount: 2
Fore
SplineSet
1552 0 m 1,0,-1
 1269 0 l 1,1,2
 1150 72 1150 72 1085.5 216 c 128,-1,3
 1021 360 1021 360 1021 508 c 0,4,5
 1021 674 1021 674 1096 791.5 c 128,-1,6
 1171 909 1171 909 1298 909 c 0,7,8
 1400 909 1400 909 1456 840 c 1,9,10
 1505 784 1505 784 1505 690 c 0,11,12
 1505 604 1505 604 1452.5 530.5 c 128,-1,13
 1400 457 1400 457 1318 457 c 256,14,15
 1236 457 1236 457 1193 514 c 128,-1,16
 1150 571 1150 571 1150 662 c 2,17,-1
 1150 678 l 1,18,19
 1103 610 1103 610 1103 508 c 0,20,21
 1103 358 1103 358 1210 221 c 1,22,23
 1335 66 1335 66 1552 0 c 1,0,-1
1429 684 m 256,24,25
 1429 719 1429 719 1404.5 743.5 c 128,-1,26
 1380 768 1380 768 1320 768 c 0,27,28
 1290 768 1290 768 1259 756 c 1,29,30
 1245 752 1245 752 1226 739 c 1,31,32
 1226 678 1226 678 1249.5 641 c 128,-1,33
 1273 604 1273 604 1335 604 c 0,34,35
 1372 604 1372 604 1400.5 626.5 c 128,-1,36
 1429 649 1429 649 1429 684 c 256,24,25
66 977 m 1,37,38
 60 754 60 754 -98 735 c 1,39,-1
 -274 735 l 1,40,-1
 -274 911 l 1,41,-1
 -188 911 l 1,42,43
 -34 907 -34 907 -34 1010 c 1,44,45
 -30 1145 -30 1145 -153 1149 c 1,46,47
 -204 1149 -204 1149 -236 1126.5 c 128,-1,48
 -268 1104 -268 1104 -268 1071 c 0,49,50
 -268 1036 -268 1036 -239 1020 c 1,51,52
 -247 1075 -247 1075 -184 1075 c 0,53,54
 -128 1075 -128 1075 -134 1018 c 1,55,56
 -147 963 -147 963 -218 967 c 1,57,58
 -321 975 -321 975 -327 1063 c 1,59,60
 -327 1126 -327 1126 -271.5 1170 c 128,-1,61
 -216 1214 -216 1214 -141 1214 c 0,62,63
 -57 1214 -57 1214 1 1157 c 1,64,65
 66 1090 66 1090 66 977 c 1,37,38
967 399 m 0,66,67
 967 186 967 186 896.5 93 c 128,-1,68
 826 0 826 0 670 0 c 0,69,70
 562 0 562 0 491.5 96.5 c 128,-1,71
 421 193 421 193 421 324 c 0,72,73
 421 418 421 418 474 471 c 0,74,75
 521 518 521 518 587 518 c 0,76,77
 646 518 646 518 687 483 c 0,78,79
 732 446 732 446 732 387 c 0,80,81
 732 336 732 336 704.5 310.5 c 128,-1,82
 677 285 677 285 638 285 c 0,83,84
 605 285 605 285 578 303 c 1,85,86
 554 330 554 330 554 365 c 0,87,88
 554 383 554 383 570 412 c 1,89,-1
 580 424 l 1,90,91
 552 420 552 420 539 414 c 0,92,93
 492 391 492 391 492 332 c 0,94,95
 492 279 492 279 548 225 c 1,96,97
 601 178 601 178 664 178 c 0,98,99
 752 178 752 178 824 241.5 c 128,-1,100
 896 305 896 305 896 401 c 0,101,102
 896 573 896 573 800 672 c 1,103,104
 752 717 752 717 697 740.5 c 128,-1,105
 642 764 642 764 570 764 c 0,106,107
 462 764 462 764 384 681 c 128,-1,108
 306 598 306 598 306 483 c 2,109,-1
 306 463 l 1,110,-1
 310 430 l 1,111,-1
 324 340 l 1,112,-1
 337 231 l 1,113,114
 337 133 337 133 288 72 c 1,115,116
 234 0 234 0 128 0 c 1,117,118
 -138 8 -138 8 -161 391 c 1,119,120
 -16 143 -16 143 115 150 c 1,121,122
 267 172 267 172 242 373 c 1,123,-1
 232 444 l 1,124,-1
 228 514 l 1,125,126
 228 698 228 698 318 803.5 c 128,-1,127
 408 909 408 909 554 909 c 0,128,129
 730 909 730 909 848.5 770 c 128,-1,130
 967 631 967 631 967 399 c 0,66,67
EndSplineSet
EndChar

StartChar: uni0CCC
Encoding: 3276 3276 266
Width: 886
Flags: W
LayerCount: 2
Fore
SplineSet
834 680 m 0,0,1
 834 483 834 483 747 349 c 128,-1,2
 660 215 660 215 555 215 c 0,3,4
 416 215 416 215 338 315 c 1,5,6
 272 406 272 406 272 541 c 0,7,8
 272 645 272 645 329.5 709.5 c 128,-1,9
 387 774 387 774 477 774 c 0,10,11
 553 774 553 774 598 711 c 1,12,13
 635 657 635 657 635 580 c 0,14,15
 635 524 635 524 604 489 c 1,16,17
 567 459 567 459 522 459 c 0,18,19
 490 459 490 459 464 483.5 c 128,-1,20
 438 508 438 508 438 549 c 256,21,22
 438 590 438 590 458.5 603 c 128,-1,23
 479 616 479 616 514 616 c 2,24,-1
 537 616 l 1,25,26
 537 651 537 651 525.5 670.5 c 128,-1,27
 514 690 514 690 473 690 c 0,28,29
 428 690 428 690 384 642 c 128,-1,30
 340 594 340 594 340 543 c 0,31,32
 340 477 340 477 393 420 c 0,33,34
 449 360 449 360 541 360 c 0,35,36
 625 360 625 360 694.5 443 c 128,-1,37
 764 526 764 526 764 651 c 0,38,39
 764 852 764 852 629 948 c 0,40,41
 580 983 580 983 512.5 1001.5 c 128,-1,42
 445 1020 445 1020 361 1020 c 2,43,-1
 148 1020 l 1,44,45
 215 922 215 922 164 821 c 1,46,47
 115 733 115 733 -49 737 c 1,48,-1
 -260 737 l 1,49,-1
 -260 911 l 1,50,-1
 -12 911 l 1,51,52
 80 913 80 913 94 952 c 1,53,54
 102 1004 102 1004 57 1022 c 1,55,-1
 -190 1022 l 1,56,-1
 -190 1190 l 1,57,-1
 369 1190 l 2,58,59
 555 1190 555 1190 688 1069 c 1,60,61
 834 926 834 926 834 680 c 0,0,1
EndSplineSet
EndChar

StartChar: uni0CCD
Encoding: 3277 3277 267
Width: 720
Flags: W
LayerCount: 2
Fore
SplineSet
767 895 m 0,0,1
 767 848 767 848 734 836 c 1,2,-1
 695 834 l 1,3,4
 695 877 695 877 650 911 c 1,5,6
 597 958 597 958 511 958 c 0,7,8
 433 958 433 958 349 926 c 1,9,-1
 318 911 l 1,10,11
 433 911 433 911 506 850 c 1,12,13
 595 780 595 780 595 637 c 0,14,15
 595 528 595 528 531.5 459.5 c 128,-1,16
 468 391 468 391 388 391 c 0,17,18
 302 391 302 391 240 467 c 1,19,20
 175 551 175 551 175 715 c 1,21,-1
 171 735 l 1,22,-1
 -282 735 l 1,23,-1
 -282 911 l 1,24,-1
 199 911 l 1,25,26
 199 1020 199 1020 289 1071 c 0,27,28
 365 1114 365 1114 484 1114 c 0,29,30
 595 1114 595 1114 681 1052.5 c 128,-1,31
 767 991 767 991 767 895 c 0,0,1
384 557 m 0,32,33
 435 557 435 557 464.5 579.5 c 128,-1,34
 494 602 494 602 494 637 c 256,35,36
 494 672 494 672 458.5 703.5 c 128,-1,37
 423 735 423 735 357 735 c 2,38,-1
 257 735 l 1,39,40
 257 709 257 709 262 687.5 c 128,-1,41
 267 666 267 666 271 647 c 1,42,43
 302 557 302 557 384 557 c 0,32,33
EndSplineSet
EndChar

StartChar: uni0CD5
Encoding: 3285 3285 268
Width: 118
Flags: W
LayerCount: 2
Fore
SplineSet
662 0 m 1,0,-1
 379 0 l 1,1,2
 260 72 260 72 195.5 216 c 128,-1,3
 131 360 131 360 131 508 c 0,4,5
 131 674 131 674 206 791.5 c 128,-1,6
 281 909 281 909 408 909 c 0,7,8
 510 909 510 909 566 840 c 1,9,10
 615 784 615 784 615 690 c 0,11,12
 615 604 615 604 562.5 530.5 c 128,-1,13
 510 457 510 457 428 457 c 256,14,15
 346 457 346 457 303 514 c 128,-1,16
 260 571 260 571 260 662 c 2,17,-1
 260 678 l 1,18,19
 213 610 213 610 213 508 c 0,20,21
 213 358 213 358 320 221 c 1,22,23
 445 66 445 66 662 0 c 1,0,-1
539 684 m 256,24,25
 539 719 539 719 514.5 743.5 c 128,-1,26
 490 768 490 768 430 768 c 0,27,28
 400 768 400 768 369 756 c 1,29,30
 355 752 355 752 336 739 c 1,31,32
 336 678 336 678 359.5 641 c 128,-1,33
 383 604 383 604 445 604 c 0,34,35
 482 604 482 604 510.5 626.5 c 128,-1,36
 539 649 539 649 539 684 c 256,24,25
EndSplineSet
EndChar

StartChar: uni0CD6
Encoding: 3286 3286 269
Width: 569
Flags: W
LayerCount: 2
Fore
SplineSet
280 -276 m 0,0,1
 280 -379 280 -379 231 -459 c 0,2,3
 176 -547 176 -547 74 -547 c 0,4,5
 -33 -547 -33 -547 -98.5 -461 c 128,-1,6
 -164 -375 -164 -375 -164 -266 c 0,7,8
 -164 -186 -164 -186 -123 -128 c 128,-1,9
 -82 -70 -82 -70 -14 -70 c 0,10,11
 39 -70 39 -70 70.5 -111 c 128,-1,12
 102 -152 102 -152 102 -203 c 256,13,14
 102 -254 102 -254 70.5 -294 c 128,-1,15
 39 -334 39 -334 -17 -334 c 0,16,17
 -58 -334 -58 -334 -82 -295 c 1,18,-1
 -105 -254 l 1,19,20
 -105 -328 -105 -328 -61 -382 c 128,-1,21
 -17 -436 -17 -436 41 -436 c 0,22,23
 94 -436 94 -436 144 -381 c 128,-1,24
 194 -326 194 -326 194 -250 c 0,25,26
 194 -147 194 -147 100 -31 c 1,27,28
 72 6 72 6 8 59 c 1,29,-1
 53 145 l 1,30,31
 74 195 74 195 76 223 c 1,32,33
 76 272 76 272 43 342 c 1,34,-1
 12 403 l 1,35,36
 63 403 63 403 114.5 344 c 128,-1,37
 166 285 166 285 166 227 c 0,38,39
 166 174 166 174 147 121 c 1,40,41
 129 59 129 59 104 43 c 1,42,-1
 164 -4 l 1,43,44
 280 -113 280 -113 280 -276 c 0,0,1
41 -211 m 0,45,46
 41 -195 41 -195 26.5 -178.5 c 128,-1,47
 12 -162 12 -162 -17 -158 c 1,48,49
 -53 -158 -53 -158 -76 -184 c 1,50,-1
 -90 -211 l 1,51,-1
 -78 -231 l 1,52,53
 -55 -252 -55 -252 -23 -252 c 0,54,55
 41 -252 41 -252 41 -211 c 0,45,46
EndSplineSet
EndChar

StartChar: uni0CDE
Encoding: 3294 3294 270
Width: 1175
Flags: W
LayerCount: 2
Fore
SplineSet
1089 434 m 1,0,1
 1089 248 1089 248 1027 131 c 1,2,3
 955 2 955 2 822 2 c 0,4,5
 716 2 716 2 642 92 c 1,6,7
 624 119 624 119 587 184 c 1,8,9
 560 123 560 123 532 94 c 1,10,11
 458 2 458 2 357 2 c 0,12,13
 231 2 231 2 156 142.5 c 128,-1,14
 81 283 81 283 81 465 c 0,15,16
 81 565 81 565 95.5 633.5 c 128,-1,17
 110 702 110 702 142.5 768 c 128,-1,18
 175 834 175 834 225.5 868.5 c 128,-1,19
 276 903 276 903 333 903 c 0,20,21
 415 903 415 903 461 837.5 c 128,-1,22
 507 772 507 772 507 676 c 0,23,24
 507 590 507 590 462 523.5 c 128,-1,25
 417 457 417 457 337 457 c 1,26,27
 226 475 226 475 210 606 c 1,28,-1
 179 543 l 1,29,30
 155 465 155 465 155 420 c 0,31,32
 155 322 155 322 204 258 c 1,33,34
 263 184 263 184 374 184 c 0,35,36
 468 184 468 184 540 268 c 1,37,38
 560 295 560 295 587 356 c 1,39,40
 605 324 605 324 616.5 305.5 c 128,-1,41
 628 287 628 287 640 272 c 0,42,43
 710 184 710 184 810 184 c 0,44,45
 917 184 917 184 966 259 c 128,-1,46
 1015 334 1015 334 1015 440 c 1,47,48
 1007 606 1007 606 939 668 c 1,49,50
 939 600 939 600 906 549 c 1,51,52
 865 477 865 477 779 477 c 0,53,54
 702 477 702 477 653.5 545.5 c 128,-1,55
 605 614 605 614 605 700 c 256,56,57
 605 786 605 786 652 847.5 c 128,-1,58
 699 909 699 909 790 909 c 1,59,60
 925 911 925 911 1029 729 c 1,61,62
 1093 586 1093 586 1089 434 c 1,0,1
865 727 m 1,63,-1
 847 737 l 1,64,65
 822 748 822 748 788 752 c 1,66,67
 738 752 738 752 713.5 733.5 c 128,-1,68
 689 715 689 715 685 682 c 1,69,70
 685 655 685 655 700.5 636.5 c 128,-1,71
 716 618 716 618 747 614 c 1,72,73
 829 614 829 614 853 670 c 1,74,-1
 865 727 l 1,63,-1
427 682 m 1,75,76
 427 707 427 707 406.5 726 c 128,-1,77
 386 745 386 745 355 745 c 0,78,79
 331 745 331 745 310.5 739 c 128,-1,80
 290 733 290 733 276 719 c 1,81,82
 265 713 265 713 255 690 c 1,83,84
 247 655 247 655 265.5 632.5 c 128,-1,85
 284 610 284 610 333 610 c 0,86,87
 380 610 380 610 401.5 631.5 c 128,-1,88
 423 653 423 653 427 682 c 1,75,76
EndSplineSet
EndChar

StartChar: uni0CE0
Encoding: 3296 3296 271
Width: 1355
Flags: W
LayerCount: 2
Fore
SplineSet
1285 412 m 1,0,1
 1285 233 1285 233 1205 123 c 1,2,3
 1117 0 1117 0 925 0 c 0,4,5
 876 0 876 0 823.5 22.5 c 128,-1,6
 771 45 771 45 718 98 c 0,7,8
 685 131 685 131 638 201 c 1,9,10
 605 135 605 135 570 98 c 1,11,12
 468 0 468 0 308 0 c 0,13,14
 200 0 200 0 134 80 c 0,15,16
 81 143 81 143 81 233 c 0,17,18
 81 326 81 326 134 381 c 1,19,20
 202 455 202 455 341 455 c 0,21,22
 429 455 429 455 519 395 c 1,23,-1
 599 332 l 1,24,-1
 632 408 l 1,25,26
 663 504 663 504 663 555 c 0,27,28
 663 649 663 649 609 721 c 0,29,30
 548 801 548 801 448 801 c 0,31,32
 372 801 372 801 333 773 c 128,-1,33
 294 745 294 745 294 700 c 0,34,35
 294 668 294 668 327 641 c 1,36,-1
 355 629 l 1,37,-1
 353 662 l 1,38,39
 353 696 353 696 383 717.5 c 128,-1,40
 413 739 413 739 448 739 c 0,41,42
 480 739 480 739 509 715 c 0,43,44
 540 688 540 688 540 641 c 0,45,46
 540 586 540 586 501 555 c 128,-1,47
 462 524 462 524 403 524 c 0,48,49
 329 524 329 524 265.5 583.5 c 128,-1,50
 202 643 202 643 202 719 c 0,51,52
 202 815 202 815 255 877 c 1,53,54
 317 961 317 961 427 961 c 0,55,56
 577 961 577 961 663 823 c 1,57,58
 743 702 743 702 743 543 c 0,59,60
 743 512 743 512 736.5 473 c 128,-1,61
 730 434 730 434 714 381 c 1,62,63
 710 358 710 358 685 293 c 1,64,-1
 747 250 l 1,65,66
 826 201 826 201 902 201 c 0,67,68
 1056 201 1056 201 1136 276 c 0,69,70
 1205 340 1205 340 1205 455 c 0,71,72
 1205 571 1205 571 1119 656 c 128,-1,73
 1033 741 1033 741 915 737 c 1,74,-1
 792 737 l 1,75,-1
 792 909 l 1,76,-1
 1062 909 l 1,77,-1
 1062 803 l 1,78,-1
 1107 803 l 1,79,80
 1279 711 1279 711 1285 412 c 1,0,1
560 260 m 1,81,82
 519 299 519 299 493 315 c 1,83,84
 413 375 413 375 327 375 c 0,85,86
 249 375 249 375 211 348.5 c 128,-1,87
 173 322 173 322 173 279 c 0,88,89
 173 240 173 240 206 213 c 1,90,91
 237 190 237 190 271 190 c 0,92,93
 370 190 370 190 468 225 c 1,94,95
 497 233 497 233 560 260 c 1,81,82
1209 920 m 1,96,97
 1197 739 1197 739 986 737 c 1,98,-1
 880 737 l 1,99,-1
 880 905 l 1,100,-1
 986 905 l 1,101,102
 1097 913 1097 913 1095 1006 c 1,103,104
 1095 1063 1095 1063 1037 1151 c 1,105,-1
 1076 1190 l 1,106,107
 1211 1069 1211 1069 1209 920 c 1,96,97
2412 394 m 0,108,109
 2412 181 2412 181 2341.5 88 c 128,-1,110
 2271 -5 2271 -5 2115 -5 c 0,111,112
 2007 -5 2007 -5 1936.5 91.5 c 128,-1,113
 1866 188 1866 188 1866 319 c 0,114,115
 1866 413 1866 413 1919 466 c 0,116,117
 1966 513 1966 513 2032 513 c 0,118,119
 2091 513 2091 513 2132 478 c 0,120,121
 2177 441 2177 441 2177 382 c 0,122,123
 2177 331 2177 331 2149.5 305.5 c 128,-1,124
 2122 280 2122 280 2083 280 c 0,125,126
 2050 280 2050 280 2023 298 c 1,127,128
 1999 325 1999 325 1999 360 c 0,129,130
 1999 378 1999 378 2015 407 c 1,131,-1
 2025 419 l 1,132,133
 1997 415 1997 415 1984 409 c 0,134,135
 1937 386 1937 386 1937 327 c 0,136,137
 1937 274 1937 274 1993 220 c 1,138,139
 2046 173 2046 173 2109 173 c 0,140,141
 2197 173 2197 173 2269 236.5 c 128,-1,142
 2341 300 2341 300 2341 396 c 0,143,144
 2341 568 2341 568 2245 667 c 1,145,146
 2197 712 2197 712 2142 735.5 c 128,-1,147
 2087 759 2087 759 2015 759 c 0,148,149
 1907 759 1907 759 1829 676 c 128,-1,150
 1751 593 1751 593 1751 478 c 2,151,-1
 1751 458 l 1,152,-1
 1755 425 l 1,153,-1
 1769 335 l 1,154,-1
 1782 226 l 1,155,156
 1782 128 1782 128 1733 67 c 1,157,158
 1679 -5 1679 -5 1573 -5 c 1,159,160
 1307 3 1307 3 1284 386 c 1,161,162
 1429 138 1429 138 1560 145 c 1,163,164
 1712 167 1712 167 1687 368 c 1,165,-1
 1677 439 l 1,166,-1
 1673 509 l 1,167,168
 1673 693 1673 693 1763 798.5 c 128,-1,169
 1853 904 1853 904 1999 904 c 0,170,171
 2175 904 2175 904 2293.5 765 c 128,-1,172
 2412 626 2412 626 2412 394 c 0,108,109
EndSplineSet
EndChar

StartChar: uni0CE6
Encoding: 3302 3302 272
Width: 970
Flags: W
LayerCount: 2
Fore
SplineSet
888 442 m 0,0,1
 888 229 888 229 761 102 c 1,2,3
 644 -12 644 -12 480 -12 c 0,4,5
 323 -12 323 -12 204 106 c 1,6,7
 81 238 81 238 81 444 c 0,8,9
 81 643 81 643 194.5 776 c 128,-1,10
 308 909 308 909 476 909 c 0,11,12
 669 909 669 909 783 768 c 1,13,14
 888 633 888 633 888 442 c 0,0,1
847 438 m 0,15,16
 847 553 847 553 765 649 c 0,17,18
 663 770 663 770 480 770 c 0,19,20
 319 770 319 770 218 664 c 1,21,22
 173 612 173 612 150.5 558 c 128,-1,23
 128 504 128 504 128 438 c 0,24,25
 128 297 128 297 239 207 c 1,26,27
 335 127 335 127 480 127 c 0,28,29
 630 127 630 127 734 205 c 0,30,31
 847 291 847 291 847 438 c 0,15,16
EndSplineSet
EndChar

StartChar: uni0CE7
Encoding: 3303 3303 273
Width: 1085
Flags: W
LayerCount: 2
Fore
SplineSet
1003 434 m 0,0,1
 1003 279 1003 279 906 127 c 1,2,3
 826 -4 826 -4 775 -4 c 0,4,5
 689 -4 689 -4 689 59 c 1,6,7
 779 127 779 127 826 178 c 0,8,9
 966 328 966 328 966 453 c 0,10,11
 966 594 966 594 835 682 c 1,12,13
 712 758 712 758 542 758 c 256,14,15
 372 758 372 758 249 682 c 1,16,17
 116 596 116 596 116 453 c 0,18,19
 116 328 116 328 255 180 c 0,20,21
 300 133 300 133 394 59 c 1,22,23
 394 -4 394 -4 310 -4 c 0,24,25
 263 -4 263 -4 179 125 c 1,26,27
 81 279 81 279 81 434 c 0,28,29
 81 662 81 662 224 791 c 1,30,31
 353 909 353 909 542 909 c 0,32,33
 728 909 728 909 859 791 c 0,34,35
 1003 662 1003 662 1003 434 c 0,0,1
EndSplineSet
EndChar

StartChar: uni0CE8
Encoding: 3304 3304 274
Width: 1036
Flags: W
LayerCount: 2
Fore
SplineSet
953 496 m 0,0,1
 953 297 953 297 876 158 c 1,2,3
 783 0 783 0 620 0 c 2,4,-1
 81 0 l 1,5,-1
 81 156 l 1,6,-1
 650 156 l 2,7,8
 767 156 767 156 839 260 c 1,9,10
 904 352 904 352 904 485 c 0,11,12
 904 600 904 600 837 678 c 1,13,14
 765 764 765 764 624 764 c 0,15,16
 538 764 538 764 488.5 722 c 128,-1,17
 439 680 439 680 439 625 c 0,18,19
 439 582 439 582 466 551 c 1,20,21
 495 524 495 524 544 524 c 0,22,23
 591 524 591 524 608.5 540.5 c 128,-1,24
 626 557 626 557 626 586 c 0,25,26
 626 606 626 606 609 641 c 1,27,-1
 603 657 l 1,28,-1
 636 657 l 2,29,30
 667 657 667 657 686.5 627.5 c 128,-1,31
 706 598 706 598 706 559 c 0,32,33
 706 506 706 506 667 468 c 128,-1,34
 628 430 628 430 548 430 c 0,35,36
 476 430 476 430 434 487.5 c 128,-1,37
 392 545 392 545 392 627 c 0,38,39
 392 737 392 737 456 819 c 0,40,41
 527 909 527 909 644 909 c 0,42,43
 790 909 790 909 878 784 c 1,44,45
 953 666 953 666 953 496 c 0,0,1
EndSplineSet
EndChar

StartChar: uni0CE9
Encoding: 3305 3305 275
Width: 991
Flags: W
LayerCount: 2
Fore
SplineSet
908 137 m 0,0,1
 908 78 908 78 865 33 c 128,-1,2
 822 -12 822 -12 761 -12 c 0,3,4
 714 -12 714 -12 676 12.5 c 128,-1,5
 638 37 638 37 601 119 c 0,6,7
 575 176 575 176 550 211 c 1,8,-1
 534 229 l 1,9,10
 501 164 501 164 472 129 c 0,11,12
 390 31 390 31 282 31 c 0,13,14
 185 31 185 31 133 81 c 128,-1,15
 81 131 81 131 81 205 c 0,16,17
 81 283 81 283 143.5 345.5 c 128,-1,18
 206 408 206 408 304 408 c 0,19,20
 374 408 374 408 456 365 c 1,21,-1
 515 322 l 1,22,-1
 532 375 l 1,23,-1
 546 473 l 1,24,25
 546 633 546 633 460 709 c 0,26,27
 427 737 427 737 387 751.5 c 128,-1,28
 347 766 347 766 292 766 c 0,29,30
 233 766 233 766 186.5 739.5 c 128,-1,31
 140 713 140 713 140 666 c 0,32,33
 140 631 140 631 166 606.5 c 128,-1,34
 192 582 192 582 222 582 c 0,35,36
 278 582 278 582 278 631 c 1,37,-1
 274 680 l 1,38,39
 296 680 296 680 306 670 c 1,40,41
 343 653 343 653 343 602 c 0,42,43
 343 563 343 563 312 537 c 1,44,45
 302 526 302 526 285.5 520 c 128,-1,46
 269 514 269 514 245 514 c 0,47,48
 190 514 190 514 139.5 558 c 128,-1,49
 89 602 89 602 89 684 c 0,50,51
 89 770 89 770 150.5 839.5 c 128,-1,52
 212 909 212 909 296 909 c 0,53,54
 403 909 403 909 495 805 c 1,55,56
 595 688 595 688 595 496 c 0,57,58
 595 451 595 451 593 428.5 c 128,-1,59
 591 406 591 406 577 352 c 2,60,-1
 558 281 l 1,61,-1
 583 256 l 1,62,-1
 638 188 l 1,63,64
 673 137 673 137 714 121 c 1,65,66
 740 115 740 115 788 115 c 0,67,68
 822 115 822 115 847 132.5 c 128,-1,69
 872 150 872 150 884 180 c 1,70,-1
 886 197 l 1,71,-1
 890 227 l 1,72,-1
 898 211 l 1,73,74
 908 176 908 176 908 137 c 0,0,1
493 266 m 1,75,76
 470 295 470 295 446 307 c 1,77,78
 386 350 386 350 310 350 c 0,79,80
 239 350 239 350 196 317 c 0,81,82
 153 285 153 285 153 240 c 0,83,84
 153 152 153 152 288 152 c 0,85,86
 380 152 380 152 446 209 c 1,87,-1
 493 266 l 1,75,76
EndSplineSet
EndChar

StartChar: uni0CEA
Encoding: 3306 3306 276
Width: 1017
Flags: W
LayerCount: 2
Fore
SplineSet
935 633 m 0,0,1
 935 457 935 457 773 383 c 0,2,3
 722 360 722 360 613 348 c 1,4,-1
 661 303 l 1,5,6
 712 240 712 240 712 172 c 0,7,8
 712 88 712 88 664 40 c 128,-1,9
 616 -8 616 -8 546 -8 c 0,10,11
 474 -8 474 -8 427 33 c 0,12,13
 374 80 374 80 374 164 c 0,14,15
 374 227 374 227 403 279 c 1,16,-1
 433 313 l 1,17,-1
 384 315 l 1,18,19
 253 315 253 315 171 377 c 0,20,21
 81 444 81 444 81 573 c 0,22,23
 81 731 81 731 143.5 818 c 128,-1,24
 206 905 206 905 306 905 c 0,25,26
 384 905 384 905 441.5 842.5 c 128,-1,27
 499 780 499 780 499 692 c 0,28,29
 499 618 499 618 457 576.5 c 128,-1,30
 415 535 415 535 357 535 c 0,31,32
 314 535 314 535 278.5 565.5 c 128,-1,33
 243 596 243 596 243 651 c 0,34,35
 243 684 243 684 265 707 c 1,36,-1
 286 723 l 1,37,38
 286 674 286 674 317 647 c 0,39,40
 347 621 347 621 380 621 c 256,41,42
 413 621 413 621 435.5 638 c 128,-1,43
 458 655 458 655 458 694 c 0,44,45
 458 743 458 743 427 768 c 128,-1,46
 396 793 396 793 347 793 c 0,47,48
 267 793 267 793 195.5 735.5 c 128,-1,49
 124 678 124 678 124 592 c 0,50,51
 124 489 124 489 190 449 c 1,52,53
 237 416 237 416 343 416 c 0,54,55
 370 416 370 416 393.5 414 c 128,-1,56
 417 412 417 412 441 408 c 0,57,58
 493 401 493 401 525 381 c 1,59,60
 573 381 573 381 614.5 387 c 128,-1,61
 656 393 656 393 685 408 c 1,62,63
 845 465 845 465 845 623 c 0,64,65
 845 731 845 731 744.5 755.5 c 128,-1,66
 644 780 644 780 644 815 c 0,67,68
 644 866 644 866 661 881 c 1,69,70
 681 909 681 909 751 909 c 0,71,72
 843 909 843 909 892 815 c 0,73,74
 935 733 935 733 935 633 c 0,0,1
663 188 m 0,75,76
 663 256 663 256 599 301 c 1,77,-1
 540 328 l 1,78,-1
 491 295 l 1,79,80
 441 250 441 250 441 182 c 0,81,82
 441 139 441 139 474 109 c 1,83,84
 511 84 511 84 550 84 c 0,85,86
 595 84 595 84 629 111.5 c 128,-1,87
 663 139 663 139 663 188 c 0,75,76
EndSplineSet
EndChar

StartChar: uni0CEB
Encoding: 3307 3307 277
Width: 1036
Flags: W
LayerCount: 2
Fore
SplineSet
953 676 m 0,0,1
 953 573 953 573 859 496 c 1,2,3
 829 473 829 473 761 442 c 1,4,5
 824 399 824 399 885.5 305 c 128,-1,6
 947 211 947 211 947 131 c 0,7,8
 947 66 947 66 917 25 c 1,9,10
 884 -14 884 -14 835 -14 c 0,11,12
 796 -14 796 -14 761 16 c 1,13,-1
 736 45 l 1,14,15
 777 61 777 61 798.5 100 c 128,-1,16
 820 139 820 139 820 182 c 0,17,18
 820 227 820 227 811 267 c 128,-1,19
 802 307 802 307 777 354 c 0,20,21
 765 377 765 377 728 426 c 1,22,-1
 624 408 l 1,23,-1
 542 401 l 1,24,25
 542 205 542 205 446 90 c 0,26,27
 368 -4 368 -4 253 -4 c 0,28,29
 181 -4 181 -4 131 38 c 128,-1,30
 81 80 81 80 81 158 c 0,31,32
 81 270 81 270 194.5 354 c 128,-1,33
 308 438 308 438 454 438 c 2,34,-1
 499 438 l 1,35,-1
 497 514 l 1,36,37
 497 649 497 649 423 721 c 1,38,39
 366 774 366 774 276 774 c 0,40,41
 216 774 216 774 170 740.5 c 128,-1,42
 124 707 124 707 124 662 c 0,43,44
 124 623 124 623 153 594 c 0,45,46
 183 565 183 565 228 565 c 0,47,48
 290 565 290 565 310 625 c 1,49,-1
 317 686 l 1,50,-1
 341 662 l 1,51,52
 364 635 364 635 366 610 c 1,53,54
 366 559 366 559 332 523 c 128,-1,55
 298 487 298 487 243 487 c 0,56,57
 181 487 181 487 131 539.5 c 128,-1,58
 81 592 81 592 81 672 c 0,59,60
 81 778 81 778 138.5 843.5 c 128,-1,61
 196 909 196 909 278 909 c 0,62,63
 382 909 382 909 456 809 c 0,64,65
 544 692 544 692 544 498 c 1,66,-1
 546 463 l 1,67,-1
 544 440 l 1,68,-1
 611 446 l 1,69,70
 646 446 646 446 667.5 449.5 c 128,-1,71
 689 453 689 453 697 461 c 1,72,73
 669 500 669 500 656 524 c 0,74,75
 611 614 611 614 611 707 c 0,76,77
 611 795 611 795 660.5 852 c 128,-1,78
 710 909 710 909 777 909 c 0,79,80
 845 909 845 909 899 844.5 c 128,-1,81
 953 780 953 780 953 676 c 0,0,1
912 649 m 0,82,83
 912 711 912 711 872.5 744.5 c 128,-1,84
 833 778 833 778 777 778 c 0,85,86
 724 778 724 778 691 743 c 1,87,88
 656 713 656 713 656 645 c 0,89,90
 656 575 656 575 695 516 c 1,91,92
 712 496 712 496 736 473 c 1,93,94
 792 492 792 492 824 510 c 1,95,96
 912 563 912 563 912 649 c 0,82,83
495 401 m 1,97,-1
 452 399 l 1,98,99
 339 399 339 399 249 344 c 1,100,101
 149 279 149 279 149 182 c 0,102,103
 149 137 149 137 171.5 114.5 c 128,-1,104
 194 92 194 92 253 92 c 0,105,106
 329 92 329 92 423 205 c 0,107,108
 495 293 495 293 495 401 c 1,97,-1
EndSplineSet
EndChar

StartChar: uni0CEC
Encoding: 3308 3308 278
Width: 993
Flags: W
LayerCount: 2
Fore
SplineSet
910 0 m 1,0,-1
 372 0 l 2,1,2
 228 0 228 0 151 96 c 1,3,4
 81 186 81 186 81 317 c 0,5,6
 81 479 81 479 196 594 c 1,7,8
 196 625 196 625 200 641 c 128,-1,9
 204 657 204 657 208 675.5 c 128,-1,10
 212 694 212 694 224 719 c 1,11,-1
 228 737 l 1,12,-1
 233 760 l 1,13,14
 233 786 233 786 208 796.5 c 128,-1,15
 183 807 183 807 138 807 c 2,16,-1
 97 807 l 1,17,-1
 95 836 l 1,18,19
 95 870 95 870 124 889.5 c 128,-1,20
 153 909 153 909 192 909 c 0,21,22
 237 909 237 909 271.5 877.5 c 128,-1,23
 306 846 306 846 306 786 c 0,24,25
 306 756 306 756 275.5 706.5 c 128,-1,26
 245 657 245 657 249 623 c 1,27,-1
 284 641 l 1,28,29
 333 657 333 657 368 657 c 0,30,31
 456 657 456 657 505 614 c 128,-1,32
 554 571 554 571 554 506 c 0,33,34
 554 449 554 449 513 401.5 c 128,-1,35
 472 354 472 354 403 354 c 0,36,37
 296 354 296 354 241 442 c 1,38,39
 226 469 226 469 208 532 c 1,40,41
 173 510 173 510 149.5 454.5 c 128,-1,42
 126 399 126 399 126 348 c 0,43,44
 126 264 126 264 178.5 211 c 128,-1,45
 231 158 231 158 339 158 c 2,46,-1
 910 158 l 1,47,-1
 910 0 l 1,0,-1
517 502 m 0,48,49
 517 539 517 539 478 566.5 c 128,-1,50
 439 594 439 594 364 594 c 0,51,52
 312 594 312 594 271 571 c 0,53,54
 261 565 261 565 257 561 c 1,55,56
 257 543 257 543 260 524.5 c 128,-1,57
 263 506 263 506 271 494 c 1,58,59
 306 424 306 424 405 424 c 0,60,61
 517 424 517 424 517 502 c 0,48,49
EndSplineSet
EndChar

StartChar: uni0CED
Encoding: 3309 3309 279
Width: 1034
Flags: W
LayerCount: 2
Fore
SplineSet
951 0 m 1,0,-1
 257 0 l 2,1,2
 173 0 173 0 124 43 c 1,3,4
 81 86 81 86 81 170 c 0,5,6
 81 317 81 317 314.5 421.5 c 128,-1,7
 548 526 548 526 548 647 c 0,8,9
 548 694 548 694 512 724 c 128,-1,10
 476 754 476 754 429 754 c 0,11,12
 386 754 386 754 354.5 727 c 128,-1,13
 323 700 323 700 323 649 c 0,14,15
 323 623 323 623 360 586 c 1,16,-1
 378 571 l 1,17,-1
 357 565 l 1,18,19
 323 578 323 578 304 592 c 1,20,21
 249 641 249 641 249 727 c 256,22,23
 249 813 249 813 301 861 c 128,-1,24
 353 909 353 909 431 909 c 0,25,26
 511 909 511 909 570.5 855 c 128,-1,27
 630 801 630 801 630 698 c 0,28,29
 630 518 630 518 402.5 411.5 c 128,-1,30
 175 305 175 305 175 223 c 0,31,32
 175 158 175 158 259 158 c 2,33,-1
 951 158 l 1,34,-1
 951 0 l 1,0,-1
EndSplineSet
EndChar

StartChar: uni0CEE
Encoding: 3310 3310 280
Width: 1019
Flags: W
LayerCount: 2
Fore
SplineSet
937 764 m 1,0,-1
 779 764 l 2,1,2
 681 764 681 764 681 696 c 0,3,4
 681 657 681 657 806 533.5 c 128,-1,5
 931 410 931 410 931 303 c 0,6,7
 931 160 931 160 814 70 c 0,8,9
 704 -14 704 -14 550 -14 c 0,10,11
 362 -14 362 -14 233 113 c 0,12,13
 81 262 81 262 81 524 c 0,14,15
 81 715 81 715 157 825 c 1,16,17
 222 922 222 922 317 922 c 0,18,19
 388 922 388 922 446 854 c 1,20,21
 499 782 499 782 499 666 c 0,22,23
 499 578 499 578 455 522.5 c 128,-1,24
 411 467 411 467 345 467 c 0,25,26
 294 467 294 467 251 513 c 128,-1,27
 208 559 208 559 208 641 c 0,28,29
 208 686 208 686 222 745 c 0,30,31
 226 764 226 764 233 770 c 1,32,33
 192 739 192 739 161 686 c 0,34,35
 122 618 122 618 122 528 c 0,36,37
 122 340 122 340 245 229 c 1,38,39
 360 133 360 133 513 133 c 0,40,41
 644 133 644 133 737.5 194.5 c 128,-1,42
 831 256 831 256 831 362 c 0,43,44
 831 446 831 446 723.5 550.5 c 128,-1,45
 616 655 616 655 616 764 c 0,46,47
 616 836 616 836 660 872.5 c 128,-1,48
 704 909 704 909 765 909 c 2,49,-1
 937 909 l 1,50,-1
 937 764 l 1,0,-1
464 670 m 0,51,52
 464 739 464 739 405 774 c 1,53,54
 360 797 360 797 282 797 c 1,55,-1
 265 758 l 1,56,57
 255 721 255 721 249 686 c 1,58,59
 249 635 249 635 280 604 c 1,60,61
 314 578 314 578 355 578 c 0,62,63
 394 578 394 578 429 602.5 c 128,-1,64
 464 627 464 627 464 670 c 0,51,52
EndSplineSet
EndChar

StartChar: uni0CEF
Encoding: 3311 3311 281
Width: 1013
Flags: W
LayerCount: 2
Fore
SplineSet
931 760 m 1,0,-1
 319 760 l 2,1,2
 255 760 255 760 195.5 715 c 128,-1,3
 136 670 136 670 136 598 c 0,4,5
 136 549 136 549 159 506 c 1,6,7
 187 543 187 543 214 559 c 1,8,9
 288 616 288 616 386 616 c 0,10,11
 474 616 474 616 525.5 571 c 128,-1,12
 577 526 577 526 577 463 c 0,13,14
 577 401 577 401 524.5 356 c 128,-1,15
 472 311 472 311 390 311 c 0,16,17
 302 311 302 311 220 365 c 1,18,19
 194 379 194 379 157 418 c 1,20,-1
 155 401 l 1,21,-1
 138 332 l 1,22,23
 138 236 138 236 206 176 c 0,24,25
 265 125 265 125 364 125 c 0,26,27
 423 125 423 125 487 150 c 1,28,-1
 495 133 l 1,29,30
 509 111 509 111 509 92 c 0,31,32
 509 51 509 51 463 18.5 c 128,-1,33
 417 -14 417 -14 353 -14 c 0,34,35
 251 -14 251 -14 179 51 c 1,36,37
 95 123 95 123 95 266 c 0,38,39
 95 375 95 375 122 430 c 1,40,-1
 134 453 l 1,41,42
 81 543 81 543 81 625 c 0,43,44
 81 743 81 743 171 824 c 128,-1,45
 261 905 261 905 411 905 c 2,46,-1
 931 905 l 1,47,-1
 931 760 l 1,0,-1
519 487 m 1,48,49
 519 518 519 518 487.5 544.5 c 128,-1,50
 456 571 456 571 392 571 c 0,51,52
 300 571 300 571 231 516 c 1,53,54
 210 496 210 496 181 457 c 1,55,56
 187 442 187 442 247.5 421.5 c 128,-1,57
 308 401 308 401 368 401 c 0,58,59
 433 401 433 401 474 426 c 128,-1,60
 515 451 515 451 519 487 c 1,48,49
EndSplineSet
EndChar

StartChar: uni0CF1
Encoding: 3313 3313 282
Width: 1071
Flags: W
LayerCount: 2
Fore
SplineSet
1055 796 m 1,0,-1
 138 796 l 1,1,-1
 135 909 l 1,2,-1
 1052 909 l 1,3,-1
 1055 796 l 1,0,-1
1077 6 m 1,4,-1
 160 6 l 1,5,-1
 157 119 l 1,6,-1
 1074 119 l 1,7,-1
 1077 6 l 1,4,-1
971 25 m 1,8,-1
 138 798 l 1,9,-1
 242 892 l 1,10,-1
 1075 119 l 1,11,-1
 971 25 l 1,8,-1
156 116 m 1,12,-1
 955 890 l 1,13,-1
 1055 796 l 1,14,-1
 256 22 l 1,15,-1
 156 116 l 1,12,-1
EndSplineSet
EndChar

StartChar: uni0CF2
Encoding: 3314 3314 283
Width: 702
Flags: W
LayerCount: 2
Fore
SplineSet
755 471 m 0,0,1
 755 246 755 246 672 121 c 128,-1,2
 589 -4 589 -4 417 -4 c 0,3,4
 255 -4 255 -4 169 121 c 1,5,6
 124 184 124 184 102.5 270 c 128,-1,7
 81 356 81 356 81 471 c 0,8,9
 81 676 81 676 167 792.5 c 128,-1,10
 253 909 253 909 415 909 c 0,11,12
 583 909 583 909 669 793.5 c 128,-1,13
 755 678 755 678 755 471 c 0,0,1
681 459 m 0,14,15
 681 557 681 557 599 642 c 128,-1,16
 517 727 517 727 417 727 c 0,17,18
 314 727 314 727 234.5 644 c 128,-1,19
 155 561 155 561 155 459 c 0,20,21
 155 334 155 334 237 258 c 0,22,23
 308 193 308 193 417 193 c 0,24,25
 527 193 527 193 597 252 c 0,26,27
 681 324 681 324 681 459 c 0,14,15
1590 475 m 0,28,29
 1590 250 1590 250 1507 125 c 128,-1,30
 1424 0 1424 0 1252 0 c 0,31,32
 1090 0 1090 0 1004 125 c 1,33,34
 959 188 959 188 937.5 274 c 128,-1,35
 916 360 916 360 916 475 c 0,36,37
 916 680 916 680 1002 796.5 c 128,-1,38
 1088 913 1088 913 1250 913 c 0,39,40
 1418 913 1418 913 1504 797.5 c 128,-1,41
 1590 682 1590 682 1590 475 c 0,28,29
1516 463 m 0,42,43
 1516 561 1516 561 1434 646 c 128,-1,44
 1352 731 1352 731 1252 731 c 0,45,46
 1149 731 1149 731 1069.5 648 c 128,-1,47
 990 565 990 565 990 463 c 0,48,49
 990 338 990 338 1072 262 c 0,50,51
 1143 197 1143 197 1252 197 c 0,52,53
 1362 197 1362 197 1432 256 c 0,54,55
 1516 328 1516 328 1516 463 c 0,42,43
EndSplineSet
EndChar

StartChar: quoteleft
Encoding: 8216 8216 286
Width: 557
Flags: W
LayerCount: 2
Fore
SplineSet
63 897 m 0,0,1
 63 1051 63 1051 170 1166 c 0,2,3
 205 1204 205 1204 276 1245 c 1,4,-1
 307 1219 l 1,5,-1
 262 1182 l 1,6,7
 157 1084 157 1084 157 973 c 1,8,-1
 184 975 l 1,9,10
 233 975 233 975 260 959 c 0,11,12
 305 932 305 932 305 871 c 0,13,14
 305 815 305 815 269 782.5 c 128,-1,15
 233 750 233 750 188 750 c 0,16,17
 139 750 139 750 101 788 c 128,-1,18
 63 826 63 826 63 897 c 0,0,1
EndSplineSet
EndChar

StartChar: quoteright
Encoding: 8217 8217 287
Width: 557
Flags: W
LayerCount: 2
Fore
SplineSet
307 1098 m 0,0,1
 307 944 307 944 200 829 c 0,2,3
 165 791 165 791 94 750 c 1,4,-1
 63 776 l 1,5,-1
 108 813 l 1,6,7
 213 911 213 911 213 1022 c 1,8,-1
 186 1020 l 1,9,10
 137 1020 137 1020 110 1036 c 0,11,12
 65 1063 65 1063 65 1124 c 0,13,14
 65 1180 65 1180 101 1212.5 c 128,-1,15
 137 1245 137 1245 182 1245 c 0,16,17
 231 1245 231 1245 269 1207 c 128,-1,18
 307 1169 307 1169 307 1098 c 0,0,1
EndSplineSet
EndChar

StartChar: quotedblleft
Encoding: 8220 8220 289
Width: 557
Flags: W
LayerCount: 2
Fore
SplineSet
63 897 m 0,0,1
 63 1051 63 1051 170 1166 c 0,2,3
 205 1204 205 1204 276 1245 c 1,4,-1
 307 1219 l 1,5,-1
 262 1182 l 1,6,7
 157 1084 157 1084 157 973 c 1,8,-1
 184 975 l 1,9,10
 233 975 233 975 260 959 c 0,11,12
 305 932 305 932 305 871 c 0,13,14
 305 815 305 815 269 782.5 c 128,-1,15
 233 750 233 750 188 750 c 0,16,17
 139 750 139 750 101 788 c 128,-1,18
 63 826 63 826 63 897 c 0,0,1
395 897 m 0,19,20
 395 1051 395 1051 502 1166 c 0,21,22
 537 1204 537 1204 608 1245 c 1,23,-1
 639 1219 l 1,24,-1
 594 1182 l 1,25,26
 489 1084 489 1084 489 973 c 1,27,-1
 516 975 l 1,28,29
 565 975 565 975 592 959 c 0,30,31
 637 932 637 932 637 871 c 0,32,33
 637 815 637 815 601 782.5 c 128,-1,34
 565 750 565 750 520 750 c 0,35,36
 471 750 471 750 433 788 c 128,-1,37
 395 826 395 826 395 897 c 0,19,20
EndSplineSet
EndChar

StartChar: quotedblright
Encoding: 8221 8221 290
Width: 557
Flags: W
LayerCount: 2
Fore
SplineSet
639 1098 m 0,0,1
 639 944 639 944 532 829 c 0,2,3
 497 791 497 791 426 750 c 1,4,-1
 395 776 l 1,5,-1
 440 813 l 1,6,7
 545 911 545 911 545 1022 c 1,8,-1
 518 1020 l 1,9,10
 469 1020 469 1020 442 1036 c 0,11,12
 397 1063 397 1063 397 1124 c 0,13,14
 397 1180 397 1180 433 1212.5 c 128,-1,15
 469 1245 469 1245 514 1245 c 0,16,17
 563 1245 563 1245 601 1207 c 128,-1,18
 639 1169 639 1169 639 1098 c 0,0,1
307 1098 m 0,19,20
 307 944 307 944 200 829 c 0,21,22
 165 791 165 791 94 750 c 1,23,-1
 63 776 l 1,24,-1
 108 813 l 1,25,26
 213 911 213 911 213 1022 c 1,27,-1
 186 1020 l 1,28,29
 137 1020 137 1020 110 1036 c 0,30,31
 65 1063 65 1063 65 1124 c 0,32,33
 65 1180 65 1180 101 1212.5 c 128,-1,34
 137 1245 137 1245 182 1245 c 0,35,36
 231 1245 231 1245 269 1207 c 128,-1,37
 307 1169 307 1169 307 1098 c 0,19,20
EndSplineSet
EndChar

StartChar: minus
Encoding: 8722 8722 309
Width: 1014
Flags: W
LayerCount: 2
Fore
SplineSet
87 647 m 1,0,-1
 87 787 l 1,1,-1
 926 787 l 1,2,-1
 927 786 l 1,3,-1
 927 647 l 1,4,-1
 87 647 l 1,0,-1
EndSplineSet
EndChar

StartChar: uni25CC
Encoding: 9676 9676 316
Width: 702
Flags: W
LayerCount: 2
Fore
SplineSet
483 910 m 1,0,1
 554 906 554 906 584 897 c 1,2,-1
 585 895 l 1,3,4
 569 796 569 796 565 790 c 1,5,-1
 564 790 l 1,6,7
 514 799 514 799 485 799 c 256,8,9
 456 799 456 799 405 790 c 1,10,11
 401 795 401 795 385 897 c 1,12,13
 417 906 417 906 483 910 c 1,0,1
237 830 m 1,14,-1
 297 744 l 1,15,-1
 297 742 l 1,16,17
 259 715 259 715 215 671 c 1,18,-1
 184 627 l 1,19,-1
 181 627 l 1,20,-1
 95 687 l 1,21,-1
 95 695 l 1,22,23
 159 787 159 787 235 830 c 1,24,-1
 237 830 l 1,14,-1
731 830 m 1,25,-1
 737 830 l 1,26,27
 822 775 822 775 875 693 c 1,28,-1
 875 687 l 1,29,-1
 790 627 l 1,30,-1
 786 627 l 1,31,32
 730 708 730 708 673 739 c 1,33,-1
 673 744 l 1,34,-1
 731 830 l 1,25,-1
42 554 m 1,35,36
 146 538 146 538 151 534 c 1,37,38
 142 503 142 503 142 463 c 2,39,-1
 142 445 l 2,40,41
 142 406 142 406 151 374 c 1,42,43
 144 370 144 370 44 354 c 1,44,45
 31 386 31 386 31 445 c 2,46,-1
 31 463 l 2,47,48
 31 511 31 511 42 554 c 1,35,36
927 554 m 1,49,50
 939 512 939 512 939 452 c 0,51,52
 939 400 939 400 927 354 c 1,53,54
 826 370 826 370 819 374 c 1,55,56
 828 412 828 412 828 449 c 2,57,-1
 828 456 l 2,58,59
 828 500 828 500 819 534 c 1,60,61
 826 538 826 538 927 554 c 1,49,50
786 283 m 1,62,-1
 877 219 l 1,63,64
 825 135 825 135 737 78 c 1,65,-1
 731 78 l 1,66,-1
 673 164 l 1,67,-1
 673 169 l 1,68,69
 739 209 739 209 786 283 c 1,62,-1
181 281 m 1,70,-1
 184 281 l 1,71,72
 238 202 238 202 297 169 c 1,73,-1
 297 164 l 1,74,-1
 237 78 l 1,75,76
 217 78 217 78 128 169 c 1,77,78
 93 215 93 215 93 219 c 1,79,-1
 181 281 l 1,70,-1
565 120 m 1,80,81
 569 113 569 113 585 13 c 1,82,83
 543 0 543 0 489 0 c 2,84,-1
 480 0 l 2,85,86
 424 0 424 0 385 13 c 1,87,88
 402 118 402 118 405 118 c 0,89,90
 452 111 452 111 478 111 c 2,91,-1
 492 111 l 2,92,93
 532 111 532 111 565 120 c 1,80,81
EndSplineSet
EndChar

StartChar: glyph_130
Encoding: 65539 -1 319
Width: 657
Flags: W
LayerCount: 2
Fore
SplineSet
1449 399 m 1,0,1
 1453 225 1453 225 1369 109 c 1,2,3
 1299 8 1299 8 1144 -8 c 1,4,5
 752 -12 752 -12 808 379 c 1,6,7
 886 195 886 195 1096 174 c 1,8,9
 1350 172 1350 172 1377 381 c 1,10,11
 1393 670 1393 670 1105 723 c 1,12,-1
 1037 723 l 1,13,-1
 1037 899 l 1,14,-1
 1287 899 l 1,15,-1
 1287 725 l 1,16,17
 1449 592 1449 592 1449 399 c 1,0,1
EndSplineSet
EndChar

StartChar: glyph_131
Encoding: 65540 -1 320
Width: 241
Flags: W
LayerCount: 2
Fore
SplineSet
202 256 m 0,0,1
 202 8 202 8 130 -123 c 1,2,3
 -20 -367 -20 -367 -231 -362 c 1,4,5
 -519 -340 -519 -340 -593 20 c 1,6,7
 -448 -195 -448 -195 -274 -190 c 0,8,9
 -91 -184 -91 -184 8 -75.5 c 128,-1,10
 107 33 107 33 107 195 c 0,11,12
 107 301 107 301 68.5 411.5 c 128,-1,13
 30 522 30 522 -48 633 c 1,14,15
 -58 651 -58 651 -65 680 c 1,16,17
 -65 715 -65 715 -42.5 739.5 c 128,-1,18
 -20 764 -20 764 17 764 c 0,19,20
 93 764 93 764 147.5 612.5 c 128,-1,21
 202 461 202 461 202 256 c 0,0,1
EndSplineSet
EndChar

StartChar: glyph_132
Encoding: 65541 -1 321
Width: 622
Flags: W
LayerCount: 2
Fore
SplineSet
586 414 m 1,0,1
 590 238 590 238 506 117 c 0,2,3
 435 16 435 16 279 0 c 1,4,5
 -151 -4 -151 -4 -96 393 c 1,6,7
 -16 205 -16 205 232 184 c 1,8,9
 375 190 375 190 441 240 c 0,10,11
 515 295 515 295 515 395 c 0,12,13
 515 522 515 522 430 603 c 128,-1,14
 345 684 345 684 177 729 c 1,15,16
 146 739 146 739 129.5 761.5 c 128,-1,17
 113 784 113 784 111 819 c 1,18,19
 111 852 111 852 126.5 880.5 c 128,-1,20
 142 909 142 909 185 909 c 0,21,22
 316 909 316 909 445 762 c 1,23,24
 586 606 586 606 586 414 c 1,0,1
EndSplineSet
EndChar

StartChar: glyph_133
Encoding: 65542 -1 322
Width: 622
Flags: W
LayerCount: 2
Fore
SplineSet
586 414 m 1,0,1
 590 238 590 238 506 117 c 0,2,3
 435 16 435 16 279 0 c 1,4,5
 -151 -4 -151 -4 -96 393 c 1,6,7
 -16 205 -16 205 232 184 c 1,8,9
 375 190 375 190 441 240 c 0,10,11
 515 295 515 295 515 395 c 0,12,13
 515 522 515 522 430 603 c 128,-1,14
 345 684 345 684 177 729 c 1,15,16
 146 739 146 739 129.5 761.5 c 128,-1,17
 113 784 113 784 111 819 c 1,18,19
 111 852 111 852 126.5 880.5 c 128,-1,20
 142 909 142 909 185 909 c 0,21,22
 316 909 316 909 445 762 c 1,23,24
 586 606 586 606 586 414 c 1,0,1
EndSplineSet
EndChar

StartChar: glyph_134
Encoding: 65543 -1 323
Width: 778
Flags: W
LayerCount: 2
Fore
SplineSet
734 356 m 1,0,1
 711 18 711 18 469 18 c 0,2,3
 226 18 226 18 205 328 c 1,4,5
 205 614 205 614 410 614 c 0,6,7
 465 614 465 614 506 582.5 c 128,-1,8
 547 551 547 551 547 500 c 0,9,10
 547 397 547 397 457 389 c 1,11,12
 426 389 426 389 404 410 c 1,13,14
 385 432 385 432 385 461 c 0,15,16
 385 518 385 518 443 518 c 2,17,-1
 471 518 l 1,18,19
 465 563 465 563 387 561 c 1,20,21
 281 545 281 545 267 436 c 1,22,23
 260 311 260 311 311.5 237.5 c 128,-1,24
 363 164 363 164 449 164 c 1,25,26
 545 154 545 154 611 209 c 1,27,28
 680 285 680 285 664 414 c 1,29,30
 664 561 664 561 571 689 c 128,-1,31
 478 817 478 817 344 817 c 0,32,33
 232 817 232 817 149 728 c 128,-1,34
 66 639 66 639 66 469 c 0,35,36
 66 397 66 397 95 225 c 1,37,38
 101 178 101 178 105 139 c 128,-1,39
 109 100 109 100 109 63 c 0,40,41
 109 -94 109 -94 12.5 -198.5 c 128,-1,42
 -84 -303 -84 -303 -208 -303 c 1,43,44
 -362 -319 -362 -319 -464 -229 c 1,45,46
 -563 -137 -563 -137 -614 63 c 1,47,48
 -557 -10 -557 -10 -514 -49 c 0,49,50
 -409 -141 -409 -141 -266 -133 c 1,51,52
 -102 -129 -102 -129 -38.5 -55.5 c 128,-1,53
 25 18 25 18 21 135 c 1,54,55
 21 205 21 205 10.5 299 c 128,-1,56
 0 393 0 393 0 504 c 0,57,58
 0 760 0 760 105 864 c 0,59,60
 164 922 164 922 312 934 c 1,61,62
 514 946 514 946 635 784 c 1,63,64
 738 614 738 614 734 356 c 1,0,1
EndSplineSet
EndChar

StartChar: glyph_135
Encoding: 65544 -1 324
Width: 118
Flags: W
LayerCount: 2
Fore
SplineSet
967 399 m 0,0,1
 967 186 967 186 896.5 93 c 128,-1,2
 826 0 826 0 670 0 c 0,3,4
 562 0 562 0 491.5 96.5 c 128,-1,5
 421 193 421 193 421 324 c 0,6,7
 421 418 421 418 474 471 c 0,8,9
 521 518 521 518 587 518 c 0,10,11
 646 518 646 518 687 483 c 0,12,13
 732 446 732 446 732 387 c 0,14,15
 732 336 732 336 704.5 310.5 c 128,-1,16
 677 285 677 285 638 285 c 0,17,18
 605 285 605 285 578 303 c 1,19,20
 554 330 554 330 554 365 c 0,21,22
 554 383 554 383 570 412 c 1,23,-1
 580 424 l 1,24,25
 552 420 552 420 539 414 c 0,26,27
 492 391 492 391 492 332 c 0,28,29
 492 279 492 279 548 225 c 1,30,31
 601 178 601 178 664 178 c 0,32,33
 752 178 752 178 824 241.5 c 128,-1,34
 896 305 896 305 896 401 c 0,35,36
 896 573 896 573 800 672 c 1,37,38
 752 717 752 717 697 740.5 c 128,-1,39
 642 764 642 764 570 764 c 0,40,41
 462 764 462 764 384 681 c 128,-1,42
 306 598 306 598 306 483 c 2,43,-1
 306 463 l 1,44,-1
 310 430 l 1,45,-1
 324 340 l 1,46,-1
 337 231 l 1,47,48
 337 133 337 133 288 72 c 1,49,50
 234 0 234 0 128 0 c 1,51,52
 -138 8 -138 8 -161 391 c 1,53,54
 -16 143 -16 143 115 150 c 1,55,56
 267 172 267 172 242 373 c 1,57,-1
 232 444 l 1,58,-1
 228 514 l 1,59,60
 228 698 228 698 318 803.5 c 128,-1,61
 408 909 408 909 554 909 c 0,62,63
 730 909 730 909 848.5 770 c 128,-1,64
 967 631 967 631 967 399 c 0,0,1
EndSplineSet
EndChar

StartChar: glyph_136
Encoding: 65545 -1 325
Width: 118
Flags: W
LayerCount: 2
Fore
SplineSet
967 399 m 0,0,1
 967 186 967 186 896.5 93 c 128,-1,2
 826 0 826 0 670 0 c 0,3,4
 562 0 562 0 491.5 96.5 c 128,-1,5
 421 193 421 193 421 324 c 0,6,7
 421 418 421 418 474 471 c 0,8,9
 521 518 521 518 587 518 c 0,10,11
 646 518 646 518 687 483 c 0,12,13
 732 446 732 446 732 387 c 0,14,15
 732 336 732 336 704.5 310.5 c 128,-1,16
 677 285 677 285 638 285 c 0,17,18
 605 285 605 285 578 303 c 1,19,20
 554 330 554 330 554 365 c 0,21,22
 554 383 554 383 570 412 c 1,23,-1
 580 424 l 1,24,25
 552 420 552 420 539 414 c 0,26,27
 492 391 492 391 492 332 c 0,28,29
 492 279 492 279 548 225 c 1,30,31
 601 178 601 178 664 178 c 0,32,33
 752 178 752 178 824 241.5 c 128,-1,34
 896 305 896 305 896 401 c 0,35,36
 896 573 896 573 800 672 c 1,37,38
 752 717 752 717 697 740.5 c 128,-1,39
 642 764 642 764 570 764 c 0,40,41
 462 764 462 764 384 681 c 128,-1,42
 306 598 306 598 306 483 c 2,43,-1
 306 463 l 1,44,-1
 310 430 l 1,45,-1
 324 340 l 1,46,-1
 337 231 l 1,47,48
 337 133 337 133 288 72 c 1,49,50
 234 0 234 0 128 0 c 1,51,52
 -138 8 -138 8 -161 391 c 1,53,54
 -16 143 -16 143 115 150 c 1,55,56
 267 172 267 172 242 373 c 1,57,-1
 232 444 l 1,58,-1
 228 514 l 1,59,60
 228 698 228 698 318 803.5 c 128,-1,61
 408 909 408 909 554 909 c 0,62,63
 730 909 730 909 848.5 770 c 128,-1,64
 967 631 967 631 967 399 c 0,0,1
EndSplineSet
EndChar

StartChar: glyph_137
Encoding: 65546 -1 326
Width: 335
Flags: W
LayerCount: 2
Fore
SplineSet
298 -102 m 0,0,1
 298 -279 298 -279 236 -381 c 1,2,3
 163 -506 163 -506 15 -506 c 0,4,5
 -104 -506 -104 -506 -177 -418 c 0,6,7
 -245 -336 -245 -336 -245 -233 c 0,8,9
 -245 -145 -245 -145 -198 -87 c 128,-1,10
 -151 -29 -151 -29 -71 -29 c 0,11,12
 -18 -29 -18 -29 21 -61 c 1,13,14
 56 -98 56 -98 56 -154 c 0,15,16
 56 -211 56 -211 24.5 -253 c 128,-1,17
 -7 -295 -7 -295 -69 -295 c 0,18,19
 -122 -295 -122 -295 -151 -238 c 1,20,-1
 -163 -213 l 1,21,22
 -163 -289 -163 -289 -114 -342 c 1,23,24
 -71 -383 -71 -383 -9 -383 c 0,25,26
 97 -383 97 -383 156 -293 c 1,27,28
 208 -211 208 -211 208 -72 c 0,29,30
 208 39 208 39 171 147.5 c 128,-1,31
 134 256 134 256 60 350 c 1,32,-1
 85 367 l 2,33,34
 101 379 101 379 120 379 c 0,35,36
 124 379 124 379 136 375 c 1,37,38
 195 344 195 344 246.5 197.5 c 128,-1,39
 298 51 298 51 298 -102 c 0,0,1
-12 -170 m 0,40,41
 -12 -145 -12 -145 -26 -129 c 1,42,43
 -44 -117 -44 -117 -71 -115 c 1,44,45
 -102 -115 -102 -115 -126.5 -131 c 128,-1,46
 -151 -147 -151 -147 -151 -174 c 1,47,48
 -145 -193 -145 -193 -127.5 -205 c 128,-1,49
 -110 -217 -110 -217 -81 -221 c 1,50,51
 -46 -221 -46 -221 -29 -203.5 c 128,-1,52
 -12 -186 -12 -186 -12 -170 c 0,40,41
EndSplineSet
EndChar

StartChar: glyph_138
Encoding: 65547 -1 327
Width: 335
Flags: W
LayerCount: 2
Fore
SplineSet
298 -102 m 0,0,1
 298 -279 298 -279 236 -381 c 1,2,3
 163 -506 163 -506 15 -506 c 0,4,5
 -104 -506 -104 -506 -177 -418 c 0,6,7
 -245 -336 -245 -336 -245 -233 c 0,8,9
 -245 -145 -245 -145 -198 -87 c 128,-1,10
 -151 -29 -151 -29 -71 -29 c 0,11,12
 -18 -29 -18 -29 21 -61 c 1,13,14
 56 -98 56 -98 56 -154 c 0,15,16
 56 -211 56 -211 24.5 -253 c 128,-1,17
 -7 -295 -7 -295 -69 -295 c 0,18,19
 -122 -295 -122 -295 -151 -238 c 1,20,-1
 -163 -213 l 1,21,22
 -163 -289 -163 -289 -114 -342 c 1,23,24
 -71 -383 -71 -383 -9 -383 c 0,25,26
 97 -383 97 -383 156 -293 c 1,27,28
 208 -211 208 -211 208 -72 c 0,29,30
 208 39 208 39 171 147.5 c 128,-1,31
 134 256 134 256 60 350 c 1,32,-1
 85 367 l 2,33,34
 101 379 101 379 120 379 c 0,35,36
 124 379 124 379 136 375 c 1,37,38
 195 344 195 344 246.5 197.5 c 128,-1,39
 298 51 298 51 298 -102 c 0,0,1
-12 -170 m 0,40,41
 -12 -145 -12 -145 -26 -129 c 1,42,43
 -44 -117 -44 -117 -71 -115 c 1,44,45
 -102 -115 -102 -115 -126.5 -131 c 128,-1,46
 -151 -147 -151 -147 -151 -174 c 1,47,48
 -145 -193 -145 -193 -127.5 -205 c 128,-1,49
 -110 -217 -110 -217 -81 -221 c 1,50,51
 -46 -221 -46 -221 -29 -203.5 c 128,-1,52
 -12 -186 -12 -186 -12 -170 c 0,40,41
EndSplineSet
EndChar

StartChar: glyph_139
Encoding: 65548 -1 328
Width: 634
Flags: W
LayerCount: 2
Fore
SplineSet
213 -268 m 1,0,1
 213 -424 213 -424 160 -512 c 1,2,3
 96 -621 96 -621 -37 -621 c 0,4,5
 -137 -621 -137 -621 -205 -547 c 1,6,7
 -262 -473 -262 -473 -262 -381 c 0,8,9
 -262 -307 -262 -307 -220 -255 c 128,-1,10
 -178 -203 -178 -203 -110 -203 c 0,11,12
 -61 -203 -61 -203 -29 -233 c 1,13,14
 2 -268 2 -268 2 -313 c 0,15,16
 2 -367 2 -367 -25.5 -402.5 c 128,-1,17
 -53 -438 -53 -438 -106 -438 c 0,18,19
 -151 -438 -151 -438 -180 -389 c 1,20,-1
 -190 -367 l 1,21,22
 -190 -434 -190 -434 -147 -477 c 1,23,24
 -110 -518 -110 -518 -57 -518 c 0,25,26
 37 -518 37 -518 88 -434 c 1,27,28
 133 -367 133 -367 133 -244 c 1,29,30
 123 55 123 55 2 84 c 1,31,-1
 2 152 l 1,32,-1
 467 152 l 2,33,34
 617 152 617 152 621 -78 c 1,35,36
 623 -324 623 -324 461 -326 c 0,37,38
 322 -328 322 -328 316 -141 c 1,39,40
 328 33 328 33 430 25 c 1,41,42
 490 31 490 31 498 -35 c 1,43,44
 498 -111 498 -111 430 -111 c 1,45,46
 391 -106 391 -106 377 -74 c 1,47,48
 367 -102 367 -102 369 -147 c 1,49,50
 375 -236 375 -236 467 -244 c 1,51,52
 582 -225 582 -225 578 -70 c 1,53,54
 567 55 567 55 475 84 c 1,55,-1
 105 84 l 1,56,57
 199 -2 199 -2 213 -268 c 1,0,1
-57 -326 m 0,58,59
 -57 -307 -57 -307 -72 -293 c 0,60,61
 -84 -283 -84 -283 -110 -276 c 1,62,63
 -135 -276 -135 -276 -156.5 -293.5 c 128,-1,64
 -178 -311 -178 -311 -178 -332 c 1,65,66
 -174 -348 -174 -348 -157.5 -359.5 c 128,-1,67
 -141 -371 -141 -371 -117 -375 c 1,68,69
 -88 -375 -88 -375 -72.5 -360.5 c 128,-1,70
 -57 -346 -57 -346 -57 -326 c 0,58,59
EndSplineSet
EndChar

StartChar: glyph_140
Encoding: 65549 -1 329
Width: 1150
Flags: W
LayerCount: 2
Fore
SplineSet
456 821 m 1,0,-1
 550 741 l 1,1,2
 649 668 649 668 767 649 c 1,3,4
 962 637 962 637 964 700 c 1,5,6
 972 739 972 739 751 735 c 1,7,-1
 751 911 l 1,8,-1
 1003 911 l 1,9,-1
 1003 780 l 1,10,11
 1056 764 1056 764 1063 690 c 128,-1,12
 1070 616 1070 616 997.5 570 c 128,-1,13
 925 524 925 524 816 524 c 0,14,15
 722 524 722 524 608 602 c 0,16,17
 558 637 558 637 507 692 c 1,18,-1
 499 705 l 1,19,-1
 456 821 l 1,0,-1
1093 977 m 1,20,21
 1086 754 1086 754 929 735 c 1,22,-1
 753 735 l 1,23,-1
 753 911 l 1,24,-1
 839 911 l 1,25,26
 992 907 992 907 992 1010 c 1,27,28
 996 1145 996 1145 873 1149 c 1,29,30
 822 1149 822 1149 790.5 1126.5 c 128,-1,31
 759 1104 759 1104 759 1071 c 0,32,33
 759 1036 759 1036 787 1020 c 1,34,35
 779 1075 779 1075 843 1075 c 0,36,37
 898 1075 898 1075 892 1018 c 1,38,39
 880 963 880 963 808 967 c 1,40,41
 705 975 705 975 699 1063 c 1,42,43
 699 1126 699 1126 754.5 1170 c 128,-1,44
 810 1214 810 1214 886 1214 c 0,45,46
 970 1214 970 1214 1027 1157 c 0,47,48
 1093 1090 1093 1090 1093 977 c 1,20,21
EndSplineSet
EndChar

StartChar: glyph_141
Encoding: 65550 -1 330
Width: 1150
Flags: W
LayerCount: 2
Fore
SplineSet
456 821 m 1,0,-1
 550 741 l 1,1,2
 649 668 649 668 767 649 c 1,3,4
 962 637 962 637 964 700 c 1,5,6
 972 739 972 739 751 735 c 1,7,-1
 751 911 l 1,8,-1
 1003 911 l 1,9,-1
 1003 780 l 1,10,11
 1056 764 1056 764 1063 690 c 128,-1,12
 1070 616 1070 616 997.5 570 c 128,-1,13
 925 524 925 524 816 524 c 0,14,15
 722 524 722 524 608 602 c 0,16,17
 558 637 558 637 507 692 c 1,18,-1
 499 705 l 1,19,-1
 456 821 l 1,0,-1
1689 0 m 1,20,-1
 1406 0 l 1,21,22
 1287 72 1287 72 1222.5 216 c 128,-1,23
 1158 360 1158 360 1158 508 c 0,24,25
 1158 674 1158 674 1233 791.5 c 128,-1,26
 1308 909 1308 909 1435 909 c 0,27,28
 1537 909 1537 909 1593 840 c 1,29,30
 1642 784 1642 784 1642 690 c 0,31,32
 1642 604 1642 604 1589.5 530.5 c 128,-1,33
 1537 457 1537 457 1455 457 c 256,34,35
 1373 457 1373 457 1330 514 c 128,-1,36
 1287 571 1287 571 1287 662 c 2,37,-1
 1287 678 l 1,38,39
 1240 610 1240 610 1240 508 c 0,40,41
 1240 358 1240 358 1347 221 c 1,42,43
 1472 66 1472 66 1689 0 c 1,20,-1
1566 684 m 256,44,45
 1566 719 1566 719 1541.5 743.5 c 128,-1,46
 1517 768 1517 768 1457 768 c 0,47,48
 1427 768 1427 768 1396 756 c 1,49,50
 1382 752 1382 752 1363 739 c 1,51,52
 1363 678 1363 678 1386.5 641 c 128,-1,53
 1410 604 1410 604 1472 604 c 0,54,55
 1509 604 1509 604 1537.5 626.5 c 128,-1,56
 1566 649 1566 649 1566 684 c 256,44,45
1093 977 m 1,57,58
 1086 754 1086 754 929 735 c 1,59,-1
 753 735 l 1,60,-1
 753 911 l 1,61,-1
 839 911 l 1,62,63
 992 907 992 907 992 1010 c 1,64,65
 996 1145 996 1145 873 1149 c 1,66,67
 822 1149 822 1149 790.5 1126.5 c 128,-1,68
 759 1104 759 1104 759 1071 c 0,69,70
 759 1036 759 1036 787 1020 c 1,71,72
 779 1075 779 1075 843 1075 c 0,73,74
 898 1075 898 1075 892 1018 c 1,75,76
 880 963 880 963 808 967 c 1,77,78
 705 975 705 975 699 1063 c 1,79,80
 699 1126 699 1126 754.5 1170 c 128,-1,81
 810 1214 810 1214 886 1214 c 0,82,83
 970 1214 970 1214 1027 1157 c 0,84,85
 1093 1090 1093 1090 1093 977 c 1,57,58
EndSplineSet
EndChar

StartChar: glyph_142
Encoding: 65551 -1 331
Width: 1014
Flags: W
LayerCount: 2
Fore
SplineSet
457 821 m 1,0,-1
 551 741 l 1,1,2
 650 668 650 668 768 649 c 1,3,4
 963 637 963 637 965 700 c 1,5,6
 973 739 973 739 752 735 c 1,7,-1
 752 911 l 1,8,-1
 1004 911 l 1,9,-1
 1004 780 l 1,10,11
 1057 764 1057 764 1064 690 c 128,-1,12
 1071 616 1071 616 998.5 570 c 128,-1,13
 926 524 926 524 817 524 c 0,14,15
 723 524 723 524 609 602 c 0,16,17
 559 637 559 637 508 692 c 1,18,-1
 500 705 l 1,19,-1
 457 821 l 1,0,-1
1094 977 m 1,20,21
 1087 754 1087 754 930 735 c 1,22,-1
 754 735 l 1,23,-1
 754 911 l 1,24,-1
 840 911 l 1,25,26
 993 907 993 907 993 1010 c 1,27,28
 997 1145 997 1145 874 1149 c 1,29,30
 823 1149 823 1149 791.5 1126.5 c 128,-1,31
 760 1104 760 1104 760 1071 c 0,32,33
 760 1036 760 1036 788 1020 c 1,34,35
 780 1075 780 1075 844 1075 c 0,36,37
 899 1075 899 1075 893 1018 c 1,38,39
 881 963 881 963 809 967 c 1,40,41
 706 975 706 975 700 1063 c 1,42,43
 700 1126 700 1126 755.5 1170 c 128,-1,44
 811 1214 811 1214 887 1214 c 0,45,46
 971 1214 971 1214 1028 1157 c 0,47,48
 1094 1090 1094 1090 1094 977 c 1,20,21
1501 -280 m 0,49,50
 1501 -383 1501 -383 1452 -463 c 0,51,52
 1397 -551 1397 -551 1295 -551 c 0,53,54
 1188 -551 1188 -551 1122.5 -465 c 128,-1,55
 1057 -379 1057 -379 1057 -270 c 0,56,57
 1057 -190 1057 -190 1098 -132 c 128,-1,58
 1139 -74 1139 -74 1207 -74 c 0,59,60
 1260 -74 1260 -74 1291.5 -115 c 128,-1,61
 1323 -156 1323 -156 1323 -207 c 256,62,63
 1323 -258 1323 -258 1291.5 -298 c 128,-1,64
 1260 -338 1260 -338 1204 -338 c 0,65,66
 1163 -338 1163 -338 1139 -299 c 1,67,-1
 1116 -258 l 1,68,69
 1116 -332 1116 -332 1160 -386 c 128,-1,70
 1204 -440 1204 -440 1262 -440 c 0,71,72
 1315 -440 1315 -440 1365 -385 c 128,-1,73
 1415 -330 1415 -330 1415 -254 c 0,74,75
 1415 -151 1415 -151 1321 -35 c 1,76,77
 1293 2 1293 2 1229 55 c 1,78,-1
 1274 141 l 1,79,80
 1295 191 1295 191 1297 219 c 1,81,82
 1297 268 1297 268 1264 338 c 1,83,-1
 1233 399 l 1,84,85
 1284 399 1284 399 1335.5 340 c 128,-1,86
 1387 281 1387 281 1387 223 c 0,87,88
 1387 170 1387 170 1368 117 c 1,89,90
 1350 55 1350 55 1325 39 c 1,91,-1
 1385 -8 l 1,92,93
 1501 -117 1501 -117 1501 -280 c 0,49,50
1262 -215 m 0,94,95
 1262 -199 1262 -199 1247.5 -182.5 c 128,-1,96
 1233 -166 1233 -166 1204 -162 c 1,97,98
 1168 -162 1168 -162 1145 -188 c 1,99,-1
 1131 -215 l 1,100,-1
 1143 -235 l 1,101,102
 1166 -256 1166 -256 1198 -256 c 0,103,104
 1262 -256 1262 -256 1262 -215 c 0,94,95
EndSplineSet
EndChar

